<?xml version="1.0" encoding="UTF-8" standalone="no"?>
<!-- Created with Inkscape (http://www.inkscape.org/) -->

<svg
   width="210mm"
   height="297mm"
   viewBox="0 0 210 297"
   version="1.1"
   id="svg5"
   inkscape:version="1.1.1 (3bf5ae0d25, 2021-09-20)"
   sodipodi:docname="des1.svg"
   xmlns:inkscape="http://www.inkscape.org/namespaces/inkscape"
   xmlns:sodipodi="http://sodipodi.sourceforge.net/DTD/sodipodi-0.dtd"
   xmlns="http://www.w3.org/2000/svg"
   xmlns:svg="http://www.w3.org/2000/svg">
  <sodipodi:namedview
     id="namedview7"
     pagecolor="#ffffff"
     bordercolor="#666666"
     borderopacity="1.0"
     inkscape:pageshadow="2"
     inkscape:pageopacity="0.0"
     inkscape:pagecheckerboard="true"
     inkscape:document-units="mm"
     showgrid="false"
     inkscape:zoom="0.46324355"
     inkscape:cx="396.11993"
     inkscape:cy="560.1805"
     inkscape:window-width="1366"
     inkscape:window-height="705"
     inkscape:window-x="-8"
     inkscape:window-y="-8"
     inkscape:window-maximized="1"
     inkscape:current-layer="layer1" />
  <defs
     id="defs2" />
  <g
     inkscape:label="Calque 1"
     inkscape:groupmode="layer"
     id="layer1">
    <g
       id="g647"
       transform="matrix(0.70325234,0,0,0.49915196,-7.4785592,-31.787848)">
      <path
         style="fill:#dadada;stroke-width:0.264583"
         d="m 31.563058,136.59324 c 11.180159,-0.0382 29.396722,-0.0382 40.481251,1e-5 11.084528,0.0382 1.937125,0.0695 -20.327563,0.0695 -22.264688,0 -31.333848,-0.0313 -20.153688,-0.0695 z m 9.787332,-6.15158 c 0,-0.94588 0.04802,-1.33284 0.106714,-0.85989 0.05869,0.47294 0.05869,1.24685 0,1.71979 -0.05869,0.47294 -0.106714,0.086 -0.106714,-0.8599 z m 14.839082,-2.51354 c 2.65e-4,-2.32833 0.04081,-3.24541 0.08995,-2.03796 0.04914,1.20746 0.04886,3.11246 -5.29e-4,4.23334 -0.04947,1.12087 -0.08967,0.13295 -0.08934,-2.19538 z m -14.857045,-1.85208 c 0.0029,-0.58209 0.05712,-0.78906 0.120407,-0.45994 0.06329,0.32912 0.06088,0.80537 -0.0053,1.05833 -0.06622,0.25297 -0.118004,-0.0163 -0.115067,-0.59839 z m -5.159952,-5.09318 c 7.748985,-0.039 20.429141,-0.039 28.178126,0 7.748984,0.039 1.408906,0.0708 -14.089063,0.0708 -15.497969,0 -21.838047,-0.0319 -14.089063,-0.0708 z m -12.022701,-2.05057 c 0.0016,-0.87313 0.05088,-1.19842 0.109765,-0.72287 0.05889,0.47555 0.05767,1.18993 -0.0027,1.5875 -0.06037,0.39758 -0.108551,0.008 -0.107066,-0.86463 z m 4.00916,-2.97631 0.0099,-4.43203 2.248958,-0.0182 2.248959,-0.0182 -2.176463,0.0949 -2.176465,0.0949 -0.08239,4.35529 -0.08239,4.35528 0.0099,-4.43203 z m 41.511104,2.18256 c -7.93e-4,-1.30969 0.04393,-1.87883 0.09942,-1.26476 0.05549,0.61407 0.05615,1.68564 0.0016,2.38125 -0.0548,0.69562 -0.100205,0.19319 -0.10101,-1.11649 z m 3.140009,-2.03295 -0.05893,-4.4142 -0.727604,-0.11022 -0.727604,-0.11022 0.735906,-0.0397 c 0.404752,-0.0218 0.794854,0.11397 0.866897,0.30171 0.07204,0.18774 0.09482,2.24157 0.05062,4.56406 l -0.08037,4.22272 z m -34.640058,1.37149 c 0,-0.80037 0.0496,-1.12779 0.110223,-0.72761 0.06062,0.40019 0.06062,1.05503 0,1.45521 -0.06062,0.40018 -0.110223,0.0728 -0.110223,-0.7276 z m 16.957692,-2.11667 c 0,-1.96453 0.04165,-2.7682 0.09256,-1.78594 0.05091,0.98227 0.05091,2.58961 0,3.57188 -0.05091,0.98226 -0.09256,0.17859 -0.09256,-1.78594 z m -19.905618,2.64583 c 0,-0.3638 0.06005,-0.51263 0.133453,-0.33072 0.0734,0.1819 0.0734,0.47955 0,0.66145 -0.0734,0.18191 -0.133453,0.0331 -0.133453,-0.33073 z m 16.995201,-2.91041 c 0,-1.96453 0.04165,-2.7682 0.09256,-1.78594 0.05091,0.98227 0.05091,2.58961 0,3.57188 -0.05091,0.98226 -0.09256,0.17859 -0.09256,-1.78594 z m -21.865622,1.66536 c 0.327422,-0.0631 0.863203,-0.0631 1.190625,0 0.327422,0.0631 0.05953,0.11466 -0.595313,0.11466 -0.654844,0 -0.922734,-0.0516 -0.595312,-0.11466 z m -6.20457,-2.19453 c 0,-0.80036 0.0496,-1.12778 0.110223,-0.7276 0.06062,0.40018 0.06062,1.05502 0,1.45521 -0.06062,0.40018 -0.110223,0.0728 -0.110223,-0.72761 z m 36.512501,0 c 0,-0.80036 0.0496,-1.12778 0.110223,-0.7276 0.06062,0.40018 0.06062,1.05502 0,1.45521 -0.06062,0.40018 -0.110223,0.0728 -0.110223,-0.72761 z m -25.427705,-0.39687 c 0.0054,-0.43657 0.06469,-0.58313 0.131773,-0.3257 0.06708,0.25743 0.06267,0.61462 -0.0098,0.79375 -0.07248,0.17913 -0.127362,-0.0315 -0.12197,-0.46805 z m 2.900611,-0.39688 c 0,-0.3638 0.06006,-0.51263 0.133454,-0.33073 0.0734,0.1819 0.0734,0.47956 0,0.66146 -0.0734,0.1819 -0.133454,0.0331 -0.133454,-0.33073 z m 7.863732,-2.19051 c 0.127662,-0.12766 0.57404,-0.18946 0.99195,-0.13734 0.699457,0.0872 0.681011,0.10568 -0.232111,0.23211 -0.568786,0.0787 -0.89293,0.0383 -0.759839,-0.0948 z m 7.656746,0.0162 c 0.141097,-0.1411 0.477546,-0.20969 0.747665,-0.15244 0.363754,0.0771 0.297222,0.14364 -0.25654,0.25654 -0.482817,0.0984 -0.656792,0.0616 -0.491125,-0.1041 z m 9.805755,-0.0162 c 0.127661,-0.12766 0.57404,-0.18946 0.991949,-0.13734 0.699458,0.0872 0.681011,0.10568 -0.232111,0.23211 -0.568785,0.0787 -0.892929,0.0383 -0.759838,-0.0948 z m -39.981498,-0.11791 c 0.475548,-0.0589 1.189923,-0.0577 1.5875,0.003 0.397576,0.0604 0.0085,0.10855 -0.864635,0.10707 -0.873125,-0.002 -1.198414,-0.0509 -0.722865,-0.10977 z m 12.038838,0.008 c 0.257431,-0.0671 0.614619,-0.0627 0.79375,0.01 0.179131,0.0725 -0.03149,0.12736 -0.468056,0.12197 -0.436563,-0.005 -0.583126,-0.0647 -0.325694,-0.13178 z m 4.632166,-0.0107 c 0.622311,-0.0559 1.574811,-0.0551 2.116667,0.002 0.541856,0.0568 0.03269,0.10258 -1.131472,0.10162 -1.164167,-0.001 -1.607505,-0.0475 -0.985195,-0.10337 z m 10.840924,0.0188 c 0.181901,-0.0734 0.479557,-0.0734 0.661459,0 0.181901,0.0734 0.03307,0.13346 -0.33073,0.13346 -0.363802,0 -0.51263,-0.0601 -0.330729,-0.13346 z m 5.953125,-0.0143 c 0.400183,-0.0606 1.055026,-0.0606 1.455209,0 0.400182,0.0606 0.07276,0.11022 -0.727604,0.11022 -0.800365,0 -1.127787,-0.0496 -0.727605,-0.11022 z m 11.509376,0.0143 c 0.181901,-0.0734 0.479557,-0.0734 0.661458,0 0.181901,0.0734 0.03307,0.13346 -0.330729,0.13346 -0.363802,0 -0.51263,-0.0601 -0.330729,-0.13346 z m 6.356993,-0.0188 c 0.62231,-0.0559 1.57481,-0.0551 2.116666,0.002 0.541857,0.0568 0.0327,0.10258 -1.131472,0.10162 -1.164166,-0.001 -1.607505,-0.0475 -0.985194,-0.10337 z m -40.585071,-2.30402 c -0.0805,-0.20978 -0.09058,-0.59673 -0.02238,-0.8599 0.08234,-0.3178 0.134281,-0.23789 0.154668,0.238 0.03026,0.70642 0.05949,0.71774 2.081212,0.80665 l 2.050521,0.0902 -2.058823,0.0532 c -1.58505,0.041 -2.092508,-0.0345 -2.205192,-0.32818 z m 5.91766,0.19003 c 0.472943,-0.0587 1.246849,-0.0587 1.719792,0 0.472943,0.0587 0.08599,0.10671 -0.859896,0.10671 -0.945885,0 -1.332838,-0.048 -0.859896,-0.10671 z m 5.027084,-0.002 c 0.618463,-0.0557 1.630495,-0.0557 2.248958,0 0.618464,0.0557 0.112448,0.10128 -1.124479,0.10128 -1.236927,0 -1.742943,-0.0456 -1.124479,-0.10128 z m 6.746875,-0.004 c 1.418828,-0.0476 3.740547,-0.0476 5.159375,0 1.418828,0.0476 0.257969,0.0865 -2.579688,0.0865 -2.837656,0 -3.998515,-0.0389 -2.579687,-0.0865 z m 10.054167,0.003 c 0.691224,-0.0545 1.822318,-0.0545 2.513542,0 0.691224,0.0545 0.125677,0.0991 -1.256771,0.0991 -1.382448,0 -1.947995,-0.0446 -1.256771,-0.0991 z m -26.789063,-3.31061 0.132291,-2.71258 4.033674,-0.073 4.033673,-0.073 -0.957585,1.74211 c -0.786963,1.43171 -0.932661,1.92794 -0.817705,2.78501 l 0.139882,1.0429 -3.348262,5.3e-4 -3.34826,5.3e-4 0.132292,-2.71259 z m 10.605847,1.71919 c 0.279246,-0.5457 0.857199,-1.79586 1.284343,-2.77812 l 0.776623,-1.78594 h 3.409294 3.409291 l 1.254551,2.37939 c 0.690002,1.30867 1.433979,2.55882 1.653284,2.77813 0.355253,0.35525 -0.293338,0.39873 -5.948186,0.39873 h -6.346917 z m 15.34274,0.42673 c 0.459338,-0.85828 0.112538,-2.23038 -0.930775,-3.68259 l -0.939847,-1.3082 h 2.777683 2.777686 l 0.0029,1.78594 c 0.0016,0.98226 0.07671,2.23242 0.16691,2.77812 l 0.163997,0.99219 h -2.160593 c -2.124827,0 -2.155585,-0.009 -1.857973,-0.56546 z m 4.520272,-0.75746 c 0,-0.3638 0.06006,-0.51263 0.133453,-0.33073 0.0734,0.1819 0.0734,0.47956 0,0.66146 -0.0734,0.1819 -0.133453,0.0331 -0.133453,-0.33073 z M 34.428313,103.4539 c 0,-0.3638 0.06005,-0.51263 0.133453,-0.33073 0.0734,0.1819 0.0734,0.47956 0,0.66146 -0.0734,0.1819 -0.133453,0.0331 -0.133453,-0.33073 z m 30.5176,-0.79375 c -0.431379,-0.18537 -0.446487,-0.23083 -0.08176,-0.24598 0.246073,-0.0102 0.520991,0.10046 0.610928,0.24598 0.188029,0.30424 0.178835,0.30424 -0.529168,0 z m -30.079818,-0.18074 c 0.190995,-0.0764 0.419198,-0.067 0.507119,0.0209 0.08792,0.0879 -0.06835,0.15045 -0.347266,0.13896 -0.308226,-0.0127 -0.370919,-0.0754 -0.159853,-0.15985 z m 1.4658,-0.54686 c 0.07091,-0.25466 0.202927,-2.070368 0.293362,-4.034899 0.234923,-5.103217 0.174857,-4.9281 1.762633,-5.138727 1.509511,-0.200242 3.912915,-1.193522 5.125106,-2.118103 l 0.819264,-0.624885 1.620972,0.531466 c 1.420344,0.465687 1.693839,0.668824 2.209702,1.641234 l 0.58873,1.109766 -2.462228,4.548584 -2.462229,4.548584 h -3.812122 c -3.503321,0 -3.801679,-0.0375 -3.68319,-0.46302 z m 12.07756,0.23708 c 0,-0.12426 0.543753,-1.38953 1.208339,-2.811704 1.088374,-2.329058 1.242269,-2.53647 1.550122,-2.089171 0.502325,0.729861 2.797789,4.820115 2.797789,4.985345 0,0.0778 -1.250157,0.14147 -2.778125,0.14147 -1.527969,0 -2.778125,-0.10167 -2.778125,-0.22594 z m 7.890039,-3.544375 c -3.910248,-5.916763 -3.681791,-5.422138 -3.111693,-6.737048 0.35647,-0.822185 0.735129,-1.219883 1.443151,-1.515714 0.943882,-0.394377 0.982715,-0.385611 2.330127,0.52595 1.431587,0.968507 4.21195,1.972125 5.463458,1.972125 h 0.730176 l 0.177401,3.638021 c 0.09757,2.000911 0.246218,4.144041 0.330329,4.762501 l 0.15293,1.12448 H 61.303286 58.791202 Z M 35.46576,101.71232 c 0.0127,-0.30822 0.07539,-0.37092 0.15985,-0.15985 0.07643,0.19099 0.06703,0.4192 -0.02088,0.50712 -0.08792,0.0879 -0.150453,-0.0683 -0.138965,-0.34727 z m 28.86047,-0.90399 c 0,-0.3638 0.06006,-0.51263 0.133453,-0.33073 0.0734,0.1819 0.0734,0.47956 0,0.66146 -0.0734,0.1819 -0.133453,0.0331 -0.133453,-0.33073 z M 35.751229,97.633328 c 0,-0.363802 0.06005,-0.51263 0.133454,-0.330729 0.0734,0.181901 0.0734,0.479557 0,0.661458 -0.0734,0.181901 -0.133454,0.03307 -0.133454,-0.330729 z m 28.289532,-0.94809 c 0.0127,-0.308226 0.07539,-0.370919 0.15985,-0.159853 0.07643,0.190995 0.06703,0.419198 -0.02087,0.507119 -0.08792,0.08792 -0.150453,-0.06835 -0.138965,-0.347266 z M 36.015813,93.399994 c 0,-0.363802 0.06005,-0.51263 0.133453,-0.330729 0.0734,0.181901 0.0734,0.479557 0,0.661459 -0.0734,0.181901 -0.133453,0.03307 -0.133453,-0.33073 z M 32.66329,91.601153 c -2.054333,-0.710372 -3.639642,-1.751856 -5.101778,-3.351665 -7.339385,-8.030459 -1.29055,-21.182216 9.405084,-20.449121 1.132731,0.07764 2.515065,0.331504 3.071849,0.564143 l 1.012336,0.422981 -0.916639,1.259897 c -1.5788,2.170029 -1.982105,3.244273 -1.218004,3.244273 0.11444,0 0.413478,-0.432857 0.664525,-0.961905 0.827572,-1.743978 3.17015,-3.985668 5.227712,-5.00257 5.62647,-2.780753 11.55687,-1.050719 15.301759,4.463873 0.731317,1.076911 1.138301,1.467456 1.329735,1.276022 0.191434,-0.191434 -0.141742,-0.891362 -1.088578,-2.286862 l -1.364443,-2.010995 0.995156,-0.416999 c 0.547339,-0.229349 1.953821,-0.477268 3.125521,-0.550929 3.363113,-0.211431 6.224908,0.794589 8.611968,3.027404 4.263501,3.988007 5.217456,10.472777 2.278385,15.487925 -1.009012,1.721747 -3.398996,3.828941 -5.411687,4.771361 -2.428798,1.137256 -5.709049,1.327515 -8.225166,0.477073 -1.693275,-0.572326 -3.75422,-1.712384 -3.743838,-2.070987 0.0031,-0.107317 0.475358,-0.527388 1.049446,-0.933495 1.131155,-0.800171 2.913655,-2.833571 2.913655,-3.32377 0,-0.614143 -0.679696,-0.273092 -1.315265,0.659961 -0.880501,1.29263 -4.302262,3.825976 -4.670427,3.457813 -0.273413,-0.273415 0.541162,-1.48151 1.092178,-1.619808 1.288945,-0.323503 3.283419,-2.521712 4.430739,-4.883341 0.939562,-1.933977 1.110608,-2.540005 1.116857,-3.957093 0.007,-1.592899 -0.03931,-1.716175 -0.963475,-2.563696 -1.017236,-0.932868 -2.407341,-1.359282 -3.520474,-1.079904 -1.204077,0.302204 -2.490444,1.745294 -3.687768,4.137067 -1.326193,2.649194 -1.729881,4.720463 -1.239208,6.358187 0.279024,0.931299 0.237614,1.160142 -0.459341,2.538452 l -0.766011,1.51488 -0.706302,-1.118854 c -0.653233,-1.034791 -0.675818,-1.162381 -0.30057,-1.698123 0.783567,-1.118698 0.497832,-1.809835 -2.65776,-6.4286 -3.633336,-5.318027 -3.655037,-5.34353 -4.177729,-4.909735 -0.331391,0.27503 -0.02167,0.913849 2.103387,4.338402 1.370603,2.208734 2.492002,4.16673 2.492002,4.351105 0,1.240705 -1.310174,-0.34875 -6.131396,-7.438391 -0.113813,-0.167361 -0.319833,-0.144665 -0.569775,0.06277 -0.336351,0.279146 -0.07828,0.900699 1.831917,4.412189 1.222883,2.247998 2.223421,4.26702 2.223421,4.486714 0,0.969285 -0.828159,0.225727 -2.133627,-1.91566 -3.108349,-5.098706 -3.664691,-5.879012 -4.078417,-5.72025 -0.221398,0.08496 -0.40254,0.305897 -0.40254,0.490976 0,0.18508 0.934884,1.988043 2.077517,4.006589 1.142635,2.018544 2.288164,4.0868 2.545622,4.596123 l 0.468104,0.926041 -0.882391,-0.79375 c -1.13732,-1.023069 -1.442823,-1.375256 -2.237738,-2.579687 -0.667207,-1.010936 -1.177364,-1.283304 -1.177364,-0.628584 0,0.640154 2.091876,3.21292 3.461851,4.257678 l 1.32605,1.011258 -1.13718,0.759974 c -2.574605,1.720601 -7.017192,2.320776 -9.871885,1.333645 z m 39.029499,-1.476055 c 0,-0.05494 0.208359,-0.2633 0.46302,-0.463021 0.419645,-0.329107 0.429004,-0.319749 0.0999,0.0999 -0.345643,0.44073 -0.562916,0.580888 -0.562916,0.363125 z m -25.664584,-0.42927 c -0.342025,-0.221033 -0.33504,-0.25704 0.05053,-0.260533 0.246073,-0.0021 0.520991,0.115012 0.610928,0.260533 0.206952,0.334856 -0.143306,0.334856 -0.661458,0 z M 72.452788,70.44739 c -0.329107,-0.419644 -0.319749,-0.429003 0.0999,-0.0999 0.44073,0.345643 0.580888,0.562915 0.363125,0.562915 -0.05494,0 -0.2633,-0.208359 -0.463021,-0.46302 z"
         id="path661" />
      <path
         style="fill:#b0f4d2;stroke-width:0.264583"
         d="m 51.714201,162.25823 40.346425,-0.0683 0.07254,-12.69919 0.07254,-12.69919 -0.0038,12.76618 -0.0039,12.76618 -40.41511,10e-4 -40.415108,0.001 40.346422,-0.0683 z m -31.35058,-6.13637 c 0,-0.13693 0.117699,-0.32171 0.261553,-0.41062 0.149982,-0.0927 0.194337,0.0135 0.103984,0.24897 -0.175892,0.45837 -0.365537,0.54224 -0.365537,0.16165 z m 10.054166,0 c 0,-0.13693 0.1177,-0.32171 0.261554,-0.41062 0.149982,-0.0927 0.194337,0.0135 0.103984,0.24897 -0.175892,0.45837 -0.365538,0.54224 -0.365538,0.16165 z m 11.112501,0 c 0,-0.13693 0.1177,-0.32171 0.261554,-0.41062 0.149981,-0.0927 0.194336,0.0135 0.103984,0.24897 -0.175893,0.45837 -0.365538,0.54224 -0.365538,0.16165 z m 3.96875,0 c 0,-0.13693 0.1177,-0.32171 0.261554,-0.41062 0.149981,-0.0927 0.194336,0.0135 0.103984,0.24897 -0.175893,0.45837 -0.365538,0.54224 -0.365538,0.16165 z m 39.179223,-0.69912 c 0.0127,-0.30823 0.07539,-0.37092 0.159851,-0.15985 0.07643,0.19099 0.06703,0.4192 -0.02088,0.50712 -0.08792,0.0879 -0.150453,-0.0684 -0.138964,-0.34727 z m -7.693806,-0.50712 c 0.341776,-0.3638 0.68094,-0.66146 0.7537,-0.66146 0.07276,0 -0.147341,0.29766 -0.489116,0.66146 -0.341776,0.3638 -0.68094,0.66146 -0.7537,0.66146 -0.07276,0 0.147341,-0.29766 0.489116,-0.66146 z m -57.188829,-0.1993 c 0.133308,-0.1333 0.524002,-0.19807 0.868207,-0.14393 0.529614,0.0833 0.492347,0.12058 -0.24238,0.24238 -0.525785,0.0872 -0.772612,0.0483 -0.625827,-0.0985 z m 21.166667,0 c 0.133308,-0.1333 0.524003,-0.19807 0.868207,-0.14393 0.529614,0.0833 0.492347,0.12058 -0.24238,0.24238 -0.525785,0.0872 -0.772612,0.0483 -0.625827,-0.0985 z m 6.826584,8e-4 c 0.06745,-0.10914 0.413271,-0.19844 0.768485,-0.19844 0.355214,0 0.645843,0.0893 0.645843,0.19844 0,0.10914 -0.345819,0.19843 -0.768485,0.19843 -0.422667,0 -0.713296,-0.0893 -0.645843,-0.19843 z m 10.960217,-0.0882 c 0.0127,-0.30822 0.07539,-0.37092 0.15985,-0.15985 0.07643,0.191 0.06703,0.4192 -0.02087,0.50712 -0.08792,0.0879 -0.150453,-0.0684 -0.138965,-0.34727 z m 5.358971,0.0337 c 0,-0.21188 0.101161,-0.32271 0.224803,-0.2463 0.12364,0.0764 0.156303,0.24977 0.07258,0.38524 -0.213947,0.34617 -0.297381,0.30719 -0.297381,-0.13894 z m 17.710071,-0.0627 c 0.257432,-0.0671 0.614619,-0.0627 0.79375,0.01 0.179131,0.0725 -0.03149,0.12736 -0.468056,0.12197 -0.436562,-0.005 -0.583125,-0.0647 -0.325694,-0.13178 z m -61.05764,-0.79052 c 0.291041,-0.0801 0.627528,-0.28066 0.747747,-0.44573 0.144425,-0.1983 0.182274,-0.16548 0.111566,0.0967 -0.05886,0.21828 -0.395343,0.41886 -0.747747,0.44573 -0.505219,0.0385 -0.528814,0.0181 -0.111566,-0.0967 z m 21.166667,0 c 0.291041,-0.0801 0.627528,-0.28066 0.747747,-0.44573 0.144425,-0.1983 0.182274,-0.16548 0.111567,0.0967 -0.05886,0.21828 -0.395344,0.41886 -0.747747,0.44573 -0.50522,0.0385 -0.528815,0.0181 -0.111567,-0.0967 z m 6.373622,-0.0462 c -0.07695,-0.1245 0.154154,-0.17015 0.513551,-0.10145 0.359399,0.0687 0.653452,0.17056 0.653452,0.22636 0,0.20472 -1.031515,0.0943 -1.167003,-0.12491 z m 33.710754,0.12491 c 0,-0.0558 0.294052,-0.15766 0.653452,-0.22636 0.359397,-0.0687 0.590497,-0.023 0.513551,0.10145 -0.135488,0.21922 -1.167003,0.32963 -1.167003,0.12491 z m -26.193751,-0.94858 c 0,-0.14095 0.178594,-0.18775 0.396875,-0.10399 0.218281,0.0838 0.396875,0.19909 0.396875,0.25629 0,0.0572 -0.178594,0.10398 -0.396875,0.10398 -0.218281,0 -0.396875,-0.11533 -0.396875,-0.25628 z m 7.408334,-0.1406 c 0,-0.21828 0.04679,-0.39687 0.103984,-0.39687 0.05719,0 0.172516,0.17859 0.25628,0.39687 0.08376,0.21829 0.03697,0.39688 -0.103984,0.39688 -0.140954,0 -0.25628,-0.17859 -0.25628,-0.39688 z M 23.854785,152.0052 c 0.0054,-0.43656 0.06469,-0.58312 0.131773,-0.32569 0.06708,0.25743 0.06267,0.61462 -0.0098,0.79375 -0.07248,0.17913 -0.127363,-0.0315 -0.121971,-0.46806 z m 21.166667,0 c 0.0054,-0.43656 0.06469,-0.58312 0.131773,-0.32569 0.06708,0.25743 0.06267,0.61462 -0.0098,0.79375 -0.07248,0.17913 -0.127363,-0.0315 -0.121971,-0.46806 z m 14.277695,0.1323 c 0,-0.36381 0.06006,-0.51263 0.133453,-0.33073 0.0734,0.1819 0.0734,0.47955 0,0.66146 -0.0734,0.1819 -0.133453,0.0331 -0.133453,-0.33073 z m -9.682057,-0.18703 c -0.143584,-0.37708 -0.113194,-0.40747 0.148113,-0.14811 0.180822,0.17947 0.262115,0.39297 0.180653,0.47443 -0.08146,0.0815 -0.229407,-0.0654 -0.328766,-0.32632 z m 2.252837,0.0327 c 0.0127,-0.30823 0.07539,-0.37092 0.159851,-0.15986 0.07643,0.191 0.06703,0.4192 -0.02088,0.50712 -0.08792,0.0879 -0.150453,-0.0684 -0.138965,-0.34726 z m 5.270778,-0.0468 c 0,-0.1591 -0.20836,-0.34373 -0.463021,-0.41028 -0.417436,-0.10909 -0.418973,-0.12402 -0.01561,-0.15169 0.477348,-0.0327 0.90167,0.42822 0.637423,0.69247 -0.08734,0.0873 -0.158792,0.0286 -0.158792,-0.1305 z m 6.553319,-0.37265 c 0.153749,-0.15375 0.435721,-0.22749 0.626602,-0.16386 0.19816,0.066 0.07822,0.18599 -0.279545,0.27955 -0.440095,0.11508 -0.543396,0.0806 -0.347057,-0.11569 z m 18.317515,-0.0553 c 0,-0.0549 0.208359,-0.2633 0.463021,-0.46302 0.419645,-0.32911 0.429003,-0.31975 0.0999,0.0999 -0.345644,0.44073 -0.562917,0.58089 -0.562917,0.36312 z m -60.258856,-0.87624 c 0.254662,-0.0665 0.67138,-0.0665 0.926042,0 0.254661,0.0665 0.0463,0.12101 -0.463021,0.12101 -0.509323,0 -0.717682,-0.0545 -0.463021,-0.12101 z m 21.166667,0 c 0.254662,-0.0665 0.671381,-0.0665 0.926042,0 0.254661,0.0665 0.0463,0.12101 -0.463021,0.12101 -0.509323,0 -0.717682,-0.0545 -0.463021,-0.12101 z m 6.879167,0 c 0.254662,-0.0665 0.67138,-0.0665 0.926042,0 0.254661,0.0665 0.0463,0.12101 -0.463021,0.12101 -0.509323,0 -0.717682,-0.0545 -0.463021,-0.12101 z m 33.602084,0 c 0.254662,-0.0665 0.671381,-0.0665 0.926042,0 0.254661,0.0665 0.0463,0.12101 -0.463021,0.12101 -0.509323,0 -0.717682,-0.0545 -0.463021,-0.12101 z m -54.570314,-4.5645 c 0,-0.13693 0.1177,-0.32171 0.261554,-0.41061 0.149982,-0.0927 0.194337,0.0135 0.103984,0.24896 -0.175892,0.45837 -0.365538,0.54224 -0.365538,0.16165 z m 4.233334,0 c 0,-0.13693 0.1177,-0.32171 0.261554,-0.41061 0.149981,-0.0927 0.194336,0.0135 0.103984,0.24896 -0.175893,0.45837 -0.365538,0.54224 -0.365538,0.16165 z m 13.779222,-0.16995 c 0.0127,-0.30823 0.07539,-0.37092 0.159851,-0.15985 0.07643,0.19099 0.06703,0.4192 -0.02088,0.50712 -0.08792,0.0879 -0.150452,-0.0684 -0.138964,-0.34727 z m 6.602109,0.27105 c 0.0046,-0.13695 0.183224,-0.48012 0.396875,-0.76259 0.213654,-0.28248 0.384675,-0.40154 0.380047,-0.26459 -0.0046,0.13696 -0.183224,0.48013 -0.396875,0.7626 -0.213653,0.28248 -0.384675,0.40154 -0.380047,0.26458 z m 2.802398,-0.25923 c -0.09074,-0.23646 -0.157433,-0.56902 -0.148207,-0.73902 0.0092,-0.16999 0.130845,-0.0239 0.270267,0.32464 0.139422,0.34855 0.206116,0.68111 0.148206,0.73901 -0.05791,0.0579 -0.17953,-0.0882 -0.270266,-0.32463 z m 7.243355,0.15813 c 0,-0.13693 0.1177,-0.32171 0.261554,-0.41061 0.149982,-0.0927 0.194336,0.0135 0.103984,0.24896 -0.175893,0.45837 -0.365538,0.54224 -0.365538,0.16165 z m -6.329111,-0.69912 c 0.0127,-0.30822 0.07539,-0.37092 0.15985,-0.15985 0.07643,0.19099 0.06703,0.4192 -0.02087,0.50712 -0.08792,0.0879 -0.150453,-0.0683 -0.138965,-0.34727 z m -7.743415,-0.0264 c 0.190994,-0.0764 0.419198,-0.067 0.507119,0.0209 0.08792,0.0879 -0.06835,0.15046 -0.347266,0.13897 -0.308226,-0.0127 -0.370919,-0.0754 -0.159853,-0.15985 z m 9.960605,-0.10145 c -0.09592,-0.1552 -0.117655,-0.33893 -0.0483,-0.40829 0.06935,-0.0693 0.196601,0.0576 0.282773,0.28219 0.178906,0.46623 0.02643,0.54823 -0.234473,0.1261 z m -31.116491,-0.57857 c 0.133308,-0.13331 0.524002,-0.19808 0.868207,-0.14393 0.529613,0.0833 0.492347,0.12058 -0.24238,0.24238 -0.525785,0.0872 -0.772612,0.0483 -0.625827,-0.0985 z m 23.893103,-0.19757 c 0,-0.3638 0.06006,-0.51263 0.133454,-0.33073 0.0734,0.1819 0.0734,0.47956 0,0.66146 -0.0734,0.1819 -0.133454,0.0331 -0.133454,-0.33073 z m 10.767315,0.19758 c 0.133307,-0.13331 0.524002,-0.19808 0.868206,-0.14394 0.529614,0.0833 0.492347,0.12058 -0.242379,0.24239 -0.525786,0.0872 -0.772613,0.0483 -0.625827,-0.0985 z m -33.695549,-0.90694 c 0.291042,-0.0801 0.627529,-0.28066 0.747747,-0.44573 0.144426,-0.1983 0.182274,-0.16547 0.111567,0.0968 -0.05886,0.21828 -0.395343,0.41885 -0.747747,0.44572 -0.505219,0.0385 -0.528814,0.0181 -0.111567,-0.0967 z m 19.148542,-0.28283 c -0.329107,-0.41964 -0.319749,-0.429 0.0999,-0.0999 0.254662,0.19972 0.463021,0.40808 0.463021,0.46302 0,0.21776 -0.217273,0.0776 -0.562917,-0.36313 z m 15.511876,0.28283 c 0.291042,-0.0801 0.627528,-0.28066 0.747747,-0.44573 0.144425,-0.1983 0.182274,-0.16547 0.111567,0.0968 -0.05886,0.21828 -0.395343,0.41885 -0.747747,0.44572 -0.505219,0.0385 -0.528815,0.0181 -0.111567,-0.0967 z m -25.912157,-0.42653 c 0.09936,-0.26094 0.247303,-0.40778 0.328766,-0.32632 0.08146,0.0815 1.69e-4,0.29495 -0.180652,0.47443 -0.261308,0.25936 -0.291698,0.22897 -0.148114,-0.14811 z m 6.469062,-0.82581 c 0.171347,-0.17135 0.350258,-0.17135 0.521605,0 0.17135,0.17135 0.0819,0.26081 -0.260802,0.26081 -0.342699,0 -0.432152,-0.0895 -0.260803,-0.26081 z m -12.123034,-0.55184 c 0.0054,-0.43657 0.06469,-0.58313 0.131773,-0.3257 0.06708,0.25743 0.06267,0.61462 -0.0098,0.79375 -0.07248,0.17913 -0.127362,-0.0315 -0.12197,-0.46805 z m 34.660418,0 c 0.0054,-0.43657 0.06469,-0.58313 0.131773,-0.3257 0.06708,0.25743 0.06267,0.61462 -0.0098,0.79375 -0.07248,0.17913 -0.127362,-0.0315 -0.12197,-0.46805 z m -6.909859,-0.022 c 0.0127,-0.30823 0.07539,-0.37092 0.159851,-0.15986 0.07643,0.191 0.06703,0.4192 -0.02088,0.50712 -0.08792,0.0879 -0.150452,-0.0684 -0.138964,-0.34726 z m -15.631305,-0.37484 c -0.615755,-0.1972 -0.621404,-0.21366 -0.08176,-0.23821 0.318833,-0.0145 0.653283,0.0927 0.74322,0.23821 0.08994,0.14552 0.12673,0.25272 0.08176,0.23821 -0.04497,-0.0145 -0.379417,-0.1217 -0.74322,-0.23821 z m 26.9875,-0.0999 c 0,-0.0549 0.20836,-0.2633 0.463021,-0.46302 0.419645,-0.32911 0.429003,-0.31975 0.0999,0.0999 -0.345644,0.44073 -0.562917,0.58089 -0.562917,0.36313 z M 30.21935,140.57803 c 0.254661,-0.0666 0.67138,-0.0666 0.926042,0 0.254661,0.0665 0.0463,0.121 -0.463021,0.121 -0.509323,0 -0.717682,-0.0545 -0.463021,-0.121 z m 19.727995,0.002 c 0.190995,-0.0764 0.419198,-0.067 0.507119,0.0209 0.08792,0.0879 -0.06835,0.15045 -0.347265,0.13896 -0.308227,-0.0127 -0.37092,-0.0754 -0.159854,-0.15985 z m 14.932423,-0.002 c 0.254661,-0.0666 0.67138,-0.0666 0.926041,0 0.254662,0.0665 0.0463,0.121 -0.463021,0.121 -0.509323,0 -0.717682,-0.0545 -0.46302,-0.121 z m -25.688955,-6.96137 c 0,-0.3638 0.06005,-0.51263 0.133453,-0.33073 0.0734,0.1819 0.0734,0.47956 0,0.66146 -0.0734,0.1819 -0.133453,0.0331 -0.133453,-0.33073 z m 21.960417,0 c 0,-0.3638 0.06005,-0.51263 0.133453,-0.33073 0.0734,0.1819 0.0734,0.47956 0,0.66146 -0.0734,0.1819 -0.133453,0.0331 -0.133453,-0.33073 z m -21.364763,-5.68854 c -2.65e-4,-2.47385 0.03946,-3.5215 0.08837,-2.3281 0.04891,1.19341 0.04916,3.21747 5.29e-4,4.49792 -0.0486,1.28045 -0.08862,0.30403 -0.08893,-2.16982 z m 7.498508,2.86748 c 0.181901,-0.0734 0.479558,-0.0734 0.661459,0 0.181901,0.0734 0.03307,0.13345 -0.330729,0.13345 -0.363802,0 -0.512631,-0.06 -0.33073,-0.13345 z m 5.291667,0 c 0.181901,-0.0734 0.479558,-0.0734 0.661459,0 0.181901,0.0734 0.03307,0.13345 -0.33073,0.13345 -0.363802,0 -0.51263,-0.06 -0.330729,-0.13345 z m 5.207067,-0.17433 c -0.07378,-0.19226 -0.09981,-1.53034 -0.05784,-2.9735 0.06723,-2.31202 0.134679,-2.63511 0.567423,-2.71796 0.270119,-0.0517 0.606568,0.0214 0.747665,0.16252 0.165666,0.16566 0.01513,0.21039 -0.424979,0.12626 l -0.681519,-0.13028 v 2.83981 2.83981 l 0.653452,-0.12491 c 0.359397,-0.0687 0.590497,-0.0231 0.513551,0.10145 -0.218826,0.35407 -1.168683,0.26526 -1.317749,-0.1232 z m 2.897587,-2.69315 c 5.29e-4,-1.74625 0.04334,-2.42619 0.09516,-1.51098 0.05181,0.9152 0.05139,2.34395 -0.0011,3.175 -0.05234,0.83104 -0.09473,0.0822 -0.09421,-1.66402 z m -12.53802,-0.18634 c -0.07189,-1.55769 -0.03686,-2.73781 0.07784,-2.6225 0.114694,0.11531 0.173508,1.38979 0.130696,2.83217 l -0.07784,2.6225 z m 4.066979,0.18634 c 7.94e-4,-1.45521 0.04512,-2.01677 0.09874,-1.2479 0.05362,0.76886 0.05305,1.95949 -0.0013,2.64583 -0.05423,0.68635 -0.0981,0.0573 -0.09741,-1.39793 z m -10.48153,-0.84818 c 0.327422,-0.0631 0.863203,-0.0631 1.190625,0 0.327422,0.0631 0.05953,0.11466 -0.595312,0.11466 -0.654844,0 -0.922735,-0.0516 -0.595313,-0.11466 z m 0.269322,-2.1217 c 0.475549,-0.0589 1.189924,-0.0577 1.5875,0.003 0.397577,0.0604 0.0085,0.10855 -0.864634,0.10707 -0.873125,-0.002 -1.198415,-0.0509 -0.722866,-0.10977 z m 13.04688,-0.22717 c 0.0127,-0.30822 0.07539,-0.37092 0.159851,-0.15985 0.07643,0.19099 0.06703,0.4192 -0.02088,0.50712 -0.08792,0.0879 -0.150453,-0.0683 -0.138964,-0.34727 z"
         id="path659" />
      <path
         style="fill:#a4a19f;stroke-width:0.264583"
         d="m 21.992896,121.71041 c 0,-0.3638 0.06006,-0.51263 0.133453,-0.33073 0.0734,0.1819 0.0734,0.47956 0,0.66146 -0.0734,0.1819 -0.133453,0.0331 -0.133453,-0.33073 z m 56.356251,0 c 0,-0.3638 0.06005,-0.51263 0.133453,-0.33073 0.0734,0.1819 0.0734,0.47956 0,0.66146 -0.0734,0.1819 -0.133453,0.0331 -0.133453,-0.33073 z M 22.58855,116.02187 c -2.65e-4,-2.47385 0.03946,-3.5215 0.08837,-2.3281 0.04891,1.19341 0.04916,3.21747 5.29e-4,4.49792 -0.0486,1.28045 -0.08862,0.30403 -0.08893,-2.16982 z m 9.914461,3.62971 c -0.08716,-0.52579 -0.04834,-0.77261 0.09845,-0.62583 0.133308,0.13331 0.198078,0.524 0.143933,0.86821 -0.08331,0.52961 -0.120578,0.49234 -0.242383,-0.24238 z m 35.593873,-3.62971 c -2.65e-4,-2.47385 0.03946,-3.5215 0.08837,-2.3281 0.04891,1.19341 0.04916,3.21747 5.3e-4,4.49792 -0.0486,1.28045 -0.08862,0.30403 -0.08893,-2.16982 z m -27.832305,0.74601 c -0.05553,-3.38518 -0.07465,-3.49069 -0.65252,-3.60199 l -0.595313,-0.11467 0.603615,-0.036 c 0.331991,-0.0198 0.663263,0.1194 0.736164,0.30938 0.0729,0.18997 0.09491,1.82708 0.0489,3.63802 l -0.08364,3.29261 z m 1.650603,-0.15032 c 0.01132,-3.31683 0.04055,-3.50751 0.541147,-3.53211 0.387372,-0.019 0.40712,0.003 0.07371,0.0836 -0.396086,0.0953 -0.466632,0.55573 -0.541147,3.53211 l -0.08568,3.42255 0.01199,-3.50611 z m -8.261011,1.65327 c 0,-0.50932 0.05445,-0.71768 0.121002,-0.46302 0.06655,0.25466 0.06655,0.67138 0,0.92604 -0.06655,0.25466 -0.121002,0.0463 -0.121002,-0.46302 z m 16.977093,-2.91042 c 0,-2.11005 0.04109,-2.97325 0.09131,-1.91823 0.05022,1.05503 0.05022,2.78143 0,3.83646 -0.05022,1.05503 -0.09131,0.19182 -0.09131,-1.91823 z m -20.935165,2.38125 c 0,-0.65484 0.0516,-0.92273 0.114663,-0.59531 0.06307,0.32742 0.06307,0.8632 0,1.19062 -0.06306,0.32743 -0.114663,0.0595 -0.114663,-0.59531 z m 16.798211,0.87121 c 0.329118,-0.0633 0.805368,-0.0609 1.058334,0.005 0.252965,0.0662 -0.01633,0.118 -0.598398,0.11507 -0.582083,-0.003 -0.789053,-0.0571 -0.459936,-0.12041 z m 17.462501,0 c 0.329118,-0.0633 0.805368,-0.0609 1.058333,0.005 0.252966,0.0662 -0.01633,0.118 -0.598397,0.11507 -0.582084,-0.003 -0.789054,-0.0571 -0.459936,-0.12041 z m -10.417472,-3.38475 c 5.29e-4,-1.89177 0.04261,-2.63096 0.09365,-1.64264 0.05105,0.98831 0.05067,2.53613 -7.94e-4,3.43958 -0.05151,0.90345 -0.09327,0.0948 -0.09281,-1.79694 z m -6.910787,2.0656 c 0.257432,-0.0671 0.614619,-0.0627 0.79375,0.01 0.179131,0.0725 -0.03149,0.12736 -0.468056,0.12197 -0.436562,-0.005 -0.583126,-0.0647 -0.325694,-0.13177 z m 17.462501,0 c 0.257431,-0.0671 0.614619,-0.0627 0.79375,0.01 0.17913,0.0725 -0.03149,0.12736 -0.468056,0.12197 -0.436563,-0.005 -0.583126,-0.0647 -0.325694,-0.13177 z m 7.166485,-3.38852 c -7.93e-4,-1.30968 0.04393,-1.87882 0.09942,-1.26475 0.05549,0.61407 0.05615,1.68563 0.0016,2.38125 -0.05468,0.69561 -0.100084,0.19319 -0.100888,-1.1165 z m -37.582764,0.52917 c 0.0016,-0.87313 0.05088,-1.19841 0.109765,-0.72287 0.05889,0.47555 0.05767,1.18993 -0.0027,1.5875 -0.06037,0.39758 -0.10855,0.008 -0.107065,-0.86463 z m -3.94648,0.55152 c -0.07904,-0.20599 -0.105074,-0.71201 -0.05784,-1.12448 0.08061,-0.70399 0.170014,-0.75482 1.458643,-0.82936 1.22356,-0.0708 1.385234,-0.15022 1.48744,-0.73088 0.100777,-0.57254 0.110765,-0.56292 0.08244,0.0794 -0.03044,0.69033 -0.109281,0.73531 -1.421292,0.81085 -1.386575,0.0798 -1.389062,0.0816 -1.389062,0.97621 0,0.84082 0.06136,0.90266 0.992187,1.00003 l 0.992188,0.10379 -1.00049,0.0445 c -0.651309,0.029 -1.050653,-0.0862 -1.144212,-0.33005 z m -5.197486,-1.91737 c 0.181901,-0.0734 0.479557,-0.0734 0.661459,0 0.181901,0.0734 0.03307,0.13345 -0.33073,0.13345 -0.363802,0 -0.51263,-0.0601 -0.330729,-0.13345 z m 33.337501,0 c 0.181901,-0.0734 0.479557,-0.0734 0.661458,0 0.181901,0.0734 0.03307,0.13345 -0.330729,0.13345 -0.363802,0 -0.51263,-0.0601 -0.330729,-0.13345 z m 16.27691,-0.008 c 0.257432,-0.0671 0.61462,-0.0627 0.79375,0.01 0.179131,0.0725 -0.03149,0.12736 -0.468055,0.12197 -0.436563,-0.005 -0.583126,-0.0647 -0.325695,-0.13177 z m 2.910417,0 c 0.257432,-0.0671 0.614619,-0.0627 0.79375,0.01 0.179131,0.0725 -0.03149,0.12736 -0.468056,0.12197 -0.436562,-0.005 -0.583125,-0.0647 -0.325694,-0.13177 z m -38.501911,-3.69604 c 0.181901,-0.0734 0.479558,-0.0734 0.661459,0 0.181901,0.0734 0.03307,0.13345 -0.33073,0.13345 -0.363802,0 -0.51263,-0.0601 -0.330729,-0.13345 z m 10.054167,0 c 0.181901,-0.0734 0.479557,-0.0734 0.661458,0 0.181902,0.0734 0.03307,0.13345 -0.330729,0.13345 -0.363802,0 -0.51263,-0.0601 -0.330729,-0.13345 z m 11.249827,-0.008 c 0.257432,-0.0671 0.614619,-0.0627 0.79375,0.01 0.179131,0.0725 -0.03149,0.12737 -0.468056,0.12197 -0.436562,-0.005 -0.583126,-0.0647 -0.325694,-0.13177 z m 5.801233,-0.74269 c 0.0054,-0.43657 0.06469,-0.58313 0.131773,-0.3257 0.06708,0.25743 0.06267,0.61462 -0.0098,0.79375 -0.07248,0.17913 -0.127362,-0.0315 -0.12197,-0.46805 z m -30.691667,-0.79375 c 0.0054,-0.43657 0.06469,-0.58313 0.131773,-0.3257 0.06708,0.25743 0.06267,0.61462 -0.0098,0.79375 -0.07248,0.17913 -0.127363,-0.0315 -0.12197,-0.46805 z m 29.90772,-1.19063 c 0,-0.50932 0.05445,-0.71768 0.121002,-0.46302 0.06655,0.25466 0.06655,0.67138 0,0.92604 -0.06655,0.25466 -0.121002,0.0463 -0.121002,-0.46302 z m -30.436887,-1.98437 c 0.0054,-0.43657 0.06469,-0.58313 0.131773,-0.3257 0.06708,0.25743 0.06267,0.61462 -0.0098,0.79375 -0.07248,0.17913 -0.127362,-0.0315 -0.12197,-0.46805 z m 30.956251,-1.05834 c 0.0054,-0.43656 0.06469,-0.58312 0.131773,-0.32569 0.06708,0.25743 0.06267,0.61462 -0.0098,0.79375 -0.07248,0.17913 -0.127363,-0.0315 -0.12197,-0.46806 z m -1.068139,-1.71979 c 0,-0.3638 0.06006,-0.51263 0.133453,-0.33073 0.0734,0.1819 0.0734,0.47956 0,0.66146 -0.0734,0.1819 -0.133453,0.0331 -0.133453,-0.33073 z m -28.045834,-0.52917 c 0,-0.3638 0.06005,-0.51263 0.133453,-0.33072 0.0734,0.1819 0.0734,0.47955 0,0.66145 -0.0734,0.1819 -0.133453,0.0331 -0.133453,-0.33073 z m 27.26189,-0.92604 c 0.0054,-0.43656 0.06469,-0.583123 0.131773,-0.32569 0.06708,0.25743 0.06267,0.61462 -0.0098,0.79375 -0.07248,0.17913 -0.127363,-0.0315 -0.121971,-0.46806 z M 35.751229,98.691661 c 0,-0.363802 0.06005,-0.51263 0.133454,-0.330729 0.0734,0.181901 0.0734,0.479557 0,0.661458 -0.0734,0.181901 -0.133454,0.03307 -0.133454,-0.330729 z m 28.310418,-1.058333 c 0,-0.363802 0.06006,-0.51263 0.133453,-0.330729 0.0734,0.181901 0.0734,0.479557 0,0.661458 -0.0734,0.181901 -0.133453,0.03307 -0.133453,-0.330729 z M 36.544979,97.104161 c 0,-0.363802 0.06006,-0.51263 0.133454,-0.330729 0.0734,0.181901 0.0734,0.479557 0,0.661458 -0.0734,0.181901 -0.133454,0.03307 -0.133454,-0.330729 z m 26.722918,-0.79375 c 0,-0.363802 0.06006,-0.51263 0.133453,-0.330729 0.0734,0.181901 0.0734,0.479557 0,0.661458 -0.0734,0.181901 -0.133453,0.03307 -0.133453,-0.330729 z M 36.015813,94.458328 c 0,-0.363802 0.06005,-0.512631 0.133453,-0.330729 0.0734,0.181901 0.0734,0.479557 0,0.661458 -0.0734,0.181901 -0.133453,0.03307 -0.133453,-0.330729 z m 27.78125,-0.79375 c 0,-0.363802 0.06006,-0.512631 0.133454,-0.330729 0.0734,0.181901 0.0734,0.479557 0,0.661458 -0.0734,0.181901 -0.133454,0.03307 -0.133454,-0.330729 z M 36.788677,93.245655 c 0.0127,-0.308226 0.07539,-0.370919 0.15985,-0.159853 0.07643,0.190994 0.06703,0.419198 -0.02087,0.507119 -0.08792,0.08792 -0.150453,-0.06835 -0.138965,-0.347266 z m -0.880785,-1.079222 c 0.181901,-0.0734 0.479557,-0.0734 0.661458,0 0.181901,0.0734 0.03307,0.133453 -0.330729,0.133453 -0.363802,0 -0.51263,-0.06006 -0.330729,-0.133453 z m 27.781251,0 c 0.181901,-0.0734 0.479557,-0.0734 0.661458,0 0.181901,0.0734 0.03307,0.133453 -0.330729,0.133453 -0.363802,0 -0.512631,-0.06006 -0.330729,-0.133453 z m 8.268229,-3.396647 c 0.493654,-0.509323 0.957085,-0.926042 1.029846,-0.926042 0.07276,0 -0.271608,0.416719 -0.765263,0.926042 -0.493654,0.509323 -0.957085,0.926042 -1.029845,0.926042 -0.07276,0 0.271608,-0.416719 0.765262,-0.926042 z M 27.751928,88.70364 27.110496,87.976036 27.8381,88.617468 c 0.680056,0.599517 0.848939,0.813776 0.641432,0.813776 -0.04739,0 -0.374814,-0.327422 -0.727604,-0.727604 z m 30.976277,-1.256771 c 0.493654,-0.509323 0.957085,-0.926041 1.029846,-0.926041 0.07276,0 -0.271608,0.416718 -0.765263,0.926041 -0.493654,0.509323 -0.957085,0.926042 -1.029845,0.926042 -0.07276,0 0.271608,-0.416719 0.765262,-0.926042 z m -17.760834,-0.06615 c -0.329107,-0.419645 -0.319749,-0.429003 0.0999,-0.0999 0.254661,0.199721 0.463021,0.40808 0.463021,0.463021 0,0.217763 -0.217273,0.07761 -0.562917,-0.363125 z m 0.934654,-0.132291 -0.504029,-0.595313 0.595313,0.504029 c 0.559445,0.473662 0.715761,0.686596 0.504028,0.686596 -0.05021,0 -0.318098,-0.26789 -0.595312,-0.595312 z M 23.55951,81.339405 c 0.0127,-0.308227 0.07539,-0.37092 0.15985,-0.159854 0.07643,0.190995 0.06703,0.419198 -0.02088,0.507119 -0.08792,0.08792 -0.150453,-0.06835 -0.138965,-0.347265 z M 61.258757,72.94952 c 0.09936,-0.260937 0.247303,-0.407781 0.328766,-0.326319 0.08146,0.08146 1.69e-4,0.294956 -0.180653,0.474432 -0.261307,0.259362 -0.291697,0.228971 -0.148113,-0.148113 z m 10.678589,-1.972964 -0.641432,-0.727604 0.727604,0.641433 c 0.680056,0.599516 0.848939,0.813775 0.641432,0.813775 -0.04739,0 -0.374814,-0.327421 -0.727604,-0.727604 z M 58.694455,69.918223 c -0.329108,-0.419644 -0.319749,-0.429002 0.0999,-0.0999 0.440729,0.345644 0.580887,0.562916 0.363124,0.562916 -0.05494,0 -0.2633,-0.20836 -0.46302,-0.463021 z M 41.530288,69.455202 c 0.341775,-0.363802 0.680939,-0.661458 0.7537,-0.661458 0.07276,0 -0.147341,0.297656 -0.489117,0.661458 -0.341775,0.363802 -0.68094,0.661458 -0.7537,0.661458 -0.07276,0 0.147341,-0.297656 0.489117,-0.661458 z m -0.828442,-0.222781 c 0.162075,-0.195291 0.20642,-0.452505 0.09854,-0.571587 -0.107876,-0.119082 -0.04153,-0.127293 0.147436,-0.01824 0.264708,0.152754 0.272458,0.283961 0.03375,0.571586 -0.170405,0.205326 -0.369358,0.37332 -0.442119,0.37332 -0.07276,0 2.65e-4,-0.159783 0.162394,-0.355074 z m 18.310492,-0.01825 c -0.238709,-0.287625 -0.23096,-0.418832 0.03375,-0.571586 0.188968,-0.109047 0.255312,-0.100836 0.147436,0.01824 -0.107878,0.119082 -0.06353,0.376296 0.09854,0.571587 0.162076,0.19529 0.235153,0.355073 0.162393,0.355073 -0.07276,0 -0.271714,-0.167994 -0.442119,-0.37332 z M 62.118179,67.0255 c 0.190995,-0.07643 0.4192,-0.06703 0.507119,0.02089 0.08792,0.08792 -0.06835,0.150453 -0.347266,0.138964 -0.308226,-0.01269 -0.370919,-0.07539 -0.159853,-0.159852 z M 50.741095,65.967171 c 0.190995,-0.07643 0.419198,-0.06703 0.507119,0.02089 0.08792,0.08792 -0.06835,0.150453 -0.347265,0.138965 -0.308227,-0.0127 -0.37092,-0.07539 -0.159854,-0.159853 z"
         id="path657" />
      <path
         style="fill:#1bccc0;stroke-width:0.264583"
         d="m 39.413621,133.61666 c 0,-0.52056 0.17639,-0.52916 10.847917,-0.52916 10.671527,0 10.847917,0.009 10.847917,0.52916 0,0.52056 -0.17639,0.52917 -10.847917,0.52917 -10.671527,0 -10.847917,-0.009 -10.847917,-0.52917 z m 0.529167,-5.68854 v -4.36562 h 2.116666 c 2.08139,0 2.116667,0.011 2.116667,0.66145 0,0.62538 -0.07937,0.66146 -1.455208,0.66146 h -1.455209 v 1.19063 1.19062 h 1.209027 c 1.102469,0 1.201576,0.0525 1.124479,0.59531 -0.07028,0.49489 -0.274248,0.60904 -1.209026,0.67668 l -1.12448,0.0814 v 1.83687 c 0,1.78294 -0.01942,1.83687 -0.661458,1.83687 h -0.661458 z m 5.937549,3.99008 c -0.465008,-0.34002 -0.513591,-0.71746 -0.513591,-3.99008 0,-4.17042 0.102151,-4.36562 2.284527,-4.36562 1.880303,0 2.081098,0.4269 2.081098,4.42449 0,2.89565 -0.05747,3.30589 -0.529166,3.77759 -0.635405,0.6354 -2.543358,0.72361 -3.322868,0.15362 z m 2.403446,-1.54268 c 0.08195,-0.32743 0.11398,-1.66688 0.07119,-2.97657 -0.07655,-2.34286 -0.08847,-2.38125 -0.739264,-2.38125 -0.656019,0 -0.662086,0.0216 -0.737757,2.627 -0.04196,1.44485 -0.01593,2.78431 0.05784,2.97657 0.224861,0.58598 1.183571,0.4112 1.347991,-0.24575 z m 3.036088,1.38906 c -0.471699,-0.4717 -0.529166,-0.88194 -0.529166,-3.77759 0,-3.99759 0.200795,-4.42449 2.081098,-4.42449 2.182376,0 2.284527,0.1952 2.284527,4.36562 0,3.27262 -0.04858,3.65006 -0.513591,3.99008 -0.77951,0.56999 -2.687463,0.48178 -3.322868,-0.15362 z m 2.32377,-3.90261 0.07481,-2.97656 h -0.641816 c -0.837478,0 -0.963015,0.39665 -0.963015,3.04271 0,2.62778 0.140502,3.098 0.893572,2.99055 0.529209,-0.0755 0.565957,-0.252 0.636449,-3.0567 z m 2.703314,0.0662 v -4.36562 h 1.700892 c 2.482086,0 2.532441,0.0868 2.532441,4.36562 0,4.27882 -0.05036,4.36563 -2.532441,4.36563 h -1.700892 z m 2.778125,0 v -2.91042 h -0.661458 c -0.656019,0 -0.662086,0.0216 -0.737757,2.627 -0.08861,3.05091 -0.0048,3.39321 0.80272,3.27854 0.577654,-0.082 0.596495,-0.17664 0.596495,-2.99512 z"
         id="path655" />
      <path
         style="fill:#2bf162;stroke-width:0.264583"
         d="m 11.367787,149.49166 v -12.7 h 40.348959 40.34896 v 12.7 12.7 H 51.716746 11.367787 Z m 8.250656,6.15157 c 0.06711,-0.58329 0.236916,-0.74507 0.856099,-0.81565 0.77058,-0.0878 0.77135,-0.0865 0.330729,0.586 -0.242909,0.37073 -0.44165,0.73777 -0.44165,0.81565 0,0.0779 0.642249,0.1416 1.427218,0.1416 1.30874,0 1.425805,-0.0494 1.410173,-0.59531 -0.0094,-0.32743 0.209884,-1.41088 0.487238,-2.40769 l 0.504286,-1.81236 -0.620853,-0.50274 c -0.776118,-0.62846 -1.919669,-0.64562 -2.646646,-0.0397 -0.305546,0.25466 -0.966271,1.31435 -1.468276,2.35487 -0.502007,1.04051 -1.157417,2.06323 -1.456465,2.27269 -0.680402,0.47657 -0.447635,0.73025 0.670055,0.73025 0.746265,0 0.87581,-0.0994 0.948092,-0.7276 z m 1.056746,-2.73304 c 0.262734,-0.75367 0.868995,-1.26783 1.156245,-0.98058 0.3004,0.30041 -0.491284,1.79539 -0.950767,1.79539 -0.431821,0 -0.456041,-0.096 -0.205478,-0.81481 z m 6.628582,2.98214 c -0.107325,-0.52109 1.046795,-4.54858 1.303444,-4.54858 0.12269,0 0.223072,-0.11907 0.223072,-0.26459 0,-0.14552 -0.66758,-0.26458 -1.483516,-0.26458 -1.127709,0 -1.451041,0.0846 -1.348115,0.35285 0.155678,0.40569 -0.807011,4.15143 -1.163921,4.52871 -0.501711,0.53035 -0.188772,0.69952 1.151282,0.62237 0.973992,-0.0561 1.367755,-0.18342 1.317754,-0.42618 z m 5.93846,0.10692 c -0.174615,-0.45504 0.880869,-4.39092 1.177514,-4.39092 0.117018,0 0.340199,0.23812 0.495959,0.52917 0.529048,0.98853 1.322917,0.49922 1.322917,-0.81539 0,-0.47062 -0.219231,-0.50753 -3.014401,-0.50753 -3.189491,0 -3.335599,0.0589 -3.335599,1.34456 0,0.66899 0.483206,0.64294 1.238676,-0.0668 0.336227,-0.31587 0.6692,-0.51643 0.739939,-0.44569 0.179895,0.17989 -0.851128,3.70251 -1.179904,4.03128 -0.53094,0.53094 -0.247214,0.69288 1.213972,0.69288 1.165095,0 1.452909,-0.0798 1.340927,-0.37158 z m 7.542879,-0.35602 c 0.06711,-0.58329 0.236916,-0.74507 0.856099,-0.81565 0.770581,-0.0878 0.77135,-0.0865 0.330729,0.586 -0.242908,0.37073 -0.44165,0.73777 -0.44165,0.81565 0,0.0779 0.642249,0.1416 1.427218,0.1416 1.30874,0 1.425805,-0.0494 1.410174,-0.59531 -0.0094,-0.32743 0.209883,-1.41088 0.487238,-2.40769 l 0.504285,-1.81236 -0.620853,-0.50274 c -0.776118,-0.62846 -1.919668,-0.64562 -2.646645,-0.0397 -0.305547,0.25466 -0.966272,1.31435 -1.468277,2.35487 -0.502007,1.04051 -1.157417,2.06323 -1.456465,2.27269 -0.680402,0.47657 -0.447635,0.73025 0.670055,0.73025 0.746265,0 0.87581,-0.0994 0.948092,-0.7276 z m 1.056746,-2.73304 c 0.262734,-0.75367 0.868995,-1.26783 1.156245,-0.98058 0.3004,0.30041 -0.491284,1.79539 -0.950767,1.79539 -0.431821,0 -0.456041,-0.096 -0.205478,-0.81481 z m 5.822421,2.73304 c 0.05994,-0.52097 0.252785,-0.75162 0.679032,-0.81216 0.614148,-0.0872 0.855575,0.55393 0.330729,0.8783 -0.639876,0.39547 -0.153916,0.66146 1.208455,0.66146 1.282285,0 1.454076,-0.06 1.326616,-0.46302 -0.08053,-0.25466 0.08913,-1.23693 0.377023,-2.18281 0.287896,-0.94589 0.524357,-1.80909 0.525468,-1.91823 0.0048,-0.47012 -1.11638,-1.25677 -1.79119,-1.25677 -1.154948,0 -1.845429,0.67516 -2.962399,2.89671 -0.570497,1.13467 -1.222153,2.13397 -1.448123,2.22069 -0.774573,0.29723 -0.410829,0.70343 0.62991,0.70343 0.938688,0 1.048969,-0.0714 1.124479,-0.7276 z m 0.745178,-2.06366 c 0,-0.08 0.181652,-0.49671 0.403669,-0.92605 0.411649,-0.79604 0.922155,-1.04687 0.915636,-0.44988 -0.0095,0.86966 -0.361188,1.52136 -0.820997,1.52136 -0.274069,0 -0.498308,-0.0654 -0.498308,-0.14543 z m 9.9339,2.14183 c 0.743601,-0.7436 0.819941,-1.26093 0.255236,-1.7296 -0.341752,-0.28363 -0.306552,-0.39609 0.264583,-0.84535 0.766824,-0.60318 0.834567,-1.16992 0.220898,-1.84802 -0.36209,-0.4001 -0.847836,-0.48385 -2.806433,-0.48385 -1.865325,0 -2.339782,0.075 -2.233149,0.35285 0.155678,0.40569 -0.807011,4.15143 -1.163921,4.52871 -0.527182,0.55728 -0.129053,0.67469 2.287786,0.67469 2.328691,0 2.576195,-0.0506 3.175,-0.64943 z m -2.95075,-0.56284 c 0.08833,-0.23018 0.1606,-0.58737 0.1606,-0.79375 0,-0.20637 0.238125,-0.37523 0.529166,-0.37523 0.596649,0 0.72308,0.75859 0.211667,1.27 -0.46927,0.46927 -1.09343,0.39933 -0.901433,-0.10102 z m 0.689766,-2.45086 c 0,-0.57028 0.340818,-1.09937 0.708168,-1.09937 0.55593,0 0.331957,1.16348 -0.245147,1.27347 -0.254661,0.0485 -0.463021,-0.0298 -0.463021,-0.1741 z m 8.986526,3.15136 c 0.670838,-1.25348 -0.200705,-1.88472 -1.119926,-0.81115 -0.466145,0.54442 -1.252016,0.72131 -1.252016,0.28181 0,-0.13605 0.122089,-0.56848 0.271312,-0.96096 0.258992,-0.68121 0.294073,-0.693 0.772692,-0.25986 0.475472,0.4303 0.516143,0.42617 0.787024,-0.08 0.529733,-0.98982 0.179223,-2.26035 -0.37582,-1.36227 -0.300672,0.4865 -0.699272,0.2717 -0.613714,-0.33073 0.114287,-0.80471 1.164228,-0.9648 1.40257,-0.21386 0.09506,0.29953 0.346363,0.54459 0.55844,0.54459 0.422404,0 0.995712,-1.22127 0.75565,-1.6097 -0.08239,-0.13331 -1.199454,-0.24238 -2.482363,-0.24238 -2.241646,0 -2.332684,0.0232 -2.335658,0.59531 -0.0043,0.83201 -0.834908,3.64953 -1.286951,4.36563 l -0.375799,0.59531 h 2.510333 c 2.211104,0 2.542982,-0.061 2.784226,-0.51177 z m 6.745309,-0.3455 c 0.198252,-0.47151 0.304541,-0.94776 0.236196,-1.05834 -0.250754,-0.40573 -0.956625,-0.18363 -1.463217,0.4604 -0.487754,0.62008 -1.275647,0.90554 -1.275647,0.46218 0,-0.52102 1.071658,-3.8636 1.343854,-4.19157 0.258503,-0.31148 0.07295,-0.37165 -1.146093,-0.37165 -1.331098,0 -1.454793,0.0505 -1.457627,0.59531 -0.0043,0.83201 -0.834909,3.64953 -1.286952,4.36563 l -0.375798,0.59531 h 2.532414 2.532415 z m 6.450695,0.18336 c 0.168881,-0.37065 0.307054,-0.8469 0.307054,-1.05833 0,-0.6067 -0.905766,-0.44864 -1.5875,0.27703 -1.127193,1.19984 -1.334857,0.85028 -0.746604,-1.25677 0.294545,-1.05503 0.64256,-2.03134 0.773362,-2.16958 0.486889,-0.51459 0.199974,-0.67469 -1.20908,-0.67469 -1.102479,0 -1.414436,0.0846 -1.310505,0.35544 0.163788,0.42683 -0.828366,4.12992 -1.208307,4.50986 -0.569757,0.56976 -0.183277,0.69095 2.203455,0.69095 2.391228,0 2.480995,-0.0218 2.778125,-0.67391 z m 3.12179,0.27703 c -0.24891,-0.64865 0.108625,-1.19062 0.785447,-1.19062 0.725252,0 0.809144,0.31538 0.236276,0.88824 -0.617956,0.61796 -0.498139,0.69926 1.030541,0.69926 h 1.42742 l 0.118281,-0.99219 c 0.06505,-0.5457 0.282176,-1.5627 0.482495,-2.26 0.419057,-1.45873 0.207647,-2.02539 -0.90333,-2.42128 -1.327791,-0.47316 -2.053794,0.0556 -3.250322,2.3674 -0.602205,1.16349 -1.286814,2.30403 -1.521354,2.53452 -0.645284,0.63413 -0.527698,0.77155 0.660202,0.77155 0.857199,0 1.054483,-0.0838 0.934344,-0.39688 z m 1.075007,-3.175 c 0.401635,-0.84223 1.137341,-1.28125 1.137341,-0.67868 0,0.73452 -0.568034,1.60473 -1.047504,1.60473 -0.51508,0 -0.517845,-0.0285 -0.08984,-0.92605 z M 28.08511,145.58906 c 0.06711,-0.58329 0.236916,-0.74507 0.856099,-0.81565 0.77058,-0.0878 0.77135,-0.0865 0.330729,0.58601 -0.242909,0.37072 -0.441651,0.73776 -0.441651,0.81564 0,0.0779 0.64225,0.1416 1.427219,0.1416 1.30874,0 1.425805,-0.0494 1.410173,-0.59531 -0.0094,-0.32742 0.209884,-1.41088 0.487238,-2.40768 l 0.504286,-1.81237 -0.620853,-0.50274 c -0.776118,-0.62846 -1.919669,-0.64562 -2.646646,-0.0397 -0.305546,0.25466 -0.966271,1.31435 -1.468276,2.35487 -0.502007,1.04052 -1.157417,2.06323 -1.456465,2.27269 -0.680403,0.47657 -0.447635,0.73025 0.670055,0.73025 0.746265,0 0.87581,-0.0994 0.948092,-0.7276 z m 1.056746,-2.73303 c 0.262733,-0.75368 0.868994,-1.26783 1.156245,-0.98058 0.3004,0.3004 -0.491284,1.79538 -0.950767,1.79538 -0.431822,0 -0.456042,-0.096 -0.205478,-0.8148 z m 5.659665,2.98852 c -0.08241,-0.25966 0.0077,-1.0038 0.200265,-1.65365 l 0.35011,-1.18153 0.844045,1.65365 c 0.579199,1.13476 0.998731,1.65364 1.337008,1.65364 0.726067,0 0.97232,-0.42916 1.632022,-2.84427 0.327938,-1.20055 0.696635,-2.18281 0.819327,-2.18281 0.12269,0 0.223073,-0.11906 0.223073,-0.26458 0,-0.14553 -0.429456,-0.26459 -0.954349,-0.26459 -0.77878,0 -0.923481,0.0804 -0.786559,0.43726 0.09229,0.24049 0.03125,0.85099 -0.135641,1.35667 l -0.303435,0.91941 -0.695944,-1.29052 c -0.650547,-1.20634 -0.770803,-1.29591 -1.843442,-1.37301 -1.010402,-0.0726 -1.129102,-0.0245 -0.993561,0.40252 0.170818,0.5382 -0.737097,3.98687 -1.161275,4.41104 -0.485931,0.48594 -0.284527,0.69288 0.674328,0.69288 0.785445,0 0.918721,-0.0792 0.794028,-0.47211 z m 10.380017,0.15461 c 0.430763,-0.43076 0.403164,-1.53458 -0.03837,-1.53458 -0.195729,0 -0.571368,0.23812 -0.834758,0.52917 -0.26339,0.29104 -0.700829,0.52916 -0.97209,0.52916 -0.40381,0 -0.461679,-0.13187 -0.319286,-0.7276 0.263059,-1.10058 0.377053,-1.19589 0.882833,-0.73817 0.525557,0.47563 0.879538,0.21181 1.13924,-0.84907 0.176787,-0.72217 -0.213466,-1.02484 -0.748681,-0.58065 -0.502854,0.41733 -0.740071,0.17707 -0.517512,-0.52415 0.221877,-0.69907 1.091727,-0.71094 1.461538,-0.02 0.377179,0.70477 0.958469,0.67151 1.156152,-0.0661 0.3317,-1.23773 0.295714,-1.25677 -2.375085,-1.25677 -2.096662,0 -2.516394,0.0663 -2.396509,0.37875 0.161497,0.42085 -0.799473,4.10718 -1.173816,4.50281 -0.130805,0.13825 -0.237826,0.34661 -0.237826,0.46303 0,0.34944 4.617128,0.2512 4.974167,-0.10584 z m 2.831483,0.0522 c 0.109604,-0.17734 0.328311,-0.17734 0.659681,0 0.922134,0.49351 2.359038,0.3129 3.05607,-0.38413 1.111252,-1.11125 0.916495,-1.64473 -1.202651,-3.29429 -0.601255,-0.46802 -0.61809,-0.53176 -0.184975,-0.7003 0.316926,-0.12333 0.688967,0.0142 1.111017,0.41069 0.664559,0.62432 1.455208,0.56871 1.455208,-0.10235 0,-0.21095 0.06819,-0.56124 0.151538,-0.77844 0.153149,-0.3991 0.127915,-0.40306 -3.150034,-0.49486 -1.626576,-0.0456 -2.455738,2.04329 -1.201764,3.0275 1.75288,1.3758 1.756042,1.38033 1.03532,1.4824 -0.422707,0.0599 -0.809154,-0.10257 -1.100744,-0.46267 -0.638437,-0.78843 -1.192551,-0.68759 -1.529265,0.27832 -0.159758,0.45828 -0.290467,0.93453 -0.290467,1.05833 0,0.31552 0.991909,0.28205 1.191066,-0.0402 z m 8.460164,-0.28296 c -0.249497,-0.78609 0.07589,-1.83299 0.569714,-1.83299 0.334859,0 0.387054,0.18245 0.254429,0.8894 -0.207407,1.10557 0.259281,1.56091 1.47974,1.44376 0.866529,-0.0832 0.87607,-0.0987 0.785776,-1.27482 -0.05027,-0.65484 -0.209085,-1.26335 -0.352915,-1.35224 -0.146777,-0.0907 -0.07665,-0.23256 0.15984,-0.32331 0.231741,-0.0889 0.558271,-0.4622 0.725623,-0.8295 0.252677,-0.55457 0.222903,-0.75772 -0.175588,-1.19805 -0.40716,-0.4499 -0.814391,-0.53024 -2.687815,-0.53024 -2.080414,0 -2.207951,0.0327 -2.207951,0.56679 0,0.80766 -1.024729,4.14371 -1.330949,4.33297 -0.647986,0.40048 -0.121994,0.65649 1.348779,0.65649 1.503561,0 1.594298,-0.0348 1.431317,-0.54826 z m 0.50692,-3.04525 c 0.08833,-0.23019 0.1606,-0.58737 0.1606,-0.79375 0,-0.20638 0.178594,-0.37524 0.396875,-0.37524 0.474766,0 0.526214,0.82316 0.07937,1.27 -0.452128,0.45213 -0.826334,0.39278 -0.63685,-0.10101 z m 5.765422,2.86591 c 0.06711,-0.58329 0.236916,-0.74507 0.856099,-0.81565 0.770581,-0.0878 0.771351,-0.0865 0.330729,0.58601 -0.242908,0.37072 -0.44165,0.73776 -0.44165,0.81564 0,0.0779 0.64225,0.1416 1.427218,0.1416 1.30874,0 1.425805,-0.0494 1.410174,-0.59531 -0.0094,-0.32742 0.209883,-1.41088 0.487238,-2.40768 l 0.504285,-1.81237 -0.620853,-0.50274 c -0.776118,-0.62846 -1.919668,-0.64562 -2.646645,-0.0397 -0.305546,0.25466 -0.966272,1.31435 -1.468276,2.35487 -0.502008,1.04052 -1.157418,2.06323 -1.456466,2.27269 -0.680402,0.47657 -0.447635,0.73025 0.670055,0.73025 0.746265,0 0.875811,-0.0994 0.948092,-0.7276 z m 1.056746,-2.73303 c 0.262734,-0.75368 0.868995,-1.26783 1.156245,-0.98058 0.3004,0.3004 -0.491284,1.79538 -0.950767,1.79538 -0.431821,0 -0.456041,-0.096 -0.205478,-0.8148 z m 6.753048,2.55252 c 0.03355,-1.18373 0.23509,-1.47314 1.025832,-1.47314 0.575241,0 0.630954,0.0846 0.479391,0.72761 -0.09432,0.40018 -0.275183,0.84071 -0.401916,0.97895 -0.486942,0.53118 -0.182009,0.69949 1.127525,0.62237 1.297543,-0.0764 1.360874,-0.11528 1.423739,-0.87372 0.09164,-1.1056 0.905533,-3.79475 1.204417,-3.97947 0.624356,-0.38588 0.121169,-0.65074 -1.236287,-0.65074 -1.197356,0 -1.454689,0.0751 -1.334082,0.38942 0.08219,0.21418 0.02376,0.74997 -0.129865,1.19063 -0.210892,0.60496 -0.442,0.8012 -0.94356,0.8012 -0.592278,0 -0.644583,-0.0788 -0.482671,-0.7276 0.09987,-0.40018 0.369361,-0.93597 0.598858,-1.19063 0.392909,-0.43599 0.322686,-0.46302 -1.202936,-0.46302 -1.289209,0 -1.590816,0.0766 -1.476352,0.37487 0.173636,0.45249 -0.617701,3.49246 -1.1225,4.31218 -0.198482,0.3223 -0.360876,0.64972 -0.360876,0.7276 0,0.0779 0.631249,0.1416 1.402771,0.1416 h 1.402771 z"
         id="path653" />
      <path
         style="fill:#6f706f;stroke-width:0.264583"
         d="m 57.487275,118.93229 c 0.0016,-0.87313 0.05088,-1.19842 0.109765,-0.72287 0.05889,0.47555 0.05767,1.18993 -0.0027,1.5875 -0.06037,0.39758 -0.108551,0.008 -0.107065,-0.86463 z m 19.073156,-2.24896 c 0,-2.11005 0.04109,-2.97326 0.09131,-1.91823 0.05022,1.05503 0.05022,2.78143 0,3.83646 -0.05022,1.05502 -0.09131,0.19182 -0.09131,-1.91823 z m -46.341081,2.19174 c 0.400182,-0.0606 1.055026,-0.0606 1.455208,0 0.400183,0.0606 0.07276,0.11022 -0.727604,0.11022 -0.800364,0 -1.127786,-0.0496 -0.727604,-0.11022 z m 5.673551,0.018 c 0.440994,-0.0957 0.607374,-0.36019 0.693004,-1.10168 l 0.112686,-0.97575 -0.03155,1.05834 c -0.02777,0.93159 -0.11076,1.06352 -0.693004,1.10167 -0.553406,0.0363 -0.566658,0.0228 -0.08114,-0.0826 z m 16.485304,0.0701 c 0,-0.0558 0.294052,-0.15766 0.653452,-0.22636 0.359397,-0.0687 0.590497,-0.0231 0.513551,0.10145 -0.135488,0.21922 -1.167003,0.32963 -1.167003,0.12491 z m -27.974653,-2.99232 c 0.257431,-0.0671 0.614619,-0.0627 0.79375,0.01 0.17913,0.0725 -0.03149,0.12737 -0.468056,0.12197 -0.436563,-0.005 -0.583126,-0.0647 -0.325694,-0.13177 z m 2.659337,-1.40415 c 0,-0.94588 0.04802,-1.33284 0.106715,-0.85989 0.05869,0.47294 0.05869,1.24684 0,1.71979 -0.05869,0.47294 -0.106715,0.086 -0.106715,-0.8599 z m 30.449696,1.22089 c -0.07738,-0.20163 -0.09444,-0.88624 -0.03792,-1.52135 l 0.102761,-1.15475 0.04622,1.37066 c 0.04024,1.19325 0.12328,1.38551 0.641538,1.48533 l 0.595313,0.11466 -0.603616,0.036 c -0.331991,0.0198 -0.666924,-0.12894 -0.744296,-0.33058 z m 1.475369,-1.40654 c -0.0701,-0.75696 -0.03053,-1.27915 0.08795,-1.16043 0.118473,0.11872 0.175829,0.73805 0.127458,1.37628 l -0.08795,1.16043 z M 36.45677,113.6867 c -0.09844,-0.48281 -0.06156,-0.65679 0.104103,-0.49112 0.141097,0.1411 0.209695,0.47755 0.15244,0.74767 -0.0771,0.36375 -0.143637,0.29722 -0.256543,-0.25655 z m 37.129877,-1.23671 c 0,-0.3638 0.06006,-0.51263 0.133453,-0.33072 0.0734,0.1819 0.0734,0.47955 0,0.66145 -0.0734,0.18191 -0.133453,0.0331 -0.133453,-0.33073 z m -30.535005,-3.08564 c 0.181901,-0.0734 0.479557,-0.0734 0.661458,0 0.181901,0.0734 0.03307,0.13345 -0.330729,0.13345 -0.363802,0 -0.51263,-0.0601 -0.330729,-0.13345 z m -4.696354,-0.60676 c 3.56884,-0.14393 3.571941,-0.14461 3.649522,-0.80551 0.06137,-0.52285 0.02064,-0.57829 -0.194387,-0.26459 -0.214063,0.31231 -0.272031,0.22774 -0.272031,-0.39687 0,-0.63304 0.05694,-0.71339 0.281244,-0.39688 0.220255,0.31081 0.256355,0.24083 0.166463,-0.32272 -0.07155,-0.44853 -0.01257,-0.65643 0.15654,-0.55191 0.164447,0.10164 0.205254,-0.004 0.103593,-0.26941 -0.103421,-0.26951 -0.04457,-0.41296 0.153474,-0.37413 0.176662,0.0346 0.304885,-0.14411 0.284932,-0.39721 -0.02064,-0.26169 0.08436,-0.38562 0.243401,-0.28732 0.175998,0.10877 0.215088,0.005 0.10545,-0.28117 -0.09582,-0.24972 -0.07573,-0.39315 0.04466,-0.31875 0.297715,0.184 1.437963,-1.8884 1.226905,-2.2299 -0.09254,-0.14974 -0.01058,-0.23954 0.182134,-0.19955 0.193794,0.0402 0.334185,-0.13296 0.314121,-0.38747 -0.02064,-0.2617 0.08436,-0.38563 0.243401,-0.28733 0.175998,0.10877 0.215088,0.005 0.10545,-0.28117 -0.117412,-0.30597 -0.07427,-0.39225 0.132291,-0.26458 0.206566,0.12766 0.249703,0.0414 0.132292,-0.26459 -0.117412,-0.305967 -0.07427,-0.392245 0.132292,-0.264581 0.206565,0.127661 0.249703,0.04138 0.132291,-0.264584 -0.09841,-0.256458 -0.06619,-0.387252 0.07406,-0.300577 0.330028,0.203967 0.879639,-0.847844 0.643059,-1.230643 -0.122158,-0.197652 -0.06586,-0.226111 0.165018,-0.08342 0.256569,0.158567 0.303763,0.09497 0.176202,-0.237445 -0.117412,-0.30597 -0.07427,-0.392248 0.132291,-0.264583 0.206566,0.127661 0.249704,0.04138 0.132292,-0.264584 -0.117411,-0.305969 -0.07427,-0.392247 0.132292,-0.264583 0.206565,0.127661 0.249703,0.04138 0.132291,-0.264583 -0.117411,-0.30597 -0.07427,-0.392248 0.132292,-0.264584 0.206566,0.127662 0.249703,0.04138 0.132292,-0.264583 -0.117412,-0.30597 -0.07427,-0.392248 0.132291,-0.264583 0.206566,0.127661 0.249704,0.04138 0.132292,-0.264584 -0.09841,-0.256458 -0.06619,-0.387252 0.07405,-0.300577 0.330028,0.203967 0.879639,-0.847844 0.643059,-1.230643 -0.122158,-0.197652 -0.06586,-0.226111 0.165018,-0.08342 0.25657,0.158567 0.303763,0.09497 0.176202,-0.237445 -0.09582,-0.249711 -0.07992,-0.39574 0.03534,-0.324506 0.315428,0.194945 1.972464,-2.973867 1.795817,-3.434202 -0.08431,-0.219715 -0.04807,-0.334449 0.08053,-0.254966 0.300784,0.185896 0.610285,-0.605433 0.381548,-0.975537 -0.110527,-0.178837 -0.04616,-0.20256 0.176395,-0.06501 0.256569,0.158567 0.303763,0.09497 0.176202,-0.237445 -0.117412,-0.305969 -0.07427,-0.392247 0.132291,-0.264583 0.206566,0.127661 0.249704,0.04138 0.132292,-0.264584 -0.117411,-0.305969 -0.07427,-0.392247 0.132292,-0.264583 0.200829,0.124119 0.251714,0.04663 0.147582,-0.224742 -0.180237,-0.469683 0.17907,-0.466461 1.043802,0.0094 0.317855,0.174903 0.764339,0.318005 0.992188,0.318005 0.574532,0 0.529259,0.243094 -0.39052,2.096921 -0.442632,0.892133 -0.721892,1.756185 -0.620578,1.920116 0.120934,0.195672 0.06384,0.223663 -0.166216,0.08148 -0.256569,-0.158568 -0.303763,-0.09497 -0.176202,0.237445 0.117411,0.305969 0.07427,0.392247 -0.132292,0.264583 -0.206565,-0.127661 -0.249703,-0.04138 -0.132291,0.264584 0.103886,0.270721 0.06818,0.388485 -0.08843,0.291692 -0.326639,-0.201874 -2.710405,4.865841 -2.52099,5.359448 0.08579,0.223562 0.02212,0.28762 -0.168703,0.169693 -0.206566,-0.127661 -0.249704,-0.04138 -0.132292,0.264583 0.117411,0.30597 0.07427,0.392248 -0.132292,0.264584 -0.206565,-0.127662 -0.249703,-0.04138 -0.132291,0.264583 0.117411,0.30597 0.07427,0.392248 -0.132292,0.264583 -0.206566,-0.127661 -0.249703,-0.04138 -0.132292,0.264584 0.117412,0.305966 0.07427,0.392246 -0.132291,0.264586 -0.206566,-0.127664 -0.249704,-0.0414 -0.132292,0.26458 0.09603,0.25025 0.06539,0.38676 -0.06828,0.30415 -0.314497,-0.19437 -0.6374,0.81746 -0.389091,1.21923 0.108548,0.17564 0.07569,0.23703 -0.07652,0.14296 -0.331351,-0.20479 -0.945377,1.07539 -0.703511,1.46674 0.112567,0.18213 0.05075,0.20789 -0.170609,0.0711 -0.258617,-0.15983 -0.309068,-0.069 -0.197845,0.35636 0.09662,0.36946 0.04878,0.50878 -0.135577,0.39484 -0.181915,-0.11243 -0.221904,-0.012 -0.110647,0.27796 0.117412,0.30597 0.07427,0.39225 -0.132291,0.26459 -0.206566,-0.12766 -0.249703,-0.0414 -0.132292,0.26458 0.103487,0.26969 0.06803,0.38839 -0.08733,0.29237 -0.238591,-0.14745 -0.363686,0.27447 -0.333108,1.12351 0.0065,0.18033 -0.114043,0.2501 -0.267864,0.15503 -0.175998,-0.10877 -0.215088,-0.005 -0.10545,0.28117 0.103487,0.26969 0.06803,0.38839 -0.08733,0.29238 -0.271285,-0.16766 -0.287751,-0.13109 -0.391912,0.87062 l -0.06282,0.60416 6.446795,-0.075 c 3.545737,-0.0413 6.446703,0.0143 6.446592,0.12343 -1.11e-4,0.10914 -2.989503,0.19844 -6.643095,0.19844 -5.886683,0 -6.625006,-0.0466 -6.485774,-0.40944 0.141801,-0.36953 0.100137,-0.36953 -0.427439,0 -0.697069,0.48825 -1.823951,0.53397 -2.26598,0.0919 -0.246943,-0.24694 -0.3175,-0.24694 -0.3175,0 0,0.23419 -0.954627,0.30323 -3.63802,0.26312 l -3.638021,-0.0544 z m 22.344661,-0.2102 c 0.141335,-0.37125 0.110238,-0.39747 -0.156901,-0.13229 -0.183248,0.1819 -0.70227,0.33073 -1.153385,0.33073 -0.451114,0 -0.969036,-0.14883 -1.150937,-0.33073 -0.181901,-0.1819 -0.473604,-0.33614 -0.648229,-0.34276 -0.174625,-0.007 -0.285306,-0.16272 -0.24596,-0.34691 0.09631,-0.45085 -0.774864,-1.89537 -1.043098,-1.7296 -0.117153,0.0724 -0.134605,-0.0727 -0.03878,-0.32237 0.117411,-0.30597 0.07427,-0.39225 -0.132292,-0.26459 -0.206563,0.12767 -0.249703,0.0414 -0.132291,-0.26458 0.117411,-0.30597 0.07427,-0.39224 -0.132292,-0.26458 -0.206563,0.12766 -0.249703,0.0414 -0.132292,-0.26459 0.117412,-0.30596 0.07427,-0.39224 -0.132291,-0.26458 -0.206563,0.12766 -0.249704,0.0414 -0.132292,-0.26458 0.127561,-0.33242 0.08037,-0.39602 -0.176202,-0.23745 -0.221477,0.13688 -0.286893,0.11378 -0.177771,-0.0628 0.193868,-0.31368 -0.975212,-2.53405 -1.210405,-2.29885 -0.08277,0.0828 -0.132631,-0.0658 -0.110802,-0.33017 0.02183,-0.26437 -0.104857,-0.45233 -0.28152,-0.41769 -0.198046,0.0388 -0.256894,-0.10463 -0.153474,-0.37413 0.111773,-0.29128 0.06547,-0.373908 -0.138784,-0.24767 -0.206563,0.12766 -0.249704,0.0414 -0.132292,-0.264586 0.109638,-0.285711 0.07055,-0.389943 -0.10545,-0.281173 -0.159046,0.0983 -0.264028,-0.02564 -0.243401,-0.287324 0.01995,-0.253095 -0.10827,-0.431837 -0.284932,-0.397203 -0.198046,0.03883 -0.256895,-0.104627 -0.153474,-0.374132 0.111773,-0.29128 0.06547,-0.373904 -0.138785,-0.247668 -0.206563,0.127664 -0.249703,0.04139 -0.132292,-0.264584 0.109639,-0.28571 0.07055,-0.389943 -0.105449,-0.281172 -0.159047,0.0983 -0.264028,-0.02564 -0.243401,-0.287325 0.01995,-0.253095 -0.10827,-0.431837 -0.284932,-0.397203 -0.20233,0.03967 -0.257437,-0.107214 -0.1489,-0.396875 0.14637,-0.390625 0.109556,-0.408876 -0.244557,-0.121242 -0.235164,0.191013 -0.05494,-0.354717 0.413483,-1.252035 0.831294,-1.592456 1.455237,-2.211009 1.392775,-1.38075 -0.01828,0.243155 0.111283,0.413761 0.287946,0.379127 0.176664,-0.03464 0.257844,0.102151 0.1804,0.303967 -0.07744,0.201813 0.0048,0.456909 0.182693,0.566872 0.220498,0.136274 0.255346,0.08966 0.10945,-0.14641 -0.142701,-0.230896 -0.110792,-0.282524 0.09573,-0.154889 0.170378,0.105299 0.2428,0.299828 0.160938,0.432287 -0.199266,0.322418 0.371782,1.361736 0.65278,1.188069 0.12179,-0.07527 0.205113,0.07022 0.185163,0.323318 -0.01995,0.253095 0.09855,0.435078 0.263327,0.404405 0.164783,-0.03068 0.283845,0.147918 0.264583,0.396875 -0.01926,0.248954 0.0998,0.427548 0.264584,0.396875 0.164782,-0.03068 0.283845,0.147918 0.264583,0.396875 -0.01926,0.248954 0.0998,0.427548 0.264583,0.396875 0.164783,-0.03068 0.283845,0.147918 0.264584,0.396875 -0.01926,0.248954 0.109527,0.424307 0.286189,0.389673 0.176665,-0.03464 0.257844,0.10215 0.180401,0.303967 -0.07744,0.201811 0.0048,0.456911 0.182692,0.566871 0.224446,0.13871 0.25749,0.0862 0.10791,-0.17167 -0.125603,-0.2165 -0.116464,-0.280991 0.02188,-0.1545 0.130615,0.11941 0.239001,0.41707 0.240858,0.66146 0.0019,0.24439 0.138195,0.41925 0.302975,0.38857 0.164782,-0.0307 0.283845,0.14792 0.264583,0.39688 -0.01926,0.24895 0.122661,0.41993 0.315378,0.37994 0.192717,-0.04 0.277067,0.046 0.187442,0.19097 -0.227608,0.36827 0.649234,1.63495 0.987192,1.42608 0.152088,-0.094 0.202409,-0.051 0.111826,0.0956 -0.09058,0.14656 0.01892,0.49238 0.243324,0.76848 0.224412,0.2761 0.320572,0.32341 0.213688,0.10512 -0.112331,-0.22941 -0.09412,-0.30526 0.04315,-0.17976 0.130614,0.11941 0.239001,0.41707 0.240858,0.66146 0.0019,0.24439 0.147918,0.41601 0.32458,0.38138 0.198046,-0.0388 0.256895,0.10462 0.153475,0.37413 -0.09225,0.24041 -0.0582,0.36929 0.07567,0.2864 0.137734,-0.0853 0.228036,0.44148 0.208007,1.21337 l -0.03539,1.36407 2.152057,0.14914 2.15206,0.14915 -2.343412,0.0493 c -2.133425,0.0449 -2.327616,0.008 -2.167136,-0.41373 z m 0.451281,-1.38906 c 0,-0.3638 0.06005,-0.51263 0.133453,-0.33073 0.0734,0.1819 0.0734,0.47956 0,0.66146 -0.0734,0.1819 -0.133453,0.0331 -0.133453,-0.33073 z m -26.163464,-1.05834 c 0,-0.65484 0.0516,-0.92273 0.114663,-0.59531 0.06307,0.32742 0.06307,0.86321 0,1.19063 -0.06306,0.32742 -0.114663,0.0595 -0.114663,-0.59532 z m -0.539845,0 c 0,-0.50932 0.05445,-0.71768 0.121002,-0.46302 0.06655,0.25467 0.06655,0.67138 0,0.92605 -0.06655,0.25466 -0.121002,0.0463 -0.121002,-0.46303 z m 30.432423,-1.19062 c 0.0029,-0.58208 0.05712,-0.78905 0.120407,-0.45994 0.06329,0.32912 0.06088,0.80537 -0.0053,1.05834 -0.06622,0.25296 -0.118004,-0.0163 -0.115067,-0.5984 z m 0.523828,0.13229 c 0,-0.50932 0.05445,-0.71768 0.121002,-0.46302 0.06655,0.25466 0.06655,0.67138 0,0.92604 -0.06655,0.25466 -0.121002,0.0463 -0.121002,-0.46302 z m -27.974926,-2.55875 c 3.190399,-0.19199 6.687865,-0.20313 6.574515,-0.0209 -0.0679,0.10914 -1.872599,0.17642 -4.010443,0.1495 -2.137844,-0.0269 -3.291676,-0.0848 -2.564072,-0.12856 z m 12.115692,-0.0189 c 0.988317,-0.0511 2.536129,-0.0507 3.439583,7.9e-4 0.903452,0.0515 0.09483,0.0933 -1.796941,0.0928 -1.891771,-5.3e-4 -2.630961,-0.0426 -1.642642,-0.0936 z m 11.555505,0.004 c 1.558666,-0.058 2.590483,-0.21412 2.732122,-0.4133 0.162068,-0.2279 0.196575,-0.20578 0.119856,0.0768 -0.08616,0.3174 -0.633282,0.40017 -2.732122,0.4133 l -2.624386,0.0164 z m -24.78976,-2.717735 c 0,-0.654844 0.0516,-0.922735 0.114662,-0.595313 0.06307,0.327422 0.06307,0.863208 0,1.190628 -0.06306,0.32742 -0.114662,0.0595 -0.114662,-0.595315 z m -0.559454,0 c 0,-0.363803 0.06005,-0.512631 0.133454,-0.33073 0.0734,0.181901 0.0734,0.479558 0,0.661455 -0.0734,0.1819 -0.133454,0.0331 -0.133454,-0.330725 z m 27.806199,-0.926042 c 0.0029,-0.582084 0.05712,-0.789054 0.120406,-0.459936 0.06329,0.329118 0.06088,0.805368 -0.0053,1.058333 -0.06622,0.252966 -0.118005,-0.01632 -0.115068,-0.598397 z m 0.514024,0 c 0.0054,-0.436563 0.06469,-0.583126 0.131773,-0.325694 0.06708,0.257431 0.06267,0.614619 -0.0098,0.79375 -0.07248,0.179131 -0.127362,-0.03149 -0.12197,-0.468056 z m -27.501525,-3.175 c 0.0029,-0.582084 0.05712,-0.789054 0.120407,-0.459936 0.06329,0.329118 0.06088,0.805368 -0.0053,1.058333 -0.06622,0.252966 -0.118004,-0.01632 -0.115067,-0.598397 z m -0.554114,-0.132292 c 0,-0.363802 0.06005,-0.51263 0.133453,-0.330729 0.0734,0.181901 0.0734,0.479557 0,0.661458 -0.0734,0.181901 -0.133453,0.03307 -0.133453,-0.330729 z m 27.282371,-0.79375 c 0,-0.654844 0.0516,-0.922734 0.114662,-0.595312 0.06307,0.327421 0.06307,0.863203 0,1.190625 -0.06306,0.327421 -0.114662,0.05953 -0.114662,-0.595313 z m 0.498879,0 c 0,-0.363802 0.06006,-0.51263 0.133454,-0.330729 0.0734,0.181901 0.0734,0.479557 0,0.661458 -0.0734,0.181901 -0.133454,0.03307 -0.133454,-0.330729 z M 34.601512,92.690088 c 0.190994,-0.07643 0.419197,-0.06703 0.507119,0.02088 0.08792,0.08792 -0.06835,0.150452 -0.347266,0.138964 -0.308226,-0.0127 -0.37092,-0.07539 -0.159853,-0.15985 z m 3.439583,0 c 0.190995,-0.07643 0.419198,-0.06703 0.507119,0.02088 0.08792,0.08792 -0.06835,0.150452 -0.347266,0.138964 -0.308226,-0.0127 -0.370919,-0.07539 -0.159853,-0.15985 z m 23.547917,0 c 0.190995,-0.07643 0.419201,-0.06703 0.507119,0.02088 0.08792,0.08792 -0.06835,0.150452 -0.347265,0.138964 -0.308227,-0.0127 -0.37092,-0.07539 -0.159854,-0.15985 z M 48.585008,92.192034 c 0.06881,-0.179308 -0.02048,-0.415986 -0.198395,-0.52595 -0.220498,-0.136273 -0.255347,-0.08966 -0.10945,0.14641 0.138634,0.224314 0.110498,0.282345 -0.07986,0.164698 -0.161649,-0.0999 -0.219342,-0.375957 -0.128209,-0.61345 0.119661,-0.31183 0.06834,-0.371631 -0.184727,-0.21523 -0.23297,0.143983 -0.287244,0.114347 -0.161927,-0.08842 0.103677,-0.167748 0.01572,-0.551685 -0.195466,-0.853189 -0.277985,-0.396877 -0.420889,-0.451778 -0.517727,-0.198903 -0.07356,0.192109 -0.105124,0.01418 -0.07013,-0.395404 0.04257,-0.498289 0.318249,-0.899541 0.833154,-1.212675 0.790533,-0.480751 1.778704,-0.640244 1.536256,-0.247957 -0.157057,0.254122 0.538377,1.341136 0.733303,1.146212 0.322789,-0.322789 0.01143,1.674395 -0.374803,2.404078 -0.405794,0.766654 -1.352754,1.195303 -1.082022,0.489784 z m -13.862706,-0.03373 c 0.257431,-0.06708 0.614619,-0.06267 0.79375,0.0098 0.179131,0.07248 -0.03149,0.127363 -0.468056,0.121971 -0.436563,-0.0054 -0.583126,-0.06469 -0.325694,-0.131773 z m 2.26046,0.0026 c 0.190994,-0.07643 0.419198,-0.06703 0.507119,0.02088 0.08792,0.08792 -0.06835,0.150453 -0.347266,0.138964 -0.308226,-0.0127 -0.370919,-0.07539 -0.159853,-0.15985 z m 25.648047,0.0055 c 0.181901,-0.0734 0.479557,-0.0734 0.661458,0 0.181902,0.0734 0.03307,0.133453 -0.330729,0.133453 -0.363802,0 -0.51263,-0.06005 -0.330729,-0.133453 z m 2.116667,0 c 0.181901,-0.0734 0.479557,-0.0734 0.661458,0 0.181901,0.0734 0.03307,0.133453 -0.330729,0.133453 -0.363802,0 -0.51263,-0.06005 -0.330729,-0.133453 z M 28.002787,89.761973 c -0.329107,-0.419645 -0.319749,-0.429003 0.0999,-0.0999 0.254662,0.199721 0.463021,0.40808 0.463021,0.463021 0,0.217763 -0.217273,0.07761 -0.562917,-0.363125 z m 17.016286,-0.732311 c -0.482261,-0.209481 -1.012484,-0.353647 -1.178266,-0.320373 -0.165785,0.03327 -0.318619,-0.118097 -0.339633,-0.336378 -0.09427,-0.979316 -0.132389,-1.081167 -0.353515,-0.944504 -0.12909,0.07978 -0.218387,-0.06202 -0.198437,-0.315114 0.01995,-0.253095 -0.10827,-0.431837 -0.284933,-0.397203 -0.198046,0.03883 -0.256894,-0.104627 -0.153474,-0.374131 0.111773,-0.29128 0.06547,-0.373904 -0.138784,-0.247669 -0.206563,0.127664 -0.249704,0.04139 -0.132292,-0.264583 0.117411,-0.305967 0.07427,-0.392245 -0.132292,-0.264584 -0.206563,0.127664 -0.249703,0.04139 -0.132291,-0.264583 0.109638,-0.28571 0.07055,-0.389943 -0.10545,-0.281173 -0.159046,0.0983 -0.264028,-0.02564 -0.243401,-0.287324 0.01995,-0.253095 -0.10827,-0.431837 -0.284932,-0.397203 -0.198046,0.03883 -0.256895,-0.104627 -0.153475,-0.374131 0.111774,-0.29128 0.06547,-0.373904 -0.138784,-0.247669 -0.206563,0.127664 -0.249703,0.04139 -0.132292,-0.264583 0.109638,-0.285711 0.07055,-0.389943 -0.105449,-0.281173 -0.159047,0.0983 -0.264028,-0.02564 -0.243401,-0.287324 0.01995,-0.253095 -0.10827,-0.431837 -0.284933,-0.397203 -0.198046,0.03883 -0.256894,-0.104627 -0.153474,-0.374132 0.111773,-0.29128 0.06547,-0.373904 -0.138784,-0.247668 -0.206563,0.127664 -0.249704,0.04139 -0.132292,-0.264584 0.127561,-0.332417 0.08037,-0.396012 -0.176202,-0.237445 -0.230881,0.142693 -0.287176,0.114234 -0.165018,-0.08342 0.23658,-0.382799 -0.313031,-1.43461 -0.643059,-1.230643 -0.140243,0.08667 -0.172466,-0.04412 -0.07406,-0.300577 0.09641,-0.251235 0.06551,-0.386832 -0.06917,-0.303591 -0.133871,0.08274 -0.243401,-0.116012 -0.243401,-0.441665 0,-0.325653 0.132292,-0.592096 0.293982,-0.592096 0.161689,0 0.280752,0.188516 0.264583,0.418924 -0.01617,0.230408 0.115147,0.390587 0.291809,0.355953 0.188971,-0.03705 0.257302,0.103566 0.165978,0.341548 -0.09833,0.256257 -0.02212,0.376311 0.20796,0.327554 0.225557,-0.0478 0.331417,0.108559 0.279347,0.412607 -0.04611,0.269267 0.02974,0.419375 0.168564,0.333576 0.138824,-0.0858 0.236085,0.05108 0.216135,0.304178 -0.01995,0.253096 0.10827,0.431838 0.284933,0.397204 0.198045,-0.03883 0.256894,0.104626 0.153474,0.374131 -0.114139,0.297442 -0.06673,0.374682 0.14837,0.241744 0.173855,-0.107449 0.299051,-0.09721 0.278215,0.02273 -0.08909,0.512861 0.04212,0.90007 0.259487,0.765733 0.129091,-0.07978 0.218387,0.06202 0.198438,0.315114 -0.01995,0.253095 0.10827,0.431837 0.284932,0.397203 0.198046,-0.03883 0.256895,0.104627 0.153474,0.374131 -0.104288,0.271775 -0.06195,0.371727 0.111943,0.264258 0.159046,-0.0983 0.264028,0.02564 0.243401,0.287325 -0.01995,0.253095 0.10827,0.431837 0.284932,0.397203 0.176665,-0.03464 0.257845,0.10215 0.180401,0.303966 -0.07744,0.201814 0.0048,0.456909 0.182692,0.566873 0.220499,0.136273 0.255347,0.08966 0.10945,-0.14641 -0.1427,-0.230897 -0.110791,-0.282525 0.09573,-0.15489 0.170378,0.105299 0.238056,0.307504 0.150394,0.449345 -0.08766,0.14184 -0.0155,0.431271 0.160372,0.643175 0.354809,0.427519 1.174287,0.537935 0.918297,0.123733 -0.09269,-0.149982 0.01352,-0.194337 0.248968,-0.103984 0.260493,0.09996 0.410618,0.01003 0.410618,-0.245973 0,-0.653677 -0.30162,-1.248912 -0.553861,-1.09302 -0.128606,0.07948 -0.155427,-0.0598 -0.0596,-0.309507 0.117411,-0.305967 0.07427,-0.392245 -0.132292,-0.264583 -0.206563,0.127664 -0.249703,0.04139 -0.132291,-0.264584 0.117411,-0.305966 0.07427,-0.392244 -0.132292,-0.264583 -0.206563,0.127664 -0.249703,0.04139 -0.132292,-0.264583 0.127561,-0.332417 0.08037,-0.396013 -0.176202,-0.237445 -0.232971,0.143983 -0.287245,0.114347 -0.161927,-0.08842 0.222416,-0.359873 -0.464167,-1.447803 -0.739767,-1.172205 -0.103778,0.10378 -0.102632,-0.03557 0.0026,-0.309671 0.132186,-0.344474 0.09659,-0.439864 -0.115278,-0.308922 -0.206563,0.127664 -0.249704,0.04139 -0.132292,-0.264583 0.117411,-0.305967 0.07427,-0.392245 -0.132292,-0.264584 -0.206563,0.127664 -0.249703,0.04139 -0.132292,-0.264583 0.127561,-0.332417 0.08037,-0.396012 -0.176201,-0.237445 -0.230881,0.142692 -0.287177,0.114234 -0.165018,-0.08342 0.236579,-0.382799 -0.313032,-1.434611 -0.64306,-1.230643 -0.140242,0.08667 -0.172466,-0.04412 -0.07405,-0.300577 0.117412,-0.305968 0.07427,-0.392246 -0.132292,-0.264583 -0.206562,0.127664 -0.249703,0.04138 -0.132291,-0.264583 0.117411,-0.305969 0.07427,-0.392247 -0.132292,-0.264584 -0.206563,0.127664 -0.249703,0.04139 -0.132292,-0.264583 0.104881,-0.273315 0.06857,-0.388724 -0.09122,-0.289964 -0.145997,0.09023 -0.265451,-0.0074 -0.265451,-0.216979 0,-0.307222 0.07622,-0.317781 0.393444,-0.05451 0.216394,0.17959 0.464441,0.32301 0.551214,0.318709 0.08678,-0.0043 0.122357,0.146412 0.07907,0.334916 -0.04329,0.188504 0.07021,0.311085 0.252225,0.272402 0.182012,-0.03868 0.336494,0.167793 0.343289,0.458835 0.0068,0.291041 0.147179,0.504071 0.311959,0.473398 0.164783,-0.03068 0.283845,0.147918 0.264584,0.396875 -0.01926,0.248954 0.122661,0.419928 0.315378,0.379941 0.192717,-0.03998 0.285829,0.03177 0.206912,0.159459 -0.07891,0.127688 0.04013,0.45806 0.264538,0.734161 0.224412,0.276101 0.321265,0.334775 0.215228,0.130389 -0.12365,-0.238339 -0.08739,-0.306464 0.101116,-0.189963 0.16165,0.0999 0.23146,0.344382 0.155133,0.543283 -0.07632,0.198903 0.0068,0.451612 0.184727,0.561575 0.224446,0.138713 0.25749,0.08615 0.10791,-0.171675 -0.125603,-0.216498 -0.116464,-0.280987 0.02188,-0.154498 0.130614,0.119412 0.239001,0.417068 0.240858,0.661458 0.0019,0.244391 0.138195,0.419251 0.302975,0.388578 0.164782,-0.03068 0.283845,0.147918 0.264583,0.396875 -0.01926,0.248954 0.122661,0.419928 0.315378,0.379942 0.192717,-0.03998 0.283636,0.03532 0.202041,0.167341 -0.194823,0.31523 0.842098,1.625153 1.286455,1.625153 0.680156,0 1.042929,-0.752587 0.712425,-1.477963 -0.167534,-0.367699 -0.421802,-0.596114 -0.565036,-0.50759 -0.154078,0.09523 -0.189281,-0.02445 -0.0862,-0.293068 0.109638,-0.285711 0.07055,-0.389943 -0.10545,-0.281173 -0.159046,0.0983 -0.264028,-0.02564 -0.243401,-0.287324 0.01995,-0.253095 -0.10827,-0.431837 -0.284932,-0.397203 -0.198046,0.03883 -0.256895,-0.104627 -0.153474,-0.374132 0.114138,-0.297442 0.06673,-0.374682 -0.148371,-0.241744 -0.173855,0.10745 -0.29905,0.09722 -0.278215,-0.02273 0.08909,-0.51286 -0.04212,-0.90007 -0.259487,-0.765733 -0.12909,0.07978 -0.218387,-0.06202 -0.198437,-0.315114 0.01995,-0.253095 -0.108271,-0.431837 -0.284933,-0.397203 -0.198046,0.03883 -0.256894,-0.104627 -0.153474,-0.374131 0.104288,-0.271775 0.06195,-0.371728 -0.111943,-0.264258 -0.159046,0.0983 -0.264027,-0.02564 -0.243401,-0.287325 0.01995,-0.253095 -0.09855,-0.435077 -0.263326,-0.404403 -0.164783,0.03067 -0.283845,-0.14792 -0.264583,-0.396875 0.01926,-0.248955 -0.109527,-0.424308 -0.28619,-0.389673 -0.198046,0.03883 -0.256894,-0.104629 -0.153474,-0.374133 0.104288,-0.271775 0.06195,-0.371727 -0.111942,-0.264257 -0.159047,0.0983 -0.264028,-0.02563 -0.243401,-0.287326 0.01995,-0.253095 -0.09271,-0.437022 -0.250357,-0.408726 -0.157649,0.02829 -0.286634,-0.109181 -0.286634,-0.305504 0,-0.208309 0.164979,-0.293642 0.396182,-0.204921 0.285562,0.109581 0.335283,0.04713 0.178067,-0.223663 -0.129341,-0.222783 -0.120083,-0.285953 0.02275,-0.155206 0.132471,0.121267 0.255741,0.329627 0.273931,0.46302 0.01818,0.133395 0.04796,0.361598 0.06614,0.507119 0.01818,0.14552 0.181902,0.234817 0.363803,0.198437 0.185811,-0.03716 0.29624,0.138575 0.252023,0.401062 -0.04449,0.264121 0.06514,0.436635 0.252225,0.396875 0.182012,-0.03868 0.336494,0.167792 0.343289,0.458834 0.0068,0.291042 0.14718,0.50407 0.311959,0.473397 0.164783,-0.03067 0.283845,0.14792 0.264584,0.396875 -0.01926,0.248954 0.0998,0.427549 0.264583,0.396876 0.164783,-0.03068 0.283845,0.147918 0.264583,0.396875 -0.01926,0.248954 0.0998,0.427548 0.264584,0.396875 0.164782,-0.03068 0.283845,0.147918 0.264583,0.396875 -0.01926,0.248954 0.122661,0.419928 0.315378,0.379941 0.192717,-0.03998 0.28583,0.03177 0.206912,0.15946 -0.07891,0.127688 0.04013,0.458059 0.264539,0.73416 0.224411,0.276101 0.321265,0.334775 0.215228,0.130389 -0.123651,-0.238339 -0.08739,-0.306464 0.101115,-0.189962 0.16165,0.0999 0.231461,0.344381 0.155134,0.543282 -0.07633,0.198903 0.0068,0.451612 0.184726,0.561575 0.224446,0.138713 0.25749,0.08615 0.107911,-0.171675 -0.125603,-0.216498 -0.116465,-0.280987 0.02188,-0.154498 0.130614,0.119412 0.239,0.417068 0.240858,0.661459 0.0019,0.24439 0.138194,0.41925 0.302974,0.388577 0.164783,-0.03068 0.283845,0.147918 0.264584,0.396875 -0.01926,0.248955 0.109526,0.424307 0.286189,0.389673 0.198046,-0.03883 0.256894,0.104627 0.153474,0.374132 -0.09225,0.240408 -0.0582,0.369281 0.07567,0.286387 0.136448,-0.08449 0.229174,0.390544 0.211027,1.081075 -0.01781,0.677486 -0.141502,1.231794 -0.274876,1.231794 -0.462973,0 -3.236331,1.816105 -3.102944,2.031928 0.191061,0.309145 -0.162546,0.253405 -1.170813,-0.184552 z M 26.67987,88.439057 c -0.329107,-0.419645 -0.319748,-0.429004 0.0999,-0.0999 0.254661,0.19972 0.46302,0.40808 0.46302,0.46302 0,0.217763 -0.217273,0.0776 -0.562917,-0.363124 z m 16.068298,-0.286631 c -0.07495,-0.121269 0.03185,-0.220488 0.237328,-0.220488 0.205478,0 0.312277,0.09922 0.237329,0.220488 -0.07495,0.121266 -0.181745,0.220485 -0.237329,0.220485 -0.05558,0 -0.162383,-0.09922 -0.237328,-0.220485 z m 11.878995,-0.554403 c -1.200076,-0.289616 -1.929863,-0.753216 -2.117796,-1.34534 -0.09309,-0.293309 -0.249984,-0.483775 -0.34865,-0.423259 -0.09866,0.06051 -0.179387,-0.760183 -0.179387,-1.823776 0,-1.092052 0.09539,-1.800492 0.219151,-1.627542 0.1289,0.180136 0.171879,0.0099 0.104368,-0.413335 -0.06313,-0.395777 -0.02148,-0.66194 0.09253,-0.591471 0.288788,0.17848 0.586336,-0.864899 0.353902,-1.240985 -0.127109,-0.205664 -0.07395,-0.235951 0.160176,-0.09126 0.256569,0.158567 0.303763,0.09497 0.176202,-0.237445 -0.117412,-0.30597 -0.07427,-0.392248 0.132292,-0.264584 0.204258,0.126236 0.250557,0.04361 0.138784,-0.247668 -0.10342,-0.269504 -0.04457,-0.412959 0.153474,-0.374133 0.176663,0.03463 0.304885,-0.144106 0.284933,-0.397201 -0.02064,-0.261696 0.08435,-0.385623 0.243401,-0.287326 0.175998,0.108772 0.215087,0.0045 0.105449,-0.281172 -0.09582,-0.249711 -0.07001,-0.389617 0.05735,-0.3109 0.268968,0.166231 0.875292,-0.481017 0.763837,-0.815391 -0.04149,-0.124458 0.04363,-0.267794 0.189153,-0.318525 0.677894,-0.236322 1.194136,-0.614072 1.083609,-0.792909 -0.101772,-0.16467 1.551075,-0.01186 3.326088,0.307503 0.714068,0.128476 1.259803,0.716276 1.085863,1.169558 -0.08884,0.231514 -0.052,0.353669 0.08187,0.271455 0.138216,-0.08488 0.243401,0.571577 0.243401,1.519074 0,0.948362 -0.105058,1.603518 -0.243401,1.51788 -0.133871,-0.08287 -0.167372,0.04745 -0.07445,0.289607 0.09305,0.242478 0.04109,0.440278 -0.115636,0.440278 -0.156525,0 -0.213683,0.184777 -0.127019,0.410617 0.102947,0.268274 0.05131,0.344948 -0.148947,0.221179 -0.206565,-0.127662 -0.249703,-0.04138 -0.132292,0.264583 0.09582,0.249711 0.07394,0.392038 -0.04864,0.316283 -0.300164,-0.185513 -0.882456,1.133282 -0.659598,1.493877 0.113086,0.182978 0.05059,0.207799 -0.173892,0.06906 -0.256569,-0.158568 -0.303763,-0.09497 -0.176202,0.237445 0.09841,0.256458 0.06619,0.387252 -0.07405,0.300577 -0.136554,-0.08439 -0.377502,0.08802 -0.535445,0.383133 -0.157943,0.295118 -0.202692,0.536577 -0.09945,0.536577 0.103246,0 -0.08696,0.292389 -0.422687,0.649751 -0.335725,0.357364 -0.683901,0.640921 -0.773724,0.630126 -0.545428,-0.06554 -0.830943,0.08359 -0.667218,0.348504 0.111254,0.180012 0.07314,0.23399 -0.0928,0.131432 -0.372161,-0.230008 -1.160947,0.08155 -0.973664,0.384577 0.08051,0.130273 0.109595,0.224674 0.06463,0.209777 -0.04497,-0.0149 -0.438949,-0.113284 -0.875512,-0.218638 z m 3.175,-1.606362 c 0.26339,-0.291042 0.419359,-0.529167 0.346599,-0.529167 -0.07276,0 -0.347792,0.238125 -0.611182,0.529167 -0.26339,0.291042 -0.419359,0.529167 -0.346599,0.529167 0.07276,0 0.347792,-0.238125 0.611182,-0.529167 z M 56.128174,85.49032 c 2.07165,-1.313801 3.922948,-4.38187 3.922948,-6.501322 0,-0.659681 -0.09244,-1.199421 -0.205431,-1.199421 -0.112985,0 -0.160663,0.469421 -0.105947,1.043158 0.202303,2.121344 -2.15564,5.697487 -4.532363,6.873954 -0.610161,0.302024 -0.924335,0.549232 -0.698164,0.549346 0.226171,1.17e-4 0.954702,-0.344456 1.618957,-0.765715 z m 4.452114,-8.594387 c 0,-0.05494 -0.208359,-0.263302 -0.463021,-0.463021 -0.419645,-0.329108 -0.429003,-0.31975 -0.0999,0.09989 0.345644,0.44073 0.562917,0.580888 0.562917,0.363127 z m -10.806142,8.831145 c 0,-0.363803 0.06006,-0.512631 0.133454,-0.33073 0.0734,0.181901 0.0734,0.479558 0,0.661459 -0.0734,0.181901 -0.133454,0.03307 -0.133454,-0.330729 z m -3.515108,-1.256771 c -0.329108,-0.419645 -0.319749,-0.429004 0.0999,-0.0999 0.440729,0.345643 0.580887,0.562916 0.363124,0.562916 -0.05494,0 -0.2633,-0.208359 -0.46302,-0.46302 z m 1.020966,-0.08736 c 0.09356,-0.35777 0.213492,-0.477705 0.279545,-0.279546 0.06363,0.190881 -0.01011,0.472853 -0.163859,0.626602 -0.196339,0.19634 -0.230772,0.09304 -0.115686,-0.347056 z m 4.356031,-0.111083 c 0.0054,-0.436562 0.06469,-0.583126 0.131773,-0.325694 0.06708,0.257432 0.06267,0.614619 -0.0098,0.79375 -0.07248,0.179131 -0.127362,-0.03149 -0.12197,-0.468056 z M 39.149038,84.139577 c -0.238467,-0.154109 -0.2711,-0.258098 -0.08176,-0.260532 0.173313,-0.0021 0.3887,0.115012 0.478637,0.260532 0.203015,0.328489 0.111421,0.328489 -0.396875,0 z m 36.573884,-3.175 c 0,-0.509323 0.05445,-0.717682 0.121002,-0.46302 0.06655,0.254661 0.06655,0.67138 0,0.926041 -0.06655,0.254662 -0.121002,0.0463 -0.121002,-0.463021 z m 0.488672,0.374828 c 0.0127,-0.308227 0.07539,-0.37092 0.159851,-0.159854 0.07643,0.190995 0.06703,0.419198 -0.02088,0.507119 -0.08792,0.08792 -0.150452,-0.06835 -0.138964,-0.347265 z M 24.147072,79.906244 c 0,-0.800365 0.0496,-1.127786 0.110223,-0.727604 0.06062,0.400182 0.06062,1.055026 0,1.455208 -0.06062,0.400183 -0.110223,0.07276 -0.110223,-0.727604 z m -0.536389,0 c 0,-0.654844 0.0516,-0.922734 0.114662,-0.595312 0.06307,0.327421 0.06307,0.863203 0,1.190625 -0.06306,0.327421 -0.114662,0.05953 -0.114662,-0.595313 z m 52.112239,-1.058333 c 0,-0.509323 0.05445,-0.717683 0.121002,-0.463021 0.06655,0.254661 0.06655,0.67138 0,0.926042 -0.06655,0.254661 -0.121002,0.0463 -0.121002,-0.463021 z M 61.161035,78.715619 c 0.0054,-0.436563 0.06469,-0.583125 0.131774,-0.325694 0.06708,0.257431 0.06267,0.614619 -0.0098,0.79375 -0.07248,0.179131 -0.127363,-0.03149 -0.121971,-0.468056 z M 76.23248,78.583327 c 0,-0.363802 0.06006,-0.51263 0.133454,-0.330729 0.0734,0.181901 0.0734,0.479557 0,0.661458 -0.0734,0.181902 -0.133454,0.03307 -0.133454,-0.330729 z M 57.211886,75.224973 c 0.257431,-0.06708 0.614619,-0.06267 0.79375,0.0098 0.179131,0.07248 -0.03149,0.127362 -0.468056,0.12197 -0.436563,-0.0054 -0.583126,-0.06469 -0.325694,-0.131774 z M 26.713621,72.133432 c 0,-0.05494 0.208359,-0.263301 0.463021,-0.46302 0.419645,-0.329108 0.429003,-0.31975 0.0999,0.09989 -0.345644,0.440729 -0.562917,0.580887 -0.562917,0.363126 z m 46.532917,-0.627709 c -0.329107,-0.419644 -0.319749,-0.429002 0.0999,-0.0999 0.44073,0.345644 0.580888,0.562916 0.363125,0.562916 -0.05494,0 -0.2633,-0.20836 -0.463021,-0.463021 z M 27.242787,70.778119 c 0.493655,-0.509323 0.957086,-0.926042 1.029846,-0.926042 0.07276,0 -0.271608,0.416719 -0.765262,0.926042 -0.493655,0.509323 -0.957085,0.926041 -1.029846,0.926041 -0.07276,0 0.271608,-0.416718 0.765262,-0.926041 z m 0.79375,0.0324 c 0,-0.05494 0.20836,-0.263302 0.463021,-0.463021 0.419645,-0.329108 0.429004,-0.319749 0.0999,0.0999 -0.345643,0.440729 -0.562917,0.580887 -0.562917,0.363126 z m 12.170834,0 c 0,-0.05494 0.208359,-0.263302 0.463021,-0.463021 0.419645,-0.329108 0.429003,-0.319749 0.0999,0.0999 -0.345644,0.440729 -0.562917,0.580887 -0.562917,0.363126 z m 31.451667,-0.892293 c -0.329107,-0.419644 -0.319749,-0.429002 0.0999,-0.0999 0.44073,0.345644 0.580888,0.562916 0.363125,0.562916 -0.05494,0 -0.2633,-0.20836 -0.463021,-0.463021 z M 35.378725,67.544012 c 0.472943,-0.05869 1.246849,-0.05869 1.719792,0 0.472943,0.05869 0.08599,0.106712 -0.859896,0.106712 -0.945885,0 -1.332839,-0.04802 -0.859896,-0.106712 z m 27.78599,-3.44e-4 c 0.475548,-0.05889 1.189923,-0.05767 1.5875,0.0027 0.397576,0.06037 0.0085,0.10855 -0.864635,0.107065 -0.873125,-0.0015 -1.198414,-0.05088 -0.722865,-0.109765 z m -28.17783,-0.520769 c 0.257432,-0.06708 0.614619,-0.06267 0.79375,0.0098 0.179131,0.07247 -0.03149,0.127362 -0.468056,0.12197 -0.436562,-0.0054 -0.583126,-0.06469 -0.325694,-0.131774 z m 1.5875,0 c 0.257432,-0.06708 0.614619,-0.06267 0.79375,0.0098 0.179131,0.07247 -0.03149,0.127362 -0.468056,0.12197 -0.436562,-0.0054 -0.583125,-0.06469 -0.325694,-0.131774 z m 26.321007,0.0081 c 0.181902,-0.0734 0.479558,-0.0734 0.661459,0 0.181901,0.0734 0.03307,0.133453 -0.330729,0.133453 -0.363802,0 -0.512631,-0.06005 -0.33073,-0.133453 z m 1.460244,-0.0081 c 0.257432,-0.06708 0.614619,-0.06267 0.79375,0.0098 0.179131,0.07247 -0.03149,0.127362 -0.468056,0.12197 -0.436562,-0.0054 -0.583126,-0.06469 -0.325694,-0.131774 z M 48.359845,65.96717 c 0.190995,-0.07643 0.419198,-0.06703 0.507119,0.02089 0.08792,0.08792 -0.06835,0.150453 -0.347265,0.138964 -0.308227,-0.01269 -0.37092,-0.07539 -0.159854,-0.159852 z m 3.175,0 c 0.190995,-0.07643 0.419201,-0.06703 0.507119,0.02089 0.08792,0.08792 -0.06835,0.150453 -0.347265,0.138964 -0.308227,-0.01269 -0.37092,-0.07539 -0.159854,-0.159852 z"
         id="path651" />
      <path
         style="fill:#120e0a;stroke-width:0.264583"
         d="m 22.215704,121.71041 c 0,-0.52584 0.17639,-0.52916 28.045834,-0.52916 27.869444,0 28.045834,0.003 28.045834,0.52916 0,0.52584 -0.17639,0.52917 -28.045834,0.52917 -27.869444,0 -28.045834,-0.003 -28.045834,-0.52917 z m 0.529167,-5.68854 v -4.36563 h 1.700892 c 2.309212,0 2.532441,0.2573 2.532441,2.91889 0,1.41179 -0.11567,2.19539 -0.357402,2.4212 -0.299503,0.27978 -0.300013,0.54936 -0.0031,1.66408 0.462171,1.7354 0.463433,1.72709 -0.262639,1.72709 -0.528039,0 -0.679741,-0.21157 -0.993645,-1.38572 -0.245497,-0.91829 -0.526156,-1.41571 -0.832025,-1.47461 -0.394446,-0.076 -0.461558,0.12552 -0.461558,1.38572 0,1.39652 -0.03502,1.47461 -0.661458,1.47461 h -0.661458 z m 2.778125,-1.45521 c 0,-1.39081 -0.0322,-1.45891 -0.727604,-1.53893 -0.723758,-0.0833 -0.727605,-0.0751 -0.727605,1.53893 0,1.61407 0.0038,1.62221 0.727605,1.53893 0.695407,-0.08 0.727604,-0.14811 0.727604,-1.53893 z m 2.778125,1.45521 v -4.36563 h 2.116666 c 2.08139,0 2.116667,0.011 2.116667,0.66146 0,0.62538 -0.07937,0.66146 -1.455208,0.66146 h -1.455209 v 1.19063 1.19062 h 1.190626 c 1.09361,0 1.190625,0.0539 1.190625,0.66146 0,0.60756 -0.09701,0.66146 -1.190625,0.66146 h -1.190626 v 1.19062 1.19063 h 1.455209 c 1.375833,0 1.455208,0.0361 1.455208,0.66146 0,0.65043 -0.03528,0.66146 -2.116667,0.66146 h -2.116666 z m 6.144289,3.95375 c -0.438613,-0.30722 -0.588039,-0.677 -0.588039,-1.45521 0,-0.9289 0.07062,-1.04333 0.643885,-1.04333 0.505732,0 0.661847,0.15611 0.727604,0.7276 0.06644,0.5774 0.220271,0.72761 0.745178,0.72761 0.57109,0 0.672528,-0.13307 0.742489,-0.97398 0.08055,-0.96817 0.07227,-0.97674 -1.389062,-1.43738 l -1.470094,-0.4634 v -1.78487 c 0,-2.20655 0.328115,-2.61642 2.094558,-2.61642 1.534544,0 2.138775,0.54781 2.138775,1.93907 0,0.85265 -0.07868,0.97135 -0.643884,0.97135 -0.505733,0 -0.661848,-0.15611 -0.727605,-0.7276 -0.06644,-0.5774 -0.22027,-0.72761 -0.745177,-0.72761 -0.568511,0 -0.67268,0.13408 -0.741307,0.95412 -0.07806,0.93275 -0.04843,0.96539 1.322916,1.45733 l 1.402766,0.5032 0.07845,1.63923 c 0.06527,1.36375 -0.01254,1.73021 -0.463021,2.18069 -0.658603,0.65861 -2.277427,0.72566 -3.128433,0.1296 z m 6.026544,-3.27472 v -3.68659 l -0.727604,-0.0837 c -0.523309,-0.0602 -0.727604,-0.2323 -0.727604,-0.61289 0,-0.48507 0.17639,-0.52916 2.116667,-0.52916 1.993622,0 2.121582,0.0346 2.201214,0.59531 0.07192,0.50643 -0.03671,0.59531 -0.727604,0.59531 h -0.812152 v 3.70417 3.70417 h -0.661458 -0.661459 z m 3.801663,3.22357 c 0.153887,-0.53511 1.754588,-7.96886 1.754588,-8.14841 0,-0.0659 0.401227,-0.11982 0.891616,-0.11982 0.873594,0 0.897803,0.0308 1.19752,1.52136 0.168246,0.83674 0.586677,2.80785 0.929844,4.38024 l 0.623946,2.85889 -0.695727,-0.0808 c -0.540737,-0.0628 -0.726059,-0.2576 -0.831874,-0.87452 -0.124196,-0.72406 -0.227357,-0.79375 -1.175062,-0.79375 -0.950016,0 -1.057985,0.0736 -1.261737,0.8599 -0.177716,0.68583 -0.358799,0.8599 -0.894546,0.8599 -0.514072,0 -0.640472,-0.10867 -0.538568,-0.46303 z m 3.316688,-3.0427 c -0.01397,-0.32743 -0.169974,-1.19063 -0.346673,-1.91823 l -0.321279,-1.32292 -0.314782,1.40209 c -0.47202,2.10243 -0.424749,2.43437 0.346675,2.43437 0.517094,0 0.655916,-0.12993 0.636059,-0.59531 z m 3.788439,3.09385 c -0.563055,-0.39438 -0.588039,-0.57987 -0.588039,-4.36563 v -3.95375 h 0.653991 0.653992 l 0.07361,3.63803 0.07361,3.63802 h 0.661458 0.661459 l 0.07361,-3.63802 0.07361,-3.63803 h 0.653991 0.653992 v 3.83646 c 0,3.48368 -0.04866,3.88512 -0.529167,4.36563 -0.646398,0.6464 -2.273292,0.70763 -3.116127,0.11729 z m 4.703627,-3.95375 v -4.36563 h 1.719792 c 2.364539,0 2.778125,0.42452 2.778125,2.85155 0,1.1855 -0.137916,1.99012 -0.406958,2.37423 -0.361778,0.51651 -0.364117,0.74508 -0.02106,2.05879 l 0.385903,1.47777 -0.686332,-0.0817 c -0.581319,-0.0692 -0.74521,-0.29422 -1.07116,-1.47075 -0.289216,-1.04394 -0.507887,-1.38906 -0.88011,-1.38906 -0.423953,0 -0.495282,0.20957 -0.495282,1.45521 0,1.37583 -0.03608,1.45521 -0.661458,1.45521 h -0.661459 z m 2.894188,-0.24503 c 0.172233,-0.20753 0.276108,-0.89214 0.230835,-1.52135 -0.07745,-1.07647 -0.129193,-1.14404 -0.876064,-1.14404 -0.748046,0 -0.798521,0.0665 -0.876589,1.15475 -0.04556,0.63511 -0.01953,1.31972 0.05784,1.52135 0.183247,0.47754 1.064112,0.4711 1.463974,-0.0107 z m 2.759559,4.14763 c 0.153887,-0.53511 1.754587,-7.96886 1.754587,-8.14841 0,-0.0659 0.401227,-0.11982 0.891617,-0.11982 0.873593,0 0.897802,0.0308 1.19752,1.52136 0.168246,0.83674 0.586676,2.80785 0.929844,4.38024 l 0.623945,2.85889 -0.695727,-0.0808 c -0.540737,-0.0628 -0.726059,-0.2576 -0.831874,-0.87452 -0.124195,-0.72406 -0.227356,-0.79375 -1.175062,-0.79375 -0.950016,0 -1.057984,0.0736 -1.261737,0.8599 -0.177715,0.68583 -0.358799,0.8599 -0.894546,0.8599 -0.514072,0 -0.640471,-0.10867 -0.538567,-0.46303 z m 3.316687,-3.0427 c -0.01397,-0.32743 -0.169974,-1.19063 -0.346673,-1.91823 l -0.321278,-1.32292 -0.314783,1.40209 c -0.472019,2.10243 -0.424749,2.43437 0.346676,2.43437 0.517093,0 0.655915,-0.12993 0.636058,-0.59531 z m 3.2004,-0.8599 v -4.36563 h 0.62525 c 0.547635,0 0.736494,0.30383 1.521354,2.4474 l 0.896105,2.4474 0.07608,-2.4474 c 0.07471,-2.40363 0.08773,-2.4474 0.727604,-2.4474 h 0.651529 v 4.36563 4.36563 h -0.629013 c -0.552648,0 -0.737348,-0.29713 -1.521354,-2.4474 l -0.892342,-2.4474 -0.07607,2.4474 c -0.07471,2.40363 -0.08773,2.4474 -0.727604,2.4474 h -0.651529 z m 6.879167,0.66146 v -3.70417 h -0.661458 c -0.529167,0 -0.661459,-0.13229 -0.661459,-0.66146 0,-0.65043 0.03528,-0.66146 2.116667,-0.66146 2.08139,0 2.116667,0.011 2.116667,0.66146 0,0.55857 -0.123473,0.66146 -0.79375,0.66146 h -0.79375 v 3.70417 3.70417 H 75.79383 75.132372 Z m -40.653683,-9.19427 c 0.09277,-0.98227 0.169516,-2.47055 0.170551,-3.30729 0.0016,-1.3093 0.07088,-1.52136 0.496882,-1.52136 0.535017,0 0.593304,-0.40767 0.989997,-6.923901 l 0.171849,-2.822859 -1.291444,-0.174844 c -3.064285,-0.414867 -5.325645,-1.489282 -7.377081,-3.504999 -2.886858,-2.836593 -3.972701,-5.702229 -3.782359,-9.981989 0.108791,-2.446109 0.217588,-2.923366 1.080791,-4.741024 1.061953,-2.236172 3.095136,-4.588814 4.859081,-5.622556 3.089796,-1.81074 6.880519,-2.229133 10.231054,-1.129231 l 1.76443,0.579222 0.993404,-0.685243 c 2.186393,-1.508159 3.986861,-2.112591 6.666728,-2.238074 2.963846,-0.13878 5.018246,0.407711 7.392196,1.966398 l 1.423856,0.934874 1.726118,-0.566645 c 3.00532,-0.986577 6.591514,-0.737117 9.312365,0.64778 7.773411,3.956618 9.421429,14.527345 3.230123,20.71865 -1.907725,1.907726 -4.197332,3.075276 -6.908869,3.523076 l -1.933763,0.319354 0.157753,2.006735 c 0.08676,1.103705 0.23573,3.286657 0.331036,4.851006 0.148783,2.44214 0.237392,2.84427 0.626724,2.84427 0.382651,0 0.480277,0.37809 0.62535,2.4219 0.09455,1.33204 0.171911,2.82032 0.171911,3.30729 v 0.88539 H 49.958696 34.310017 Z m 7.476012,0.79375 c -0.05034,-0.40019 -0.03455,-0.54901 0.03509,-0.33073 0.232611,0.72914 0.657529,1.05833 1.36611,1.05833 1.086279,0 1.728041,-0.61705 2.529771,-2.43237 2.706876,-6.12902 5.69908,-12.570187 7.040028,-15.154711 0.863047,-1.663422 1.569175,-3.149319 1.569175,-3.301995 0,-0.152675 -0.211632,-0.27759 -0.470294,-0.27759 -0.258664,0 -0.736912,-0.186745 -1.062773,-0.414988 -0.583525,-0.408715 -0.607155,-0.383725 -1.563627,1.653646 -1.118084,2.381623 -5.52279,10.619052 -7.75558,14.504048 -0.83634,1.45521 -1.580407,2.88396 -1.653479,3.175 l -0.132864,0.52917 -0.02619,-0.52917 c -0.01439,-0.29104 0.326948,-1.12448 0.758547,-1.85208 0.431599,-0.7276 0.786757,-1.41221 0.789239,-1.52135 0.0024,-0.10915 -1.824374,-0.19844 -4.059677,-0.19844 h -4.064188 l -0.166846,1.38906 c -0.09177,0.76398 -0.167881,2.07367 -0.169146,2.91042 l -0.0023,1.52135 h 3.565261 3.56526 z m 16.244337,0.59732 c 0,-0.0716 -0.267385,-0.4378 -0.59419,-0.81366 -0.326806,-0.37586 -1.070947,-1.59715 -1.653646,-2.71399 l -1.059456,-2.03061 h -3.65906 -3.659061 l -0.99074,2.32147 c -0.544907,1.2768 -1.13075,2.46147 -1.301877,2.6326 -0.171125,0.17113 -0.311137,0.40639 -0.311137,0.5228 0,0.11642 2.976563,0.21167 6.614584,0.21167 3.638021,0 6.614583,-0.0586 6.614583,-0.13028 z m 6.875555,-2.18482 c -0.0058,-3.69029 0.155856,-3.50573 -3.069955,-3.50573 -1.510995,0 -2.747266,0.0624 -2.747266,0.13867 0,0.0763 0.416718,0.74447 0.926041,1.4849 0.932477,1.35558 1.269984,3.15971 0.661459,3.5358 -0.715341,0.44211 -0.05728,0.66146 1.984375,0.66146 h 2.248958 l -0.0036,-2.3151 z m -4.547221,1.73302 c 0.174625,-0.17463 0.3175,-0.72174 0.3175,-1.21581 0,-0.71637 -0.84404,-2.1758 -4.167188,-7.20553 -2.291953,-3.468963 -4.232759,-6.315131 -4.312902,-6.32481 -0.08015,-0.0097 -0.408381,0.523039 -0.729416,1.183826 l -0.583697,1.201428 1.552966,2.701176 c 0.854131,1.48565 2.294816,4.0704 3.201519,5.74388 0.906706,1.67349 1.896314,3.3106 2.199132,3.63803 0.605939,0.65517 1.992043,0.80785 2.522086,0.27781 z m -14.033768,-10.530419 2.505861,-4.630208 -0.59417,-1.12036 C 47.872353,91.142434 47.630148,90.968696 46.05484,90.461336 l -1.756286,-0.56565 -1.231442,0.831091 c -1.587206,1.071192 -2.614671,1.490334 -4.614709,1.882521 l -1.622676,0.31819 -0.157795,1.493025 c -0.08679,0.821161 -0.237369,3.014353 -0.334621,4.873758 l -0.176824,3.380739 3.913627,-0.0734 3.913626,-0.0734 z m 7.173452,3.241149 c -0.47666,-0.83675 -1.311838,-2.291689 -1.855957,-3.233206 l -0.989303,-1.711849 -0.518176,1.182682 c -0.284996,0.650476 -0.94383,2.105417 -1.464075,3.233203 l -0.945898,2.05052 h 3.320031 3.320029 z m 10.15758,1.32291 c 0.07903,-0.15592 -0.4782,-9.364849 -0.574273,-9.490572 -0.01333,-0.01746 -0.738238,-0.172193 -1.6109,-0.343879 -1.96001,-0.385609 -3.218304,-0.901364 -4.720347,-1.934797 -1.106895,-0.761563 -1.207219,-0.782061 -2.209191,-0.451382 -0.841632,0.277765 -1.174017,0.591863 -1.677281,1.585005 l -0.627642,1.238592 2.303782,3.540966 c 1.267079,1.947532 2.69552,4.106517 3.174313,4.797737 l 0.870529,1.25677 h 2.485215 c 1.36687,0 2.530478,-0.0893 2.585795,-0.19844 z m -13.972279,-11.151353 0.476465,-1.056611 -0.706253,-1.20513 c -0.38844,-0.662823 -0.753962,-1.205132 -0.812268,-1.205132 -0.296601,0 -1.975041,1.134269 -1.898044,1.282674 0.720069,1.387874 2.114034,3.456874 2.265825,3.36306 0.108797,-0.06724 0.412221,-0.597728 0.674275,-1.178861 z m -10.984585,0.619921 c 1.841829,-0.418915 4.646891,-1.869067 4.646891,-2.402335 0,-0.161993 -0.602901,-0.771096 -1.339776,-1.353566 -1.27944,-1.011338 -3.391834,-3.756837 -3.104587,-4.03506 0.07512,-0.07276 0.3292,0.165365 0.564624,0.529167 0.691734,1.068951 3.43123,3.843997 3.614161,3.661064 0.09234,-0.09234 -1.02843,-2.287572 -2.490605,-4.878293 -1.83777,-3.256208 -2.561728,-4.770207 -2.345042,-4.904127 0.172402,-0.10655 0.389355,-0.146822 0.482116,-0.08949 0.09276,0.05733 1.271526,1.894942 2.619481,4.083583 1.347954,2.188642 2.620933,3.97935 2.828843,3.97935 0.873884,0 0.554294,-0.995069 -1.588882,-4.947116 -1.423767,-2.625449 -2.170647,-4.266946 -2.013127,-4.424466 0.306324,-0.306325 -0.05322,-0.749025 3.152405,3.881477 1.48594,2.146433 2.875354,3.902604 3.087582,3.902604 0.899959,0 0.539369,-0.961651 -1.732736,-4.620977 -2.580936,-4.156719 -2.690349,-4.381147 -2.220444,-4.554614 0.16927,-0.06249 1.074682,0.994193 2.012029,2.348177 4.365583,6.306027 4.691666,6.844919 4.691666,7.753551 0,0.492094 -0.119062,0.968301 -0.264583,1.058239 -0.449913,0.278061 -0.294971,1.023067 0.436708,2.099828 l 0.701291,1.032042 0.852604,-1.689 c 0.72035,-1.427003 0.811456,-1.807032 0.587336,-2.449943 -0.145897,-0.418518 -0.202475,-1.543188 -0.12573,-2.499263 0.174588,-2.174994 1.861875,-5.684265 3.402081,-7.075749 0.891429,-0.805352 1.20436,-0.927291 2.379684,-0.927291 1.219216,0 1.455044,0.101762 2.380488,1.027206 0.954265,0.954267 1.024443,1.12805 0.988306,2.447396 l -0.0389,1.42019 -0.159539,-1.480718 c -0.08775,-0.814395 -0.329461,-1.685449 -0.537143,-1.935675 -0.607759,-0.73226 -1.764957,-1.213815 -2.916841,-1.213815 -0.902626,0 -1.233673,0.166834 -2.097696,1.05715 -1.527694,1.574184 -2.975946,4.689126 -3.14201,6.757927 -0.16265,2.026296 0.230524,3.162914 1.282237,3.706776 0.976022,0.504719 1.388171,0.485359 2.566102,-0.120539 1.386906,-0.713391 2.305941,-1.768864 3.501339,-4.021146 1.238949,-2.334334 1.399765,-2.198021 0.224148,0.189997 -0.852895,1.732479 -2.857061,3.87616 -4.046784,4.328491 -0.593016,0.225465 -1.665195,1.757858 -1.409108,2.013945 0.331857,0.331857 3.028461,-1.474282 4.416486,-2.958086 0.894327,-0.956038 1.602857,-1.531261 1.602857,-1.301285 0,0.436012 -2.321666,2.91732 -3.439584,3.676097 l -0.661458,0.448958 0.661458,0.519354 c 1.203931,0.945282 3.367826,1.831324 5.268421,2.15724 7.038843,1.207027 13.78158,-4.772453 13.78158,-12.221546 0,-7.100041 -6.332561,-13.025319 -13.171776,-12.324621 -1.387721,0.142177 -3.539424,0.745975 -4.005136,1.123899 -0.06121,0.04967 0.134758,0.35773 0.435481,0.684578 0.643551,0.699463 2.189347,3.117126 2.189347,3.424194 0,0.540305 -0.458864,0.101872 -1.113745,-1.064157 -0.835623,-1.487843 -2.757667,-3.364483 -4.446376,-4.34134 -2.423919,-1.402152 -5.67124,-1.881614 -8.432459,-1.24504 -2.889109,0.666058 -6.464511,3.28312 -7.72088,5.651399 -0.594799,1.121204 -1.040707,1.540026 -1.040707,0.977488 0,-0.294281 2.069132,-3.409125 2.400771,-3.61409 0.503394,-0.311115 0.209399,-0.612019 -1.011708,-1.035478 -6.113238,-2.119967 -12.970029,1.3335 -15.133646,7.622157 -1.604561,4.66374 -0.477213,9.547039 3.00659,13.023555 3.094569,3.088101 6.694884,4.117719 10.985894,3.14175 z m 16.339609,-6.223849 c 2.376723,-1.176467 4.734666,-4.75261 4.532363,-6.873954 -0.05472,-0.573737 -0.007,-1.043158 0.105947,-1.043158 0.112988,0 0.205431,0.53974 0.205431,1.199421 0,1.262972 -0.827755,3.221658 -2.048661,4.847677 -0.721368,0.960728 -2.827933,2.419699 -3.493244,2.41936 -0.226171,-1.14e-4 0.088,-0.247322 0.698164,-0.549346 z m -8.550145,3.763891 c -0.554424,-0.430641 -0.540912,-0.449744 1.058333,-1.496129 2.517809,-1.647402 2.483636,-1.839889 -1.322292,-7.448066 -1.712812,-2.52389 -3.208065,-4.588891 -3.322789,-4.588891 -0.114723,0 0.582668,1.279922 1.549757,2.844271 0.967087,1.564349 2.107994,3.412347 2.535344,4.106659 0.786225,1.277374 0.805619,1.928929 0.06587,2.212797 -0.600152,0.230299 -0.895368,-0.100988 -3.69461,-4.145986 -1.406303,-2.032153 -2.619677,-3.694824 -2.696385,-3.694824 -0.07671,0 0.271937,0.74414 0.774772,1.653645 2.386158,4.315984 3.629216,6.764859 3.629216,7.149709 0,0.451702 -0.887863,0.858232 -1.307698,0.59876 -0.139756,-0.08637 -1.360456,-1.941796 -2.712667,-4.123161 -1.352212,-2.181362 -2.495781,-3.854472 -2.541268,-3.718019 -0.04548,0.136455 1.015884,2.192551 2.358594,4.569104 1.342713,2.376551 2.460564,4.558621 2.484117,4.849043 0.02355,0.29042 0.211585,0.534898 0.417851,0.543282 0.748202,0.03042 1.823411,0.445466 1.694469,0.654095 -0.143317,0.231892 1.241398,0.794629 1.458685,0.592799 0.07276,-0.06758 -0.120425,-0.319175 -0.429302,-0.559088 z"
         id="path649" />
    </g>
  </g>
</svg>
