<?xml version="1.0" encoding="UTF-8" standalone="no"?>
<!-- Created with Inkscape (http://www.inkscape.org/) -->

<svg
   width="210mm"
   height="297mm"
   viewBox="0 0 210 297"
   version="1.1"
   id="svg1119"
   xmlns="http://www.w3.org/2000/svg"
   xmlns:svg="http://www.w3.org/2000/svg">
  <defs
     id="defs1116" />
  <g
     id="layer1">
    <g
       id="g1223"
       transform="translate(-6.2826954,3.4269231)">
      <path
         style="fill:#dadada;stroke-width:0.264583"
         d="m 74.970751,136.59324 c 11.180159,-0.0382 29.396719,-0.0382 40.481249,1e-5 11.08453,0.0382 1.93713,0.0695 -20.327561,0.0695 -22.264688,0 -31.333848,-0.0313 -20.153688,-0.0695 z m 9.787332,-6.15158 c 0,-0.94589 0.04802,-1.33284 0.106714,-0.8599 0.05869,0.47294 0.05869,1.24685 0,1.71979 -0.05869,0.47295 -0.106714,0.086 -0.106714,-0.85989 z m 14.839082,-2.51354 c 2.65e-4,-2.32834 0.04081,-3.24542 0.08995,-2.03796 0.04914,1.20746 0.04886,3.11246 -5.29e-4,4.23333 -0.04947,1.12088 -0.08967,0.13296 -0.08934,-2.19537 z M 84.74012,126.07603 c 0.0029,-0.58208 0.05712,-0.78905 0.120407,-0.45993 0.06328,0.32911 0.06088,0.80536 -0.0053,1.05833 -0.06622,0.25297 -0.118004,-0.0163 -0.115067,-0.5984 z m -5.159952,-5.09318 c 7.748985,-0.039 20.429142,-0.039 28.178122,0 7.74899,0.039 1.40891,0.0708 -14.089059,0.0708 -15.497969,0 -21.838047,-0.0319 -14.089063,-0.0708 z m -12.022701,-2.05057 c 0.0016,-0.87312 0.05088,-1.19841 0.109765,-0.72286 0.05889,0.47555 0.05767,1.18992 -0.0027,1.5875 -0.06037,0.39757 -0.108551,0.008 -0.107066,-0.86464 z m 4.00916,-2.97631 0.0099,-4.43202 2.248958,-0.0182 2.248959,-0.0182 -2.176463,0.0949 -2.176465,0.0949 -0.08239,4.35528 -0.08239,4.35529 0.0099,-4.43203 z m 41.511103,2.18256 c -7.9e-4,-1.30968 0.0439,-1.87882 0.0994,-1.26475 0.0555,0.61407 0.0562,1.68563 0.002,2.38125 -0.0548,0.69561 -0.1002,0.19319 -0.10101,-1.1165 z m 3.14001,-2.03294 -0.0589,-4.4142 -0.7276,-0.11022 -0.7276,-0.11023 0.7359,-0.0396 c 0.40475,-0.0218 0.79486,0.11396 0.8669,0.30171 0.072,0.18774 0.0948,2.24157 0.0506,4.56406 l -0.0804,4.22271 z m -34.640058,1.37148 c 0,-0.80036 0.0496,-1.12778 0.110223,-0.7276 0.06062,0.40018 0.06062,1.05503 0,1.45521 -0.06062,0.40018 -0.110223,0.0728 -0.110223,-0.72761 z m 16.957692,-2.11666 c 0,-1.96453 0.04165,-2.76821 0.09256,-1.78594 0.05091,0.98227 0.05091,2.58961 0,3.57188 -0.05091,0.98226 -0.09256,0.17859 -0.09256,-1.78594 z m -19.905618,2.64583 c 0,-0.3638 0.06006,-0.51263 0.133453,-0.33073 0.0734,0.1819 0.0734,0.47956 0,0.66146 -0.0734,0.1819 -0.133453,0.0331 -0.133453,-0.33073 z m 16.995201,-2.91042 c 0,-1.96453 0.04165,-2.7682 0.09256,-1.78593 0.05091,0.98226 0.05091,2.58961 0,3.57187 -0.05091,0.98227 -0.09256,0.1786 -0.09256,-1.78594 z m -21.865622,1.66536 c 0.327422,-0.0631 0.863203,-0.0631 1.190625,0 0.327422,0.0631 0.05953,0.11467 -0.595313,0.11467 -0.654844,0 -0.922734,-0.0516 -0.595312,-0.11467 z m -6.20457,-2.19452 c 0,-0.80037 0.0496,-1.12779 0.110223,-0.72761 0.06062,0.40019 0.06062,1.05503 0,1.45521 -0.06062,0.40018 -0.110223,0.0728 -0.110223,-0.7276 z m 36.512505,0 c 0,-0.80037 0.0496,-1.12779 0.11022,-0.72761 0.0606,0.40019 0.0606,1.05503 0,1.45521 -0.0606,0.40018 -0.11022,0.0728 -0.11022,-0.7276 z m -25.427709,-0.39688 c 0.0054,-0.43656 0.06469,-0.58312 0.131773,-0.32569 0.06708,0.25743 0.06267,0.61462 -0.0098,0.79375 -0.07248,0.17913 -0.127362,-0.0315 -0.12197,-0.46806 z m 2.900611,-0.39687 c 0,-0.3638 0.06006,-0.51263 0.133454,-0.33073 0.0734,0.1819 0.0734,0.47956 0,0.66146 -0.0734,0.1819 -0.133454,0.0331 -0.133454,-0.33073 z m 7.863732,-2.19051 c 0.127662,-0.12766 0.57404,-0.18946 0.99195,-0.13734 0.699457,0.0872 0.681011,0.10568 -0.232111,0.23211 -0.568786,0.0787 -0.89293,0.0383 -0.759839,-0.0948 z m 7.656746,0.0162 c 0.141097,-0.1411 0.477546,-0.2097 0.747665,-0.15244 0.363754,0.0771 0.297222,0.14363 -0.25654,0.25654 -0.482817,0.0984 -0.656792,0.0616 -0.491125,-0.1041 z m 9.80575,-0.0162 c 0.12767,-0.12766 0.57404,-0.18946 0.99195,-0.13734 0.69946,0.0872 0.68102,0.10568 -0.23211,0.23211 -0.56878,0.0787 -0.89293,0.0383 -0.75984,-0.0948 z m -39.981493,-0.11791 c 0.475548,-0.0589 1.189923,-0.0577 1.5875,0.003 0.397576,0.0604 0.0085,0.10855 -0.864635,0.10706 -0.873125,-0.002 -1.198414,-0.0509 -0.722865,-0.10976 z m 12.038838,0.008 c 0.257431,-0.0671 0.614619,-0.0627 0.79375,0.01 0.179131,0.0725 -0.03149,0.12737 -0.468056,0.12197 -0.436563,-0.005 -0.583126,-0.0647 -0.325694,-0.13177 z m 4.632166,-0.0107 c 0.622311,-0.0559 1.574811,-0.0551 2.116667,0.002 0.541856,0.0568 0.03269,0.10258 -1.131472,0.10162 -1.164167,-0.001 -1.607505,-0.0475 -0.985195,-0.10337 z m 10.840924,0.0188 c 0.181901,-0.0734 0.479557,-0.0734 0.661459,0 0.181901,0.0734 0.03307,0.13345 -0.33073,0.13345 -0.363802,0 -0.51263,-0.0601 -0.330729,-0.13345 z m 5.953125,-0.0143 c 0.40018,-0.0606 1.05503,-0.0606 1.45521,0 0.40018,0.0606 0.0728,0.11022 -0.72761,0.11022 -0.80036,0 -1.127782,-0.0496 -0.7276,-0.11022 z m 11.50938,0.0143 c 0.1819,-0.0734 0.47955,-0.0734 0.66145,0 0.18191,0.0734 0.0331,0.13345 -0.33073,0.13345 -0.3638,0 -0.51263,-0.0601 -0.33072,-0.13345 z m 6.35699,-0.0188 c 0.62231,-0.0559 1.57481,-0.0551 2.11667,0.002 0.54185,0.0568 0.0327,0.10258 -1.13148,0.10162 -1.16416,-0.001 -1.6075,-0.0475 -0.98519,-0.10337 z m -40.585072,-2.30401 c -0.0805,-0.20978 -0.09058,-0.59674 -0.02238,-0.8599 0.08234,-0.31781 0.134281,-0.23789 0.154668,0.238 0.03026,0.70641 0.05949,0.71774 2.081212,0.80665 l 2.050521,0.0902 -2.058823,0.0533 c -1.58505,0.041 -2.092508,-0.0345 -2.205192,-0.32817 z m 5.91766,0.19002 c 0.472943,-0.0587 1.246849,-0.0587 1.719792,0 0.472943,0.0587 0.08599,0.10672 -0.859896,0.10672 -0.945885,0 -1.332838,-0.048 -0.859896,-0.10672 z m 5.027084,-0.002 c 0.618463,-0.0557 1.630495,-0.0557 2.248958,0 0.618464,0.0557 0.112448,0.10129 -1.124479,0.10129 -1.236927,0 -1.742943,-0.0456 -1.124479,-0.10129 z m 6.746875,-0.004 c 1.418828,-0.0476 3.740547,-0.0476 5.159373,0 1.41883,0.0476 0.25797,0.0865 -2.579686,0.0865 -2.837656,0 -3.998515,-0.0389 -2.579687,-0.0865 z m 10.054163,0.003 c 0.69123,-0.0545 1.82232,-0.0545 2.51355,0 0.69122,0.0545 0.12567,0.0991 -1.25678,0.0991 -1.38244,0 -1.94799,-0.0446 -1.25677,-0.0991 z m -26.789059,-3.3106 0.132291,-2.71258 4.033674,-0.073 4.033673,-0.073 -0.957585,1.74211 c -0.786963,1.43171 -0.932661,1.92794 -0.817705,2.78501 l 0.139882,1.04289 -3.348262,5.3e-4 -3.34826,5.3e-4 0.132292,-2.71258 z m 10.605847,1.71919 c 0.279246,-0.54571 0.857199,-1.79586 1.284343,-2.77813 l 0.776623,-1.78594 h 3.409294 3.409291 l 1.254551,2.3794 c 0.69,1.30866 1.43398,2.55882 1.65328,2.77812 0.35526,0.35526 -0.29333,0.39873 -5.948182,0.39873 h -6.346917 z m 15.342742,0.42673 c 0.45934,-0.85828 0.11254,-2.23038 -0.93078,-3.6826 l -0.93984,-1.3082 h 2.77768 2.77768 l 0.003,1.78594 c 0.002,0.98227 0.0767,2.23242 0.1669,2.77813 l 0.164,0.99218 h -2.16059 c -2.12483,0 -2.15559,-0.009 -1.85797,-0.56545 z m 4.52027,-0.75746 c 0,-0.3638 0.0601,-0.51263 0.13345,-0.33073 0.0734,0.1819 0.0734,0.47956 0,0.66146 -0.0734,0.1819 -0.13345,0.0331 -0.13345,-0.33073 z m -31.220834,-3.96875 c 0,-0.3638 0.06006,-0.51263 0.133453,-0.33073 0.0734,0.1819 0.0734,0.47956 0,0.66146 -0.0734,0.1819 -0.133453,0.0331 -0.133453,-0.33073 z m 30.517604,-0.79375 c -0.43138,-0.18537 -0.44649,-0.23083 -0.0818,-0.24599 0.24608,-0.0102 0.521,0.10047 0.61093,0.24599 0.18803,0.30424 0.17884,0.30424 -0.52916,0 z m -30.079822,-0.18074 c 0.190995,-0.0764 0.419198,-0.067 0.507119,0.0209 0.08792,0.0879 -0.06835,0.15046 -0.347266,0.13897 -0.308226,-0.0127 -0.370919,-0.0754 -0.159853,-0.15985 z m 1.4658,-0.54687 c 0.07091,-0.25466 0.202927,-2.070362 0.293362,-4.034893 0.234923,-5.103217 0.174857,-4.9281 1.762633,-5.138727 1.509511,-0.200242 3.912915,-1.193522 5.125106,-2.118103 l 0.819264,-0.624885 1.620972,0.531466 c 1.420344,0.465687 1.693839,0.668824 2.209702,1.641234 l 0.58873,1.109766 -2.462228,4.548584 -2.462229,4.548578 h -3.812122 c -3.503321,0 -3.801679,-0.0375 -3.68319,-0.46302 z m 12.07756,0.23709 c 0,-0.12427 0.543753,-1.38953 1.208339,-2.811708 1.088374,-2.329058 1.242269,-2.53647 1.550122,-2.089171 0.502325,0.729861 2.797789,4.820119 2.797789,4.985339 0,0.0778 -1.250157,0.14147 -2.778125,0.14147 -1.527969,0 -2.778125,-0.10167 -2.778125,-0.22593 z m 7.890039,-3.544379 c -3.910248,-5.916763 -3.681791,-5.422138 -3.111693,-6.737048 0.35647,-0.822185 0.735129,-1.219883 1.443151,-1.515714 0.943882,-0.394377 0.982715,-0.385611 2.330125,0.52595 1.43159,0.968507 4.21195,1.972125 5.46346,1.972125 h 0.73018 l 0.1774,3.638021 c 0.0976,2.000911 0.24622,4.144035 0.33033,4.762495 l 0.15293,1.12448 h -2.51209 -2.51208 z m -20.833734,3.086809 c 0.0127,-0.30823 0.07539,-0.37092 0.15985,-0.15986 0.07643,0.191 0.06703,0.4192 -0.02088,0.50712 -0.08792,0.0879 -0.150453,-0.0683 -0.138965,-0.34726 z m 28.860467,-0.904 c 0,-0.3638 0.0601,-0.51263 0.13346,-0.33073 0.0734,0.18191 0.0734,0.47956 0,0.66146 -0.0734,0.1819 -0.13346,0.0331 -0.13346,-0.33073 z M 79.158922,97.633324 c 0,-0.363802 0.06005,-0.51263 0.133454,-0.330729 0.0734,0.181901 0.0734,0.479557 0,0.661458 -0.0734,0.181901 -0.133454,0.03307 -0.133454,-0.330729 z m 28.289528,-0.94809 c 0.0127,-0.308226 0.0754,-0.370919 0.15985,-0.159853 0.0764,0.190995 0.067,0.419198 -0.0209,0.507119 -0.0879,0.08792 -0.15045,-0.06835 -0.13897,-0.347266 z M 79.423506,93.39999 c 0,-0.363802 0.06005,-0.51263 0.133453,-0.330729 0.0734,0.181901 0.0734,0.479557 0,0.661459 -0.0734,0.181901 -0.133453,0.03307 -0.133453,-0.33073 z m -3.352523,-1.798841 c -2.054333,-0.710372 -3.639642,-1.751856 -5.101778,-3.351665 -7.339385,-8.030459 -1.29055,-21.182216 9.405084,-20.449121 1.132731,0.07764 2.515065,0.331504 3.071849,0.564143 l 1.012336,0.422981 -0.916639,1.259897 c -1.5788,2.170029 -1.982105,3.244273 -1.218004,3.244273 0.11444,0 0.413478,-0.432857 0.664525,-0.961905 0.827572,-1.743978 3.17015,-3.985668 5.227712,-5.00257 5.62647,-2.780753 11.55687,-1.050719 15.301762,4.463873 0.73131,1.076911 1.1383,1.467456 1.32973,1.276022 0.19144,-0.191434 -0.14174,-0.891362 -1.08858,-2.286862 l -1.36444,-2.010995 0.99516,-0.416999 c 0.54734,-0.229349 1.95382,-0.477268 3.12552,-0.550929 3.36311,-0.211431 6.22491,0.794589 8.61197,3.027404 4.2635,3.988007 5.21745,10.472777 2.27838,15.487925 -1.00901,1.721747 -3.399,3.828941 -5.41169,4.771361 -2.42879,1.137256 -5.70905,1.327515 -8.22516,0.477073 -1.69328,-0.572326 -3.75422,-1.712384 -3.74384,-2.070987 0.003,-0.107317 0.47536,-0.527388 1.04945,-0.933495 1.13115,-0.800171 2.91365,-2.833571 2.91365,-3.32377 0,-0.614143 -0.67969,-0.273092 -1.31526,0.659961 -0.88051,1.29263 -4.302266,3.825976 -4.670431,3.457813 -0.273413,-0.273415 0.541162,-1.48151 1.092178,-1.619808 1.288943,-0.323503 3.283423,-2.521712 4.430743,-4.883341 0.93956,-1.933977 1.1106,-2.540005 1.11685,-3.957093 0.007,-1.592899 -0.0393,-1.716175 -0.96347,-2.563696 -1.01724,-0.932868 -2.40734,-1.359282 -3.52048,-1.079904 -1.204073,0.302204 -2.49044,1.745294 -3.687764,4.137067 -1.326193,2.649194 -1.729881,4.720463 -1.239208,6.358187 0.279024,0.931299 0.237614,1.160142 -0.459341,2.538452 l -0.766011,1.51488 -0.706302,-1.118854 c -0.653233,-1.034791 -0.675818,-1.162381 -0.30057,-1.698123 0.783567,-1.118698 0.497832,-1.809835 -2.65776,-6.4286 -3.633336,-5.318027 -3.655037,-5.34353 -4.177729,-4.909735 -0.331391,0.27503 -0.02167,0.913849 2.103387,4.338402 1.370603,2.208734 2.492002,4.16673 2.492002,4.351105 0,1.240705 -1.310174,-0.34875 -6.131396,-7.438391 -0.113813,-0.167361 -0.319833,-0.144665 -0.569775,0.06277 -0.336351,0.279146 -0.07828,0.900699 1.831917,4.412189 1.222883,2.247998 2.223421,4.26702 2.223421,4.486714 0,0.969285 -0.828159,0.225727 -2.133627,-1.91566 -3.108349,-5.098706 -3.664691,-5.879012 -4.078417,-5.72025 -0.221398,0.08496 -0.40254,0.305897 -0.40254,0.490976 0,0.18508 0.934884,1.988043 2.077517,4.006589 1.142635,2.018544 2.288164,4.0868 2.545622,4.596123 l 0.468104,0.926041 -0.882391,-0.79375 c -1.13732,-1.023069 -1.442823,-1.375256 -2.237738,-2.579687 -0.667207,-1.010936 -1.177364,-1.283304 -1.177364,-0.628584 0,0.640154 2.091876,3.21292 3.461851,4.257678 l 1.32605,1.011258 -1.13718,0.759974 c -2.574605,1.720601 -7.017192,2.320776 -9.871885,1.333645 z m 39.029497,-1.476055 c 0,-0.05494 0.20836,-0.2633 0.46302,-0.463021 0.41965,-0.329107 0.42901,-0.319749 0.0999,0.0999 -0.34565,0.44073 -0.56292,0.580888 -0.56292,0.363125 z m -25.664582,-0.42927 c -0.342025,-0.221033 -0.33504,-0.25704 0.05053,-0.260533 0.246073,-0.0021 0.520991,0.115012 0.610928,0.260533 0.206952,0.334856 -0.143306,0.334856 -0.661458,0 z M 115.86048,70.447386 c -0.32911,-0.419644 -0.31975,-0.429003 0.0999,-0.09989 0.44073,0.345643 0.58088,0.562915 0.36312,0.562915 -0.0549,0 -0.2633,-0.208359 -0.46302,-0.46302 z"
         id="path1237" />
      <path
         style="fill:#b0f4d2;stroke-width:0.264583"
         d="m 95.121894,162.25823 40.346426,-0.0683 0.0725,-12.6992 0.0725,-12.69919 -0.004,12.76619 -0.004,12.76618 -40.41511,10e-4 -40.415108,0.001 40.346422,-0.0683 z m -31.35058,-6.13637 c 0,-0.13693 0.117699,-0.32171 0.261553,-0.41062 0.149982,-0.0927 0.194337,0.0135 0.103984,0.24897 -0.175892,0.45837 -0.365537,0.54223 -0.365537,0.16165 z m 10.054166,0 c 0,-0.13693 0.1177,-0.32171 0.261554,-0.41062 0.149982,-0.0927 0.194337,0.0135 0.103984,0.24897 -0.175892,0.45837 -0.365538,0.54223 -0.365538,0.16165 z m 11.112501,0 c 0,-0.13693 0.1177,-0.32171 0.261554,-0.41062 0.149981,-0.0927 0.194336,0.0135 0.103984,0.24897 -0.175893,0.45837 -0.365538,0.54223 -0.365538,0.16165 z m 3.96875,0 c 0,-0.13693 0.1177,-0.32171 0.261554,-0.41062 0.149981,-0.0927 0.194336,0.0135 0.103984,0.24897 -0.175893,0.45837 -0.365538,0.54223 -0.365538,0.16165 z m 39.179219,-0.69912 c 0.0127,-0.30823 0.0754,-0.37092 0.15985,-0.15986 0.0764,0.191 0.067,0.4192 -0.0209,0.50712 -0.0879,0.0879 -0.15045,-0.0684 -0.13897,-0.34726 z m -7.6938,-0.50712 c 0.34177,-0.36381 0.68094,-0.66146 0.7537,-0.66146 0.0728,0 -0.14734,0.29765 -0.48912,0.66146 -0.34177,0.3638 -0.68094,0.66146 -0.7537,0.66146 -0.0728,0 0.14734,-0.29766 0.48912,-0.66146 z m -57.188831,-0.1993 c 0.133308,-0.13331 0.524002,-0.19808 0.868207,-0.14393 0.529614,0.0833 0.492347,0.12057 -0.24238,0.24238 -0.525785,0.0872 -0.772612,0.0483 -0.625827,-0.0985 z m 21.166667,0 c 0.133308,-0.13331 0.524003,-0.19808 0.868207,-0.14393 0.529614,0.0833 0.492347,0.12057 -0.24238,0.24238 -0.525785,0.0872 -0.772612,0.0483 -0.625827,-0.0985 z m 6.826584,7.9e-4 c 0.06745,-0.10914 0.413271,-0.19843 0.768485,-0.19843 0.355214,0 0.645843,0.0893 0.645843,0.19843 0,0.10914 -0.345819,0.19844 -0.768485,0.19844 -0.422667,0 -0.713296,-0.0893 -0.645843,-0.19844 z m 10.96022,-0.0882 c 0.0127,-0.30823 0.0754,-0.37092 0.15985,-0.15985 0.0764,0.19099 0.067,0.4192 -0.0209,0.50712 -0.0879,0.0879 -0.15045,-0.0684 -0.13896,-0.34727 z m 5.35897,0.0337 c 0,-0.21188 0.10116,-0.32272 0.2248,-0.2463 0.12364,0.0764 0.1563,0.24977 0.0726,0.38523 -0.21395,0.34618 -0.29738,0.3072 -0.29738,-0.13893 z m 17.71007,-0.0627 c 0.25743,-0.0671 0.61462,-0.0627 0.79375,0.01 0.17913,0.0725 -0.0315,0.12736 -0.46806,0.12197 -0.43656,-0.005 -0.58312,-0.0647 -0.32569,-0.13177 z m -61.057641,-0.79053 c 0.291041,-0.0801 0.627528,-0.28066 0.747747,-0.44572 0.144425,-0.19831 0.182274,-0.16548 0.111566,0.0967 -0.05886,0.21828 -0.395343,0.41886 -0.747747,0.44573 -0.505219,0.0385 -0.528814,0.0181 -0.111566,-0.0968 z m 21.166667,0 c 0.291041,-0.0801 0.627528,-0.28066 0.747747,-0.44572 0.144425,-0.19831 0.182274,-0.16548 0.111567,0.0967 -0.05886,0.21828 -0.395344,0.41886 -0.747747,0.44573 -0.50522,0.0385 -0.528815,0.0181 -0.111567,-0.0968 z m 6.373622,-0.0462 c -0.07695,-0.1245 0.154154,-0.17015 0.513551,-0.10145 0.359399,0.0687 0.653452,0.17057 0.653452,0.22637 0,0.20472 -1.031515,0.0943 -1.167003,-0.12492 z m 33.710752,0.12492 c 0,-0.0558 0.29405,-0.15766 0.65345,-0.22637 0.3594,-0.0687 0.5905,-0.023 0.51355,0.10145 -0.13548,0.21923 -1.167,0.32964 -1.167,0.12492 z m -26.193749,-0.94859 c 0,-0.14095 0.178594,-0.18774 0.396875,-0.10398 0.218281,0.0838 0.396874,0.19909 0.396874,0.25628 0,0.0572 -0.178593,0.10399 -0.396874,0.10399 -0.218281,0 -0.396875,-0.11533 -0.396875,-0.25629 z m 7.408329,-0.14059 c 0,-0.21828 0.0468,-0.39687 0.10399,-0.39687 0.0572,0 0.17251,0.17859 0.25628,0.39687 0.0838,0.21828 0.037,0.39688 -0.10398,0.39688 -0.14096,0 -0.25629,-0.1786 -0.25629,-0.39688 z M 67.262478,152.0052 c 0.0054,-0.43656 0.06469,-0.58313 0.131773,-0.32569 0.06708,0.25743 0.06267,0.61462 -0.0098,0.79375 -0.07248,0.17913 -0.127363,-0.0315 -0.121971,-0.46806 z m 21.166667,0 c 0.0054,-0.43656 0.06469,-0.58313 0.131773,-0.32569 0.06708,0.25743 0.06267,0.61462 -0.0098,0.79375 -0.07248,0.17913 -0.127363,-0.0315 -0.121971,-0.46806 z m 14.277695,0.13229 c 0,-0.3638 0.0601,-0.51263 0.13345,-0.33073 0.0734,0.1819 0.0734,0.47956 0,0.66146 -0.0734,0.1819 -0.13345,0.0331 -0.13345,-0.33073 z m -9.682057,-0.18702 c -0.143584,-0.37709 -0.113194,-0.40748 0.148113,-0.14812 0.180822,0.17948 0.262115,0.39297 0.180653,0.47443 -0.08146,0.0815 -0.229407,-0.0654 -0.328766,-0.32631 z m 2.252837,0.0327 c 0.0127,-0.30822 0.07539,-0.37092 0.159851,-0.15985 0.07643,0.19099 0.06703,0.4192 -0.02088,0.50712 -0.08792,0.0879 -0.150453,-0.0684 -0.138965,-0.34727 z m 5.27078,-0.0467 c 0,-0.15911 -0.20836,-0.34373 -0.46302,-0.41028 -0.417439,-0.10909 -0.418976,-0.12403 -0.0156,-0.1517 0.47734,-0.0327 0.90167,0.42822 0.63742,0.69247 -0.0873,0.0873 -0.15879,0.0286 -0.15879,-0.13049 z m 6.55332,-0.37265 c 0.15375,-0.15375 0.43572,-0.22749 0.6266,-0.16386 0.19816,0.066 0.0782,0.18598 -0.27955,0.27954 -0.44009,0.11509 -0.54339,0.0807 -0.34705,-0.11568 z m 18.31751,-0.0553 c 0,-0.0549 0.20836,-0.2633 0.46302,-0.46302 0.41965,-0.32911 0.42901,-0.31975 0.0999,0.0999 -0.34565,0.44073 -0.56292,0.58089 -0.56292,0.36313 z m -60.258854,-0.87624 c 0.254662,-0.0666 0.67138,-0.0666 0.926042,0 0.254661,0.0665 0.0463,0.121 -0.463021,0.121 -0.509323,0 -0.717682,-0.0545 -0.463021,-0.121 z m 21.166667,0 c 0.254662,-0.0666 0.671381,-0.0666 0.926042,0 0.254661,0.0665 0.0463,0.121 -0.463021,0.121 -0.509323,0 -0.717682,-0.0545 -0.463021,-0.121 z m 6.879167,0 c 0.254662,-0.0666 0.67138,-0.0666 0.926042,0 0.254661,0.0665 0.0463,0.121 -0.463021,0.121 -0.509323,0 -0.717682,-0.0545 -0.463021,-0.121 z m 33.60208,0 c 0.25467,-0.0666 0.67138,-0.0666 0.92605,0 0.25466,0.0665 0.0463,0.121 -0.46302,0.121 -0.50933,0 -0.71769,-0.0545 -0.46303,-0.121 z m -54.57031,-4.5645 c 0,-0.13693 0.1177,-0.32171 0.261554,-0.41062 0.149982,-0.0927 0.194337,0.0135 0.103984,0.24897 -0.175892,0.45837 -0.365538,0.54224 -0.365538,0.16165 z m 4.233334,0 c 0,-0.13693 0.1177,-0.32171 0.261554,-0.41062 0.149981,-0.0927 0.194336,0.0135 0.103984,0.24897 -0.175893,0.45837 -0.365538,0.54224 -0.365538,0.16165 z m 13.779222,-0.16995 c 0.0127,-0.30823 0.07539,-0.37092 0.159851,-0.15986 0.07643,0.191 0.06703,0.4192 -0.02088,0.50712 -0.08792,0.0879 -0.150452,-0.0684 -0.138964,-0.34726 z m 6.602109,0.27105 c 0.0046,-0.13695 0.183224,-0.48012 0.396875,-0.7626 0.213654,-0.28247 0.384675,-0.40153 0.380047,-0.26458 -0.0046,0.13695 -0.183224,0.48012 -0.396875,0.7626 -0.213653,0.28247 -0.384675,0.40153 -0.380047,0.26458 z m 2.802398,-0.25924 c -0.09074,-0.23645 -0.157433,-0.56901 -0.148207,-0.73901 0.0092,-0.17 0.130845,-0.0239 0.270267,0.32463 0.139422,0.34855 0.206116,0.68111 0.148206,0.73902 -0.05791,0.0579 -0.17953,-0.0882 -0.270266,-0.32464 z m 7.243357,0.15814 c 0,-0.13693 0.1177,-0.32171 0.26155,-0.41062 0.14998,-0.0927 0.19434,0.0135 0.10399,0.24897 -0.1759,0.45837 -0.36554,0.54224 -0.36554,0.16165 z m -6.32911,-0.69912 c 0.0127,-0.30823 0.0754,-0.37092 0.15985,-0.15985 0.0764,0.19099 0.067,0.4192 -0.0209,0.50711 -0.0879,0.0879 -0.15045,-0.0684 -0.13896,-0.34726 z m -7.743418,-0.0264 c 0.190994,-0.0764 0.419198,-0.067 0.507119,0.0209 0.08792,0.0879 -0.06835,0.15045 -0.347266,0.13896 -0.308226,-0.0127 -0.370919,-0.0754 -0.159853,-0.15985 z m 9.960608,-0.10144 c -0.0959,-0.1552 -0.11766,-0.33893 -0.0483,-0.40829 0.0694,-0.0693 0.1966,0.0576 0.28277,0.28219 0.17891,0.46622 0.0264,0.54823 -0.23447,0.1261 z m -31.116494,-0.57857 c 0.133308,-0.13331 0.524002,-0.19808 0.868207,-0.14394 0.529613,0.0833 0.492347,0.12058 -0.24238,0.24239 -0.525785,0.0872 -0.772612,0.0483 -0.625827,-0.0985 z m 23.893103,-0.19758 c 0,-0.3638 0.06006,-0.51263 0.133454,-0.33072 0.0734,0.1819 0.0734,0.47955 0,0.66145 -0.0734,0.18191 -0.133454,0.0331 -0.133454,-0.33073 z m 10.767311,0.19758 c 0.13331,-0.13331 0.52401,-0.19808 0.86821,-0.14393 0.52961,0.0833 0.49235,0.12058 -0.24238,0.24238 -0.52578,0.0872 -0.77261,0.0483 -0.62583,-0.0985 z m -33.695545,-0.90693 c 0.291042,-0.0801 0.627529,-0.28067 0.747747,-0.44573 0.144426,-0.1983 0.182274,-0.16548 0.111567,0.0967 -0.05886,0.21828 -0.395343,0.41886 -0.747747,0.44573 -0.505219,0.0385 -0.528814,0.0181 -0.111567,-0.0967 z m 19.148542,-0.28283 c -0.329107,-0.41965 -0.319749,-0.42901 0.0999,-0.0999 0.254662,0.19972 0.463021,0.40808 0.463021,0.46302 0,0.21776 -0.217273,0.0776 -0.562917,-0.36312 z m 15.511873,0.28283 c 0.29104,-0.0801 0.62753,-0.28067 0.74775,-0.44573 0.14443,-0.1983 0.18227,-0.16548 0.11157,0.0967 -0.0589,0.21828 -0.39535,0.41886 -0.74775,0.44573 -0.50522,0.0385 -0.52881,0.0181 -0.11157,-0.0967 z m -25.912154,-0.42654 c 0.09936,-0.26093 0.247303,-0.40778 0.328766,-0.32631 0.08146,0.0815 1.69e-4,0.29495 -0.180652,0.47443 -0.261308,0.25936 -0.291698,0.22897 -0.148114,-0.14812 z m 6.469062,-0.8258 c 0.171347,-0.17135 0.350258,-0.17135 0.521605,0 0.17135,0.17135 0.0819,0.2608 -0.260802,0.2608 -0.342699,0 -0.432152,-0.0894 -0.260803,-0.2608 z m -12.123034,-0.55185 c 0.0054,-0.43656 0.06469,-0.58312 0.131773,-0.32569 0.06708,0.25743 0.06267,0.61462 -0.0098,0.79375 -0.07248,0.17913 -0.127362,-0.0315 -0.12197,-0.46806 z m 34.660416,0 c 0.005,-0.43656 0.0647,-0.58312 0.13178,-0.32569 0.0671,0.25743 0.0627,0.61462 -0.01,0.79375 -0.0725,0.17913 -0.12736,-0.0315 -0.12197,-0.46806 z m -6.90986,-0.022 c 0.0127,-0.30822 0.0754,-0.37092 0.15985,-0.15985 0.0764,0.19099 0.067,0.4192 -0.0209,0.50712 -0.0879,0.0879 -0.15045,-0.0684 -0.13897,-0.34727 z M 87.848398,141.5543 c -0.615755,-0.1972 -0.621404,-0.21366 -0.08176,-0.23821 0.318833,-0.0145 0.653283,0.0927 0.74322,0.23821 0.08994,0.14552 0.12673,0.25271 0.08176,0.23821 -0.04497,-0.0145 -0.379417,-0.1217 -0.74322,-0.23821 z m 26.987502,-0.0999 c 0,-0.0549 0.20836,-0.2633 0.46302,-0.46302 0.41964,-0.32911 0.429,-0.31975 0.0999,0.0999 -0.34565,0.44073 -0.56292,0.58088 -0.56292,0.36312 z m -41.208857,-0.87624 c 0.254661,-0.0666 0.67138,-0.0666 0.926042,0 0.254661,0.0665 0.0463,0.121 -0.463021,0.121 -0.509323,0 -0.717682,-0.0545 -0.463021,-0.121 z m 19.727995,0.002 c 0.190995,-0.0764 0.419198,-0.067 0.507119,0.0209 0.08792,0.0879 -0.06835,0.15045 -0.347265,0.13896 -0.308227,-0.0127 -0.37092,-0.0754 -0.159854,-0.15985 z m 14.932422,-0.002 c 0.25466,-0.0666 0.67138,-0.0666 0.92604,0 0.25466,0.0665 0.0463,0.121 -0.46302,0.121 -0.50932,0 -0.71768,-0.0545 -0.46302,-0.121 z M 82.598506,133.6168 c 0,-0.3638 0.06006,-0.51263 0.133453,-0.33073 0.0734,0.1819 0.0734,0.47956 0,0.66146 -0.0734,0.1819 -0.133453,0.0331 -0.133453,-0.33073 z m 21.960414,0 c 0,-0.3638 0.0601,-0.51263 0.13346,-0.33073 0.0734,0.1819 0.0734,0.47956 0,0.66146 -0.0734,0.1819 -0.13346,0.0331 -0.13346,-0.33073 z m -21.36476,-5.68854 c -2.65e-4,-2.47386 0.03947,-3.5215 0.08837,-2.3281 0.04891,1.1934 0.04916,3.21746 5.29e-4,4.49792 -0.0486,1.28045 -0.08862,0.30403 -0.08893,-2.16982 z m 7.498508,2.86748 c 0.181901,-0.0734 0.479558,-0.0734 0.661459,0 0.181901,0.0734 0.03307,0.13345 -0.330729,0.13345 -0.363802,0 -0.512631,-0.0601 -0.33073,-0.13345 z m 5.291667,0 c 0.181901,-0.0734 0.479558,-0.0734 0.661459,0 0.181901,0.0734 0.03307,0.13345 -0.33073,0.13345 -0.363802,0 -0.51263,-0.0601 -0.330729,-0.13345 z m 5.207065,-0.17434 c -0.0738,-0.19226 -0.0998,-1.53033 -0.0578,-2.97349 0.0672,-2.31203 0.13468,-2.63512 0.56742,-2.71797 0.27012,-0.0517 0.60657,0.0214 0.74767,0.16252 0.16566,0.16567 0.0151,0.21039 -0.42498,0.12626 l -0.68152,-0.13028 v 2.83982 2.83981 l 0.65345,-0.12492 c 0.3594,-0.0687 0.5905,-0.023 0.51355,0.10145 -0.21883,0.35407 -1.16868,0.26527 -1.31775,-0.1232 z m 2.89759,-2.69314 c 5.3e-4,-1.74625 0.0433,-2.4262 0.0952,-1.51099 0.0518,0.91521 0.0514,2.34396 -0.001,3.175 -0.0523,0.83104 -0.0947,0.0822 -0.0942,-1.66401 z m -12.538021,-0.18634 c -0.07188,-1.55769 -0.03686,-2.73782 0.07784,-2.6225 0.114694,0.11531 0.173508,1.38978 0.130696,2.83216 l -0.07784,2.62251 z m 4.066979,0.18634 c 7.94e-4,-1.45521 0.04512,-2.01677 0.09874,-1.24791 0.05362,0.76887 0.05305,1.95949 -0.0013,2.64584 -0.05423,0.68634 -0.0981,0.0573 -0.09741,-1.39793 z m -10.48153,-0.84819 c 0.327422,-0.0631 0.863203,-0.0631 1.190625,0 0.327422,0.0631 0.05953,0.11467 -0.595312,0.11467 -0.654844,0 -0.922735,-0.0516 -0.595313,-0.11467 z m 0.269322,-2.12169 c 0.475549,-0.0589 1.189924,-0.0577 1.5875,0.003 0.397577,0.0604 0.0085,0.10855 -0.864634,0.10706 -0.873125,-0.002 -1.198415,-0.0509 -0.722866,-0.10976 z m 13.04688,-0.22717 c 0.0127,-0.30823 0.07539,-0.37092 0.159851,-0.15985 0.07643,0.19099 0.06703,0.4192 -0.02088,0.50711 -0.08792,0.0879 -0.150453,-0.0683 -0.138964,-0.34726 z"
         id="path1235" />
      <path
         style="fill:#a4a19f;stroke-width:0.264583"
         d="m 65.400589,121.71041 c 0,-0.3638 0.06006,-0.51263 0.133453,-0.33073 0.0734,0.1819 0.0734,0.47956 0,0.66146 -0.0734,0.1819 -0.133453,0.0331 -0.133453,-0.33073 z m 56.356251,0 c 0,-0.3638 0.0601,-0.51263 0.13345,-0.33073 0.0734,0.1819 0.0734,0.47956 0,0.66146 -0.0734,0.1819 -0.13345,0.0331 -0.13345,-0.33073 z m -55.760597,-5.68854 c -2.65e-4,-2.47386 0.03946,-3.5215 0.08837,-2.3281 0.04891,1.1934 0.04916,3.21746 5.29e-4,4.49792 -0.0486,1.28045 -0.08862,0.30403 -0.08893,-2.16982 z m 9.914461,3.6297 c -0.08716,-0.52578 -0.04834,-0.77261 0.09845,-0.62582 0.133308,0.1333 0.198078,0.524 0.143933,0.8682 -0.08331,0.52962 -0.120578,0.49235 -0.242383,-0.24238 z m 35.593876,-3.6297 c -2.7e-4,-2.47386 0.0395,-3.5215 0.0884,-2.3281 0.0489,1.1934 0.0492,3.21746 5.3e-4,4.49792 -0.0486,1.28045 -0.0886,0.30403 -0.0889,-2.16982 z m -27.832308,0.746 c -0.05553,-3.38518 -0.07465,-3.49068 -0.65252,-3.60199 l -0.595313,-0.11466 0.603615,-0.036 c 0.331991,-0.0198 0.663263,0.1194 0.736164,0.30937 0.0729,0.18998 0.09491,1.82709 0.0489,3.63802 l -0.08364,3.29262 z m 1.650603,-0.15031 c 0.01132,-3.31683 0.04055,-3.50752 0.541147,-3.53211 0.387372,-0.019 0.40712,0.003 0.0737,0.0836 -0.396086,0.0953 -0.466632,0.55574 -0.541147,3.53211 l -0.08568,3.42255 0.01199,-3.5061 z m -8.261011,1.65326 c 0,-0.50932 0.05445,-0.71768 0.121002,-0.46302 0.06655,0.25466 0.06655,0.67138 0,0.92605 -0.06655,0.25466 -0.121002,0.0463 -0.121002,-0.46303 z m 16.977093,-2.91041 c 0,-2.11005 0.04109,-2.97326 0.09131,-1.91823 0.05022,1.05502 0.05022,2.78143 0,3.83646 -0.05022,1.05502 -0.09131,0.19182 -0.09131,-1.91823 z m -20.935165,2.38125 c 0,-0.65485 0.0516,-0.92274 0.114663,-0.59531 0.06307,0.32742 0.06307,0.8632 0,1.19062 -0.06306,0.32742 -0.114663,0.0595 -0.114663,-0.59531 z m 16.798211,0.8712 c 0.329118,-0.0633 0.805368,-0.0609 1.058334,0.005 0.252965,0.0662 -0.01632,0.118 -0.598398,0.11506 -0.582083,-0.003 -0.789053,-0.0571 -0.459936,-0.1204 z m 17.462497,0 c 0.32912,-0.0633 0.80537,-0.0609 1.05834,0.005 0.25296,0.0662 -0.0163,0.118 -0.5984,0.11506 -0.58208,-0.003 -0.78905,-0.0571 -0.45994,-0.1204 z m -10.417468,-3.38474 c 5.29e-4,-1.89177 0.04261,-2.63097 0.09365,-1.64265 0.05105,0.98832 0.05066,2.53613 -7.94e-4,3.43959 -0.05151,0.90345 -0.09327,0.0948 -0.09281,-1.79694 z m -6.910787,2.0656 c 0.257432,-0.0671 0.614619,-0.0627 0.79375,0.01 0.179131,0.0725 -0.03149,0.12736 -0.468056,0.12197 -0.436562,-0.005 -0.583126,-0.0647 -0.325694,-0.13178 z m 17.462505,0 c 0.25743,-0.0671 0.61461,-0.0627 0.79375,0.01 0.17913,0.0725 -0.0315,0.12736 -0.46806,0.12197 -0.43656,-0.005 -0.58313,-0.0647 -0.32569,-0.13178 z m 7.16648,-3.38852 c -7.9e-4,-1.30969 0.0439,-1.87883 0.0994,-1.26475 0.0555,0.61407 0.0562,1.68563 0.002,2.38125 -0.0547,0.69561 -0.10008,0.19319 -0.10089,-1.1165 z m -37.582763,0.52917 c 0.0016,-0.87313 0.05088,-1.19842 0.109765,-0.72287 0.05889,0.47555 0.05767,1.18992 -0.0027,1.5875 -0.06037,0.39758 -0.10855,0.008 -0.107066,-0.86463 z m -3.94648,0.55151 c -0.07904,-0.20599 -0.105074,-0.712 -0.05784,-1.12448 0.08061,-0.70398 0.170014,-0.75482 1.458643,-0.82936 1.22356,-0.0708 1.385234,-0.15022 1.48744,-0.73087 0.100777,-0.57254 0.110765,-0.56292 0.08244,0.0794 -0.03044,0.69034 -0.109281,0.73532 -1.421292,0.81085 -1.386575,0.0798 -1.389062,0.0816 -1.389062,0.97622 0,0.84082 0.06136,0.90266 0.992187,1.00003 l 0.992188,0.10378 -1.00049,0.0445 c -0.651309,0.029 -1.050653,-0.0862 -1.144212,-0.33005 z m -5.197486,-1.91737 c 0.181901,-0.0734 0.479557,-0.0734 0.661459,0 0.181901,0.0734 0.03307,0.13346 -0.33073,0.13346 -0.363802,0 -0.51263,-0.0601 -0.330729,-0.13346 z m 33.337499,0 c 0.1819,-0.0734 0.47956,-0.0734 0.66146,0 0.1819,0.0734 0.0331,0.13346 -0.33073,0.13346 -0.3638,0 -0.51263,-0.0601 -0.33073,-0.13346 z m 16.27691,-0.008 c 0.25743,-0.0671 0.61462,-0.0627 0.79375,0.01 0.17913,0.0725 -0.0315,0.12736 -0.46805,0.12197 -0.43657,-0.005 -0.58313,-0.0647 -0.3257,-0.13178 z m 2.91042,0 c 0.25743,-0.0671 0.61462,-0.0627 0.79375,0.01 0.17913,0.0725 -0.0315,0.12736 -0.46806,0.12197 -0.43656,-0.005 -0.58312,-0.0647 -0.32569,-0.13178 z m -38.501912,-3.69604 c 0.181901,-0.0734 0.479558,-0.0734 0.661459,0 0.181901,0.0734 0.03307,0.13345 -0.33073,0.13345 -0.363802,0 -0.51263,-0.0601 -0.330729,-0.13345 z m 10.054167,0 c 0.181901,-0.0734 0.479557,-0.0734 0.661458,0 0.181902,0.0734 0.03307,0.13345 -0.330729,0.13345 -0.363802,0 -0.51263,-0.0601 -0.330729,-0.13345 z m 11.249825,-0.008 c 0.25743,-0.0671 0.61462,-0.0627 0.79375,0.01 0.17913,0.0725 -0.0315,0.12736 -0.46805,0.12197 -0.43657,-0.005 -0.58313,-0.0647 -0.3257,-0.13177 z m 5.80124,-0.74269 c 0.005,-0.43656 0.0647,-0.58312 0.13177,-0.32569 0.0671,0.25743 0.0627,0.61462 -0.01,0.79375 -0.0725,0.17913 -0.12736,-0.0315 -0.12197,-0.46806 z m -30.691672,-0.79375 c 0.0054,-0.43656 0.06469,-0.58312 0.131773,-0.32569 0.06708,0.25743 0.06267,0.61462 -0.0098,0.79375 -0.07248,0.17913 -0.127363,-0.0315 -0.12197,-0.46806 z m 29.907722,-1.19062 c 0,-0.50933 0.0544,-0.71768 0.121,-0.46302 0.0665,0.25466 0.0665,0.67138 0,0.92604 -0.0666,0.25466 -0.121,0.0463 -0.121,-0.46302 z m -30.436889,-1.98438 c 0.0054,-0.43656 0.06469,-0.58312 0.131773,-0.32569 0.06708,0.25743 0.06267,0.61462 -0.0098,0.79375 -0.07248,0.17913 -0.127362,-0.0315 -0.12197,-0.46806 z m 30.956249,-1.05833 c 0.005,-0.43656 0.0647,-0.58313 0.13177,-0.3257 0.0671,0.25744 0.0627,0.61462 -0.01,0.79375 -0.0725,0.17914 -0.12736,-0.0315 -0.12197,-0.46805 z m -1.06814,-1.71979 c 0,-0.3638 0.0601,-0.51263 0.13346,-0.33073 0.0734,0.1819 0.0734,0.47956 0,0.66146 -0.0734,0.1819 -0.13346,0.0331 -0.13346,-0.33073 z m -28.045831,-0.52917 c 0,-0.3638 0.06005,-0.51263 0.133453,-0.33073 0.0734,0.1819 0.0734,0.47956 0,0.66146 -0.0734,0.1819 -0.133453,0.0331 -0.133453,-0.33073 z m 27.261891,-0.92604 c 0.005,-0.436564 0.0647,-0.583127 0.13177,-0.3257 0.0671,0.25744 0.0627,0.61462 -0.01,0.79375 -0.0725,0.17914 -0.12737,-0.0315 -0.12197,-0.46805 z M 79.158922,98.691657 c 0,-0.363802 0.06005,-0.51263 0.133454,-0.330729 0.0734,0.181901 0.0734,0.479557 0,0.661458 -0.0734,0.181901 -0.133454,0.03307 -0.133454,-0.330729 z m 28.310418,-1.058333 c 0,-0.363802 0.0601,-0.51263 0.13345,-0.330729 0.0734,0.181901 0.0734,0.479557 0,0.661458 -0.0734,0.181901 -0.13345,0.03307 -0.13345,-0.330729 z M 79.952672,97.104157 c 0,-0.363802 0.06006,-0.51263 0.133454,-0.330729 0.0734,0.181901 0.0734,0.479557 0,0.661458 -0.0734,0.181901 -0.133454,0.03307 -0.133454,-0.330729 z m 26.722918,-0.79375 c 0,-0.363802 0.0601,-0.51263 0.13345,-0.330729 0.0734,0.181901 0.0734,0.479557 0,0.661458 -0.0734,0.181901 -0.13345,0.03307 -0.13345,-0.330729 z M 79.423506,94.458324 c 0,-0.363802 0.06005,-0.512631 0.133453,-0.330729 0.0734,0.181901 0.0734,0.479557 0,0.661458 -0.0734,0.181901 -0.133453,0.03307 -0.133453,-0.330729 z m 27.781254,-0.79375 c 0,-0.363802 0.0601,-0.512631 0.13345,-0.330729 0.0734,0.181901 0.0734,0.479557 0,0.661458 -0.0734,0.181901 -0.13345,0.03307 -0.13345,-0.330729 z M 80.19637,93.245651 c 0.0127,-0.308226 0.07539,-0.370919 0.15985,-0.159853 0.07643,0.190994 0.06703,0.419198 -0.02087,0.507119 -0.08792,0.08792 -0.150453,-0.06835 -0.138965,-0.347266 z m -0.880785,-1.079222 c 0.181901,-0.0734 0.479557,-0.0734 0.661458,0 0.181901,0.0734 0.03307,0.133453 -0.330729,0.133453 -0.363802,0 -0.51263,-0.06005 -0.330729,-0.133453 z m 27.781255,0 c 0.1819,-0.0734 0.47955,-0.0734 0.66145,0 0.1819,0.0734 0.0331,0.133453 -0.33073,0.133453 -0.3638,0 -0.51263,-0.06005 -0.33072,-0.133453 z m 8.26822,-3.396647 c 0.49366,-0.509323 0.95709,-0.926042 1.02985,-0.926042 0.0728,0 -0.27161,0.416719 -0.76526,0.926042 -0.49366,0.509323 -0.95709,0.926042 -1.02985,0.926042 -0.0728,0 0.27161,-0.416719 0.76526,-0.926042 z m -44.205439,-0.06615 -0.641432,-0.727604 0.727604,0.641432 c 0.680056,0.599517 0.848939,0.813776 0.641432,0.813776 -0.04739,0 -0.374814,-0.327422 -0.727604,-0.727604 z M 102.1359,87.446865 c 0.49365,-0.509323 0.95708,-0.926041 1.02984,-0.926041 0.0728,0 -0.2716,0.416718 -0.76526,0.926041 -0.49365,0.509323 -0.95708,0.926042 -1.02984,0.926042 -0.0728,0 0.2716,-0.416719 0.76526,-0.926042 z m -17.760836,-0.06615 c -0.329107,-0.419645 -0.319749,-0.429003 0.0999,-0.0999 0.254661,0.199721 0.463021,0.40808 0.463021,0.463021 0,0.217763 -0.217273,0.07761 -0.562917,-0.363125 z m 0.934654,-0.132291 -0.504029,-0.595313 0.595313,0.504029 c 0.559445,0.473662 0.715761,0.686596 0.504028,0.686596 -0.05021,0 -0.318098,-0.26789 -0.595312,-0.595312 z M 66.967203,81.339401 c 0.0127,-0.308227 0.07539,-0.37092 0.15985,-0.159854 0.07643,0.190995 0.06703,0.419198 -0.02088,0.507119 -0.08792,0.08792 -0.150453,-0.06835 -0.138965,-0.347265 z m 37.699247,-8.389885 c 0.0994,-0.260937 0.2473,-0.407781 0.32877,-0.326319 0.0815,0.08146 1.6e-4,0.294956 -0.18066,0.474432 -0.2613,0.259362 -0.29169,0.228971 -0.14811,-0.148113 z m 10.67859,-1.972964 -0.64143,-0.727604 0.7276,0.641433 c 0.68006,0.599516 0.84894,0.813775 0.64143,0.813775 -0.0474,0 -0.37481,-0.327421 -0.7276,-0.727604 z m -13.24289,-1.058333 c -0.32911,-0.419644 -0.31975,-0.429002 0.0999,-0.09989 0.44073,0.345644 0.58089,0.562916 0.36313,0.562916 -0.0549,0 -0.2633,-0.20836 -0.46302,-0.463021 z M 84.937981,69.455198 c 0.341775,-0.363802 0.680939,-0.661458 0.7537,-0.661458 0.07276,0 -0.147341,0.297656 -0.489117,0.661458 -0.341775,0.363802 -0.68094,0.661458 -0.7537,0.661458 -0.07276,0 0.147341,-0.297656 0.489117,-0.661458 z m -0.828442,-0.222781 c 0.162075,-0.195291 0.20642,-0.452505 0.09854,-0.571587 -0.107876,-0.119082 -0.04153,-0.127293 0.147436,-0.01825 0.264708,0.152754 0.272458,0.283961 0.03375,0.571586 -0.170405,0.205326 -0.369358,0.37332 -0.442119,0.37332 -0.07276,0 2.65e-4,-0.159783 0.162394,-0.355074 z m 18.310491,-0.01825 c -0.23871,-0.287625 -0.23096,-0.418832 0.0337,-0.571586 0.18897,-0.109047 0.25531,-0.100836 0.14744,0.01825 -0.10788,0.119082 -0.0635,0.376296 0.0985,0.571587 0.16207,0.19529 0.23515,0.355073 0.16239,0.355073 -0.0728,0 -0.27171,-0.167994 -0.44212,-0.37332 z m 3.10584,-2.188671 c 0.191,-0.07643 0.4192,-0.06703 0.50712,0.02089 0.0879,0.08792 -0.0683,0.150453 -0.34726,0.138964 -0.30823,-0.01269 -0.37092,-0.07539 -0.15986,-0.159852 z M 94.148788,65.967167 c 0.190995,-0.07643 0.419198,-0.06703 0.507119,0.02089 0.08792,0.08792 -0.06835,0.150453 -0.347265,0.138965 -0.308227,-0.0127 -0.37092,-0.07539 -0.159854,-0.159853 z"
         id="path1233" />
      <path
         style="fill:#1bccc0;stroke-width:0.264583"
         d="m 82.821314,133.61666 c 0,-0.52056 0.17639,-0.52917 10.847917,-0.52917 10.671529,0 10.847919,0.009 10.847919,0.52917 0,0.52056 -0.17639,0.52916 -10.847919,0.52916 -10.671527,0 -10.847917,-0.009 -10.847917,-0.52916 z m 0.529167,-5.68854 v -4.36563 h 2.116666 c 2.08139,0 2.116667,0.011 2.116667,0.66146 0,0.62538 -0.07937,0.66146 -1.455208,0.66146 h -1.455209 v 1.19062 1.19063 h 1.209027 c 1.102469,0 1.201576,0.0525 1.124479,0.59531 -0.07028,0.49488 -0.274248,0.60904 -1.209026,0.67667 l -1.12448,0.0814 v 1.83687 c 0,1.78294 -0.01942,1.83687 -0.661458,1.83687 h -0.661458 z m 5.937549,3.99007 c -0.465008,-0.34002 -0.513591,-0.71745 -0.513591,-3.99007 0,-4.17043 0.102151,-4.36563 2.284527,-4.36563 1.880303,0 2.081098,0.4269 2.081098,4.4245 0,2.89564 -0.05747,3.30589 -0.529166,3.77758 -0.635405,0.63541 -2.543358,0.72362 -3.322868,0.15362 z m 2.403446,-1.54268 c 0.08195,-0.32742 0.11398,-1.66687 0.07119,-2.97656 -0.07655,-2.34286 -0.08847,-2.38125 -0.739264,-2.38125 -0.656019,0 -0.662086,0.0216 -0.737757,2.627 -0.04196,1.44485 -0.01593,2.7843 0.05784,2.97656 0.224861,0.58599 1.183571,0.41121 1.347991,-0.24575 z m 3.036088,1.38906 c -0.471699,-0.47169 -0.529166,-0.88194 -0.529166,-3.77758 0,-3.9976 0.200795,-4.4245 2.081098,-4.4245 2.182376,0 2.284527,0.1952 2.284527,4.36563 0,3.27262 -0.04858,3.65005 -0.513591,3.99007 -0.77951,0.57 -2.687463,0.48179 -3.322868,-0.15362 z m 2.32377,-3.9026 0.07481,-2.97656 h -0.641816 c -0.837478,0 -0.963015,0.39664 -0.963015,3.04271 0,2.62777 0.140502,3.098 0.893572,2.99055 0.529209,-0.0755 0.565957,-0.252 0.636449,-3.0567 z m 2.703314,0.0662 v -4.36563 h 1.700892 c 2.48209,0 2.53244,0.0868 2.53244,4.36563 0,4.27882 -0.0503,4.36562 -2.53244,4.36562 h -1.700892 z m 2.778122,0 v -2.91042 h -0.66146 c -0.65601,0 -0.66208,0.0216 -0.73775,2.627 -0.0886,3.05091 -0.005,3.3932 0.80272,3.27854 0.57765,-0.082 0.59649,-0.17664 0.59649,-2.99512 z"
         id="path1231" />
      <path
         style="fill:#2bf162;stroke-width:0.264583"
         d="m 54.77548,149.49166 v -12.7 H 95.124439 135.4734 v 12.7 12.7 H 95.124439 54.77548 Z m 8.250656,6.15156 c 0.06711,-0.58329 0.236916,-0.74507 0.856099,-0.81564 0.77058,-0.0878 0.77135,-0.0865 0.330729,0.586 -0.242909,0.37072 -0.44165,0.73777 -0.44165,0.81565 0,0.0779 0.642249,0.1416 1.427218,0.1416 1.30874,0 1.425805,-0.0494 1.410173,-0.59532 -0.0094,-0.32742 0.209884,-1.41087 0.487238,-2.40768 l 0.504286,-1.81237 -0.620853,-0.50273 c -0.776118,-0.62847 -1.919669,-0.64562 -2.646646,-0.0397 -0.305546,0.25466 -0.966271,1.31435 -1.468276,2.35487 -0.502007,1.04052 -1.157417,2.06323 -1.456465,2.27269 -0.680402,0.47658 -0.447635,0.73026 0.670055,0.73026 0.746265,0 0.87581,-0.0994 0.948092,-0.72761 z m 1.056746,-2.73303 c 0.262734,-0.75368 0.868995,-1.26783 1.156245,-0.98058 0.3004,0.3004 -0.491284,1.79538 -0.950767,1.79538 -0.431821,0 -0.456041,-0.096 -0.205478,-0.8148 z m 6.628582,2.98213 c -0.107325,-0.52109 1.046795,-4.54858 1.303444,-4.54858 0.12269,0 0.223072,-0.11906 0.223072,-0.26458 0,-0.14552 -0.66758,-0.26458 -1.483516,-0.26458 -1.127709,0 -1.451041,0.0846 -1.348115,0.35284 0.155678,0.40569 -0.807011,4.15144 -1.163921,4.52872 -0.501711,0.53035 -0.188772,0.69952 1.151282,0.62237 0.973992,-0.0561 1.367755,-0.18343 1.317754,-0.42619 z m 5.93846,0.10692 c -0.174615,-0.45504 0.880869,-4.39091 1.177514,-4.39091 0.117018,0 0.340199,0.23812 0.495959,0.52916 0.529048,0.98854 1.322917,0.49923 1.322917,-0.81539 0,-0.47061 -0.219231,-0.50752 -3.014401,-0.50752 -3.189491,0 -3.335599,0.0589 -3.335599,1.34455 0,0.669 0.483206,0.64295 1.238676,-0.0668 0.336227,-0.31587 0.6692,-0.51643 0.739939,-0.44569 0.179895,0.1799 -0.851128,3.70251 -1.179904,4.03129 -0.53094,0.53094 -0.247214,0.69288 1.213972,0.69288 1.165095,0 1.452909,-0.0798 1.340927,-0.37159 z m 7.542879,-0.35602 c 0.06711,-0.58329 0.236916,-0.74507 0.856099,-0.81564 0.770581,-0.0878 0.77135,-0.0865 0.330729,0.586 -0.242908,0.37072 -0.44165,0.73777 -0.44165,0.81565 0,0.0779 0.642249,0.1416 1.427218,0.1416 1.30874,0 1.425805,-0.0494 1.410174,-0.59532 -0.0094,-0.32742 0.209883,-1.41087 0.487238,-2.40768 l 0.504285,-1.81237 -0.620853,-0.50273 c -0.776118,-0.62847 -1.919668,-0.64562 -2.646645,-0.0397 -0.305547,0.25466 -0.966272,1.31435 -1.468277,2.35487 -0.502007,1.04052 -1.157417,2.06323 -1.456465,2.27269 -0.680402,0.47658 -0.447635,0.73026 0.670055,0.73026 0.746265,0 0.87581,-0.0994 0.948092,-0.72761 z m 1.056746,-2.73303 c 0.262734,-0.75368 0.868995,-1.26783 1.156245,-0.98058 0.3004,0.3004 -0.491284,1.79538 -0.950767,1.79538 -0.431821,0 -0.456041,-0.096 -0.205478,-0.8148 z m 5.822421,2.73303 c 0.05994,-0.52097 0.252785,-0.75161 0.679032,-0.81215 0.614148,-0.0872 0.855575,0.55392 0.330729,0.8783 -0.639876,0.39546 -0.153916,0.66146 1.208455,0.66146 1.282285,0 1.454076,-0.06 1.326616,-0.46303 -0.08053,-0.25466 0.08913,-1.23692 0.377023,-2.18281 0.287896,-0.94588 0.524357,-1.80909 0.525468,-1.91823 0.0048,-0.47011 -1.11638,-1.25677 -1.79119,-1.25677 -1.154948,0 -1.845429,0.67517 -2.962399,2.89671 -0.570497,1.13467 -1.222153,2.13398 -1.448123,2.22069 -0.774573,0.29723 -0.410829,0.70344 0.62991,0.70344 0.938688,0 1.048969,-0.0714 1.124479,-0.72761 z m 0.745178,-2.06366 c 0,-0.08 0.181652,-0.4967 0.403669,-0.92604 0.411649,-0.79604 0.922155,-1.04687 0.915636,-0.44988 -0.0095,0.86965 -0.361188,1.52135 -0.820997,1.52135 -0.274069,0 -0.498308,-0.0654 -0.498308,-0.14543 z m 9.933902,2.14183 c 0.7436,-0.7436 0.81994,-1.26093 0.25523,-1.72959 -0.34175,-0.28363 -0.30655,-0.3961 0.26459,-0.84535 0.76682,-0.60319 0.83456,-1.16993 0.2209,-1.84802 -0.3621,-0.40011 -0.84784,-0.48385 -2.806438,-0.48385 -1.865325,0 -2.339782,0.075 -2.233149,0.35284 0.155678,0.40569 -0.807011,4.15144 -1.163921,4.52872 -0.527182,0.55727 -0.129053,0.67469 2.287786,0.67469 2.328692,0 2.576192,-0.0506 3.175002,-0.64944 z m -2.950752,-0.56283 c 0.08833,-0.23018 0.1606,-0.58737 0.1606,-0.79375 0,-0.20638 0.238125,-0.37523 0.529166,-0.37523 0.596646,0 0.723076,0.75858 0.211667,1.27 -0.46927,0.46927 -1.09343,0.39932 -0.901433,-0.10102 z m 0.689766,-2.45086 c 0,-0.57028 0.340818,-1.09937 0.708166,-1.09937 0.55593,0 0.33196,1.16347 -0.245145,1.27346 -0.254661,0.0485 -0.463021,-0.0298 -0.463021,-0.17409 z m 8.986526,3.15135 c 0.67084,-1.25347 -0.2007,-1.88471 -1.11993,-0.81114 -0.46614,0.54442 -1.25201,0.7213 -1.25201,0.28181 0,-0.13605 0.12209,-0.56848 0.27131,-0.96097 0.25899,-0.6812 0.29407,-0.69299 0.77269,-0.25985 0.47547,0.43029 0.51615,0.42616 0.78703,-0.08 0.52973,-0.98982 0.17922,-2.26034 -0.37582,-1.36226 -0.30068,0.4865 -0.69928,0.27169 -0.61372,-0.33073 0.11429,-0.80472 1.16423,-0.96481 1.40257,-0.21386 0.0951,0.29952 0.34636,0.54459 0.55844,0.54459 0.42241,0 0.99571,-1.22127 0.75565,-1.60971 -0.0824,-0.1333 -1.19945,-0.24237 -2.48236,-0.24237 -2.24165,0 -2.33268,0.0232 -2.33566,0.59531 -0.004,0.83201 -0.83491,3.64953 -1.28695,4.36562 l -0.3758,0.59532 h 2.51033 c 2.21111,0 2.54299,-0.061 2.78423,-0.51178 z m 6.74531,-0.3455 c 0.19825,-0.4715 0.30454,-0.94775 0.2362,-1.05833 -0.25076,-0.40573 -0.95663,-0.18363 -1.46322,0.4604 -0.48776,0.62008 -1.27565,0.90554 -1.27565,0.46218 0,-0.52103 1.07166,-3.8636 1.34385,-4.19158 0.25851,-0.31147 0.073,-0.37164 -1.14609,-0.37164 -1.3311,0 -1.45479,0.0505 -1.45763,0.59531 -0.004,0.83201 -0.8349,3.64953 -1.28695,4.36562 l -0.3758,0.59532 h 2.53242 2.53241 z m 6.45069,0.18337 c 0.16889,-0.37065 0.30706,-0.8469 0.30706,-1.05834 0,-0.6067 -0.90577,-0.44863 -1.5875,0.27704 -1.1272,1.19984 -1.33486,0.85028 -0.74661,-1.25677 0.29455,-1.05503 0.64256,-2.03134 0.77337,-2.16959 0.48688,-0.51458 0.19997,-0.67468 -1.20908,-0.67468 -1.10248,0 -1.41444,0.0846 -1.31051,0.35544 0.16379,0.42682 -0.82836,4.12991 -1.20831,4.50986 -0.56975,0.56975 -0.18327,0.69095 2.20346,0.69095 2.39123,0 2.48099,-0.0218 2.77812,-0.67391 z m 3.12179,0.27703 c -0.24891,-0.64865 0.10863,-1.19062 0.78545,-1.19062 0.72525,0 0.80914,0.31537 0.23628,0.88824 -0.61796,0.61796 -0.49814,0.69926 1.03054,0.69926 h 1.42742 l 0.11828,-0.99219 c 0.0651,-0.54571 0.28217,-1.56271 0.48249,-2.26 0.41906,-1.45873 0.20765,-2.02539 -0.90333,-2.42129 -1.32779,-0.47315 -2.05379,0.0556 -3.25032,2.36741 -0.6022,1.16349 -1.28681,2.30402 -1.52135,2.53451 -0.64529,0.63414 -0.5277,0.77156 0.6602,0.77156 0.8572,0 1.05448,-0.0838 0.93434,-0.39688 z m 1.07501,-3.175 c 0.40164,-0.84224 1.13734,-1.28125 1.13734,-0.67868 0,0.73452 -0.56803,1.60472 -1.0475,1.60472 -0.51508,0 -0.51785,-0.0285 -0.0898,-0.92604 z m -54.376587,-7.2099 c 0.06711,-0.58328 0.236916,-0.74506 0.856099,-0.81564 0.77058,-0.0878 0.77135,-0.0865 0.330729,0.586 -0.242909,0.37073 -0.441651,0.73777 -0.441651,0.81565 0,0.0779 0.64225,0.1416 1.427219,0.1416 1.30874,0 1.425805,-0.0494 1.410173,-0.59531 -0.0094,-0.32743 0.209884,-1.41088 0.487238,-2.40769 l 0.504286,-1.81237 -0.620853,-0.50273 c -0.776118,-0.62846 -1.919669,-0.64562 -2.646646,-0.0397 -0.305546,0.25466 -0.966271,1.31435 -1.468276,2.35487 -0.502007,1.04051 -1.157417,2.06323 -1.456465,2.27269 -0.680403,0.47657 -0.447635,0.73025 0.670055,0.73025 0.746265,0 0.87581,-0.0994 0.948092,-0.72761 z m 1.056746,-2.73303 c 0.262733,-0.75367 0.868994,-1.26783 1.156245,-0.98058 0.3004,0.3004 -0.491284,1.79538 -0.950767,1.79538 -0.431822,0 -0.456042,-0.096 -0.205478,-0.8148 z m 5.659665,2.98853 c -0.08241,-0.25967 0.0077,-1.00381 0.200265,-1.65365 l 0.35011,-1.18153 0.844045,1.65364 c 0.579199,1.13476 0.998731,1.65365 1.337008,1.65365 0.726067,0 0.97232,-0.42917 1.632022,-2.84427 0.327938,-1.20055 0.696635,-2.18282 0.819327,-2.18282 0.12269,0 0.223073,-0.11906 0.223073,-0.26458 0,-0.14552 -0.429456,-0.26458 -0.954349,-0.26458 -0.77878,0 -0.923481,0.0804 -0.786559,0.43725 0.09229,0.2405 0.03125,0.851 -0.135641,1.35667 l -0.303435,0.91942 -0.695944,-1.29053 c -0.650547,-1.20633 -0.770803,-1.2959 -1.843442,-1.373 -1.010402,-0.0726 -1.129102,-0.0245 -0.993561,0.40251 0.170818,0.5382 -0.737097,3.98687 -1.161275,4.41105 -0.485931,0.48593 -0.284527,0.69288 0.674328,0.69288 0.785445,0 0.918721,-0.0792 0.794028,-0.47211 z m 10.380017,0.15461 c 0.430763,-0.43076 0.403164,-1.53459 -0.03837,-1.53459 -0.195729,0 -0.571368,0.23813 -0.834758,0.52917 -0.26339,0.29104 -0.700829,0.52917 -0.97209,0.52917 -0.40381,0 -0.461679,-0.13188 -0.319286,-0.72761 0.263059,-1.10057 0.377053,-1.19588 0.882833,-0.73816 0.525557,0.47562 0.879538,0.2118 1.13924,-0.84907 0.176787,-0.72218 -0.213466,-1.02484 -0.748681,-0.58065 -0.502854,0.41733 -0.740071,0.17707 -0.517512,-0.52416 0.221877,-0.69907 1.091727,-0.71093 1.461538,-0.0199 0.377179,0.70477 0.958469,0.67151 1.156152,-0.0661 0.3317,-1.23773 0.295714,-1.25677 -2.375085,-1.25677 -2.096662,0 -2.516394,0.0663 -2.396509,0.37875 0.161497,0.42085 -0.799473,4.10717 -1.173816,4.50281 -0.130805,0.13825 -0.237826,0.3466 -0.237826,0.46302 0,0.34944 4.617128,0.25121 4.974167,-0.10583 z m 2.831483,0.0522 c 0.109604,-0.17734 0.328311,-0.17734 0.659681,0 0.922134,0.49351 2.359038,0.3129 3.05607,-0.38413 1.111252,-1.11126 0.916495,-1.64473 -1.202651,-3.29429 -0.601255,-0.46802 -0.61809,-0.53176 -0.184975,-0.70031 0.316926,-0.12333 0.688967,0.0142 1.111017,0.41069 0.664559,0.62433 1.455208,0.56872 1.455208,-0.10234 0,-0.21095 0.06819,-0.56125 0.151538,-0.77844 0.153149,-0.3991 0.127915,-0.40306 -3.150034,-0.49487 -1.626576,-0.0456 -2.455738,2.04329 -1.201764,3.02751 1.75288,1.37579 1.756042,1.38032 1.03532,1.48239 -0.422707,0.0599 -0.809154,-0.10256 -1.100744,-0.46266 -0.638437,-0.78843 -1.192551,-0.68759 -1.529265,0.27831 -0.159758,0.45828 -0.290467,0.93453 -0.290467,1.05834 0,0.31552 0.991909,0.28204 1.191066,-0.0402 z m 8.460164,-0.28296 c -0.249497,-0.7861 0.07589,-1.83299 0.569712,-1.83299 0.33486,0 0.38706,0.18245 0.25443,0.8894 -0.20741,1.10556 0.25928,1.5609 1.47974,1.44376 0.86653,-0.0832 0.87607,-0.0987 0.78578,-1.27482 -0.0503,-0.65484 -0.20909,-1.26335 -0.35292,-1.35225 -0.14678,-0.0907 -0.0767,-0.23255 0.15984,-0.3233 0.23174,-0.0889 0.55827,-0.4622 0.72562,-0.8295 0.25268,-0.55457 0.22291,-0.75772 -0.17558,-1.19805 -0.40716,-0.4499 -0.81439,-0.53024 -2.68782,-0.53024 -2.080412,0 -2.207949,0.0327 -2.207949,0.56679 0,0.80766 -1.024729,4.14371 -1.330949,4.33296 -0.647986,0.40048 -0.121994,0.6565 1.348779,0.6565 1.503561,0 1.594299,-0.0348 1.431317,-0.54826 z m 0.506922,-3.04526 c 0.0883,-0.23018 0.1606,-0.58737 0.1606,-0.79375 0,-0.20637 0.17859,-0.37523 0.39687,-0.37523 0.47477,0 0.52622,0.82316 0.0794,1.27 -0.45213,0.45213 -0.82634,0.39277 -0.63685,-0.10102 z m 5.76542,2.86591 c 0.0671,-0.58328 0.23692,-0.74506 0.8561,-0.81564 0.77058,-0.0878 0.77135,-0.0865 0.33073,0.586 -0.24291,0.37073 -0.44165,0.73777 -0.44165,0.81565 0,0.0779 0.64225,0.1416 1.42722,0.1416 1.30874,0 1.4258,-0.0494 1.41017,-0.59531 -0.009,-0.32743 0.20988,-1.41088 0.48724,-2.40769 l 0.50428,-1.81237 -0.62085,-0.50273 c -0.77612,-0.62846 -1.91967,-0.64562 -2.64665,-0.0397 -0.30554,0.25466 -0.96627,1.31435 -1.46827,2.35487 -0.50201,1.04051 -1.15742,2.06323 -1.45647,2.27269 -0.6804,0.47657 -0.44763,0.73025 0.67006,0.73025 0.74626,0 0.87581,-0.0994 0.94809,-0.72761 z m 1.05675,-2.73303 c 0.26273,-0.75367 0.86899,-1.26783 1.15624,-0.98058 0.3004,0.3004 -0.49128,1.79538 -0.95077,1.79538 -0.43182,0 -0.45604,-0.096 -0.20547,-0.8148 z m 6.75304,2.55252 c 0.0336,-1.18372 0.23509,-1.47313 1.02584,-1.47313 0.57524,0 0.63095,0.0846 0.47939,0.7276 -0.0943,0.40018 -0.27519,0.84072 -0.40192,0.97896 -0.48694,0.53118 -0.18201,0.69949 1.12753,0.62237 1.29754,-0.0764 1.36087,-0.11528 1.42373,-0.87372 0.0917,-1.1056 0.90554,-3.79476 1.20442,-3.97948 0.62436,-0.38587 0.12117,-0.65073 -1.23628,-0.65073 -1.19736,0 -1.45469,0.0751 -1.33409,0.38942 0.0822,0.21418 0.0238,0.74996 -0.12986,1.19062 -0.21089,0.60497 -0.442,0.80121 -0.94356,0.80121 -0.59228,0 -0.64459,-0.0788 -0.48267,-0.72761 0.0999,-0.40018 0.36936,-0.93596 0.59885,-1.19062 0.39291,-0.43599 0.32269,-0.46302 -1.20293,-0.46302 -1.28921,0 -1.59082,0.0766 -1.47635,0.37487 0.17363,0.45248 -0.6177,3.49246 -1.1225,4.31217 -0.19849,0.32231 -0.36088,0.64973 -0.36088,0.72761 0,0.0779 0.63125,0.1416 1.40277,0.1416 h 1.40277 l 0.0258,-0.90812 z"
         id="path1229" />
      <path
         style="fill:#6f706f;stroke-width:0.264583"
         d="m 100.89497,118.93228 c 0.002,-0.87312 0.0509,-1.19841 0.10976,-0.72286 0.0589,0.47555 0.0577,1.18992 -0.003,1.5875 -0.0604,0.39757 -0.10855,0.008 -0.10706,-0.86464 z m 19.07315,-2.24896 c 0,-2.11005 0.0411,-2.97325 0.0913,-1.91822 0.0502,1.05502 0.0502,2.78143 0,3.83645 -0.0502,1.05503 -0.0913,0.19183 -0.0913,-1.91823 z m -46.341077,2.19175 c 0.400182,-0.0606 1.055026,-0.0606 1.455208,0 0.400183,0.0606 0.07276,0.11022 -0.727604,0.11022 -0.800364,0 -1.127786,-0.0496 -0.727604,-0.11022 z m 5.673551,0.018 c 0.440994,-0.0957 0.607374,-0.36019 0.693004,-1.10167 l 0.112686,-0.97575 -0.03155,1.05833 c -0.02777,0.93159 -0.11076,1.06353 -0.693004,1.10167 -0.553406,0.0363 -0.566658,0.0228 -0.08114,-0.0826 z m 16.485304,0.0701 c 0,-0.0558 0.294052,-0.15766 0.653452,-0.22637 0.359397,-0.0687 0.590497,-0.023 0.513551,0.10145 -0.135488,0.21923 -1.167003,0.32964 -1.167003,0.12492 z M 67.811245,115.9708 c 0.257431,-0.0671 0.614619,-0.0627 0.79375,0.01 0.17913,0.0725 -0.03149,0.12736 -0.468056,0.12197 -0.436563,-0.005 -0.583126,-0.0647 -0.325694,-0.13177 z m 2.659337,-1.40414 c 0,-0.94589 0.04802,-1.33284 0.106715,-0.8599 0.05869,0.47294 0.05869,1.24685 0,1.71979 -0.05869,0.47295 -0.106715,0.086 -0.106715,-0.85989 z m 30.449698,1.22089 c -0.0774,-0.20163 -0.0944,-0.88624 -0.0379,-1.52135 l 0.10277,-1.15475 0.0462,1.37066 c 0.0402,1.19325 0.12328,1.3855 0.64154,1.48532 l 0.59531,0.11467 -0.60362,0.036 c -0.33199,0.0198 -0.66692,-0.12895 -0.74429,-0.33058 z m 1.47537,-1.40655 c -0.0701,-0.75695 -0.0305,-1.27914 0.0879,-1.16042 0.11847,0.11872 0.17583,0.73804 0.12746,1.37628 l -0.0879,1.16042 z m -22.531187,-0.6943 c -0.09844,-0.48282 -0.06156,-0.65679 0.104103,-0.49112 0.141097,0.14109 0.209695,0.47754 0.15244,0.74766 -0.0771,0.36376 -0.143637,0.29722 -0.256543,-0.25654 z m 37.129877,-1.23671 c 0,-0.3638 0.0601,-0.51263 0.13345,-0.33073 0.0734,0.1819 0.0734,0.47956 0,0.66146 -0.0734,0.1819 -0.13345,0.0331 -0.13345,-0.33073 z m -30.535005,-3.08564 c 0.181901,-0.0734 0.479557,-0.0734 0.661458,0 0.181901,0.0734 0.03307,0.13345 -0.330729,0.13345 -0.363802,0 -0.51263,-0.0601 -0.330729,-0.13345 z m -4.696354,-0.60676 c 3.56884,-0.14394 3.571941,-0.14462 3.649522,-0.80552 0.06137,-0.52284 0.02064,-0.57829 -0.194387,-0.26458 -0.214063,0.3123 -0.272031,0.22773 -0.272031,-0.39687 0,-0.63304 0.05694,-0.7134 0.281244,-0.39688 0.220255,0.31081 0.256355,0.24082 0.166463,-0.32272 -0.07155,-0.44853 -0.01257,-0.65643 0.15654,-0.55191 0.164447,0.10163 0.205254,-0.004 0.103593,-0.26942 -0.103421,-0.2695 -0.04457,-0.41296 0.153474,-0.37413 0.176662,0.0346 0.304885,-0.14411 0.284932,-0.3972 -0.02064,-0.2617 0.08436,-0.38562 0.243401,-0.28733 0.175998,0.10877 0.215088,0.005 0.10545,-0.28117 -0.09582,-0.24971 -0.07573,-0.39315 0.04466,-0.31874 0.297715,0.18399 1.437963,-1.8884 1.226905,-2.22991 -0.09254,-0.14973 -0.01058,-0.23953 0.182134,-0.19955 0.193794,0.0402 0.334185,-0.13296 0.314121,-0.38747 -0.02064,-0.2617 0.08436,-0.38562 0.243401,-0.28732 0.175998,0.10877 0.215088,0.005 0.10545,-0.28118 -0.117412,-0.30596 -0.07427,-0.39224 0.132291,-0.26458 0.206566,0.12766 0.249703,0.0414 0.132292,-0.26458 -0.117412,-0.305971 -0.07427,-0.392249 0.132292,-0.264585 0.206565,0.127665 0.249703,0.04138 0.132291,-0.264584 -0.09841,-0.256458 -0.06619,-0.387252 0.07406,-0.300577 0.330028,0.203967 0.879639,-0.847844 0.643059,-1.230643 -0.122158,-0.197652 -0.06586,-0.226111 0.165018,-0.08342 0.256569,0.158567 0.303763,0.09497 0.176202,-0.237445 -0.117412,-0.30597 -0.07427,-0.392248 0.132291,-0.264583 0.206566,0.127661 0.249704,0.04138 0.132292,-0.264584 -0.117411,-0.305969 -0.07427,-0.392247 0.132292,-0.264583 0.206565,0.127661 0.249703,0.04138 0.132291,-0.264583 -0.117411,-0.30597 -0.07427,-0.392248 0.132292,-0.264584 0.206566,0.127662 0.249703,0.04138 0.132292,-0.264583 -0.117412,-0.30597 -0.07427,-0.392248 0.132291,-0.264583 0.206566,0.127661 0.249704,0.04138 0.132292,-0.264584 -0.09841,-0.256458 -0.06619,-0.387252 0.07405,-0.300577 0.330028,0.203967 0.879639,-0.847844 0.643059,-1.230643 -0.122158,-0.197652 -0.06586,-0.226111 0.165018,-0.08342 0.25657,0.158567 0.303763,0.09497 0.176202,-0.237445 -0.09582,-0.249711 -0.07992,-0.39574 0.03534,-0.324506 0.315428,0.194945 1.972464,-2.973867 1.795817,-3.434202 -0.08431,-0.219715 -0.04807,-0.334449 0.08053,-0.254966 0.300784,0.185896 0.610285,-0.605433 0.381548,-0.975537 -0.110527,-0.178837 -0.04616,-0.20256 0.176395,-0.06501 0.256569,0.158567 0.303763,0.09497 0.176202,-0.237445 -0.117412,-0.305969 -0.07427,-0.392247 0.132291,-0.264583 0.206566,0.127661 0.249704,0.04138 0.132292,-0.264584 -0.117411,-0.305969 -0.07427,-0.392247 0.132292,-0.264583 0.200829,0.124119 0.251714,0.04663 0.147582,-0.224742 -0.180237,-0.469683 0.17907,-0.466461 1.043802,0.0094 0.317855,0.174903 0.764339,0.318005 0.992188,0.318005 0.574532,0 0.529259,0.243094 -0.39052,2.096921 -0.442632,0.892133 -0.721892,1.756185 -0.620578,1.920116 0.120934,0.195672 0.06384,0.223663 -0.166216,0.08148 -0.256569,-0.158568 -0.303763,-0.09497 -0.176202,0.237445 0.117411,0.305969 0.07427,0.392247 -0.132292,0.264583 -0.206565,-0.127661 -0.249703,-0.04138 -0.132291,0.264584 0.103886,0.270721 0.06818,0.388485 -0.08843,0.291692 -0.326639,-0.201874 -2.710405,4.865841 -2.52099,5.359448 0.08579,0.223562 0.02212,0.28762 -0.168703,0.169693 -0.206566,-0.127661 -0.249704,-0.04138 -0.132292,0.264583 0.117411,0.30597 0.07427,0.392248 -0.132292,0.264584 -0.206565,-0.127662 -0.249703,-0.04138 -0.132291,0.264583 0.117411,0.30597 0.07427,0.392248 -0.132292,0.264583 -0.206566,-0.127661 -0.249703,-0.04138 -0.132292,0.264584 0.117412,0.30597 0.07427,0.39225 -0.132291,0.26458 -0.206566,-0.127658 -0.249704,-0.0414 -0.132292,0.26459 0.09603,0.25025 0.06539,0.38675 -0.06828,0.30414 -0.314497,-0.19437 -0.6374,0.81747 -0.389091,1.21924 0.108548,0.17564 0.07569,0.23703 -0.07652,0.14296 -0.331351,-0.20479 -0.945377,1.07539 -0.703511,1.46673 0.112567,0.18214 0.05075,0.2079 -0.170609,0.0711 -0.258617,-0.15984 -0.309068,-0.069 -0.197845,0.35636 0.09662,0.36946 0.04878,0.50878 -0.135577,0.39484 -0.181915,-0.11243 -0.221904,-0.012 -0.110647,0.27796 0.117412,0.30597 0.07427,0.39225 -0.132291,0.26458 -0.206566,-0.12766 -0.249703,-0.0414 -0.132292,0.26459 0.103487,0.26968 0.06803,0.38839 -0.08733,0.29237 -0.238591,-0.14746 -0.363686,0.27446 -0.333108,1.1235 0.0065,0.18034 -0.114043,0.2501 -0.267864,0.15504 -0.175998,-0.10877 -0.215088,-0.005 -0.10545,0.28117 0.103487,0.26968 0.06803,0.38839 -0.08733,0.29237 -0.271285,-0.16766 -0.287751,-0.13108 -0.391912,0.87062 l -0.06283,0.60417 6.446795,-0.075 c 3.545737,-0.0413 6.446707,0.0143 6.446587,0.12344 -1.1e-4,0.10914 -2.989498,0.19844 -6.64309,0.19844 -5.886683,0 -6.625006,-0.0466 -6.485774,-0.40944 0.141801,-0.36953 0.100137,-0.36953 -0.427439,0 -0.697069,0.48825 -1.823951,0.53397 -2.26598,0.0919 -0.246943,-0.24695 -0.3175,-0.24695 -0.3175,0 0,0.23419 -0.954627,0.30323 -3.63802,0.26311 l -3.638021,-0.0544 z m 22.344659,-0.2102 c 0.14134,-0.37125 0.11024,-0.39747 -0.1569,-0.1323 -0.18325,0.18191 -0.70227,0.33073 -1.15338,0.33073 -0.45112,0 -0.96904,-0.14882 -1.15094,-0.33073 -0.1819,-0.1819 -0.47361,-0.33613 -0.64823,-0.34275 -0.17463,-0.007 -0.28531,-0.16273 -0.24596,-0.34692 0.0963,-0.45084 -0.774864,-1.89537 -1.043098,-1.72959 -0.117153,0.0724 -0.134605,-0.0727 -0.03878,-0.32238 0.117411,-0.30596 0.07427,-0.39224 -0.132292,-0.26458 -0.206563,0.12766 -0.249703,0.0414 -0.132291,-0.26458 0.117411,-0.30597 0.07427,-0.39225 -0.132292,-0.26459 -0.206563,0.12767 -0.249703,0.0414 -0.132292,-0.26458 0.117412,-0.30597 0.07427,-0.39224 -0.132291,-0.26458 -0.206563,0.12766 -0.249704,0.0414 -0.132292,-0.26459 0.127561,-0.33241 0.08037,-0.39601 -0.176202,-0.23744 -0.221477,0.13688 -0.286893,0.11377 -0.177771,-0.0628 0.193868,-0.31368 -0.975212,-2.53405 -1.210405,-2.29886 -0.08277,0.0828 -0.132631,-0.0658 -0.110802,-0.33017 0.02183,-0.26436 -0.104857,-0.45232 -0.28152,-0.41769 -0.198046,0.0388 -0.256894,-0.10462 -0.153474,-0.37413 0.111773,-0.29128 0.06547,-0.373902 -0.138784,-0.24767 -0.206563,0.12767 -0.249704,0.0414 -0.132292,-0.26458 0.109638,-0.285711 0.07055,-0.389943 -0.10545,-0.281173 -0.159046,0.0983 -0.264028,-0.02564 -0.243401,-0.287324 0.01995,-0.253095 -0.10827,-0.431837 -0.284932,-0.397203 -0.198046,0.03883 -0.256895,-0.104627 -0.153474,-0.374132 0.111773,-0.29128 0.06547,-0.373904 -0.138785,-0.247668 -0.206563,0.127664 -0.249703,0.04139 -0.132292,-0.264584 0.109639,-0.28571 0.07055,-0.389943 -0.105449,-0.281172 -0.159047,0.0983 -0.264028,-0.02564 -0.243401,-0.287325 0.01995,-0.253095 -0.10827,-0.431837 -0.284932,-0.397203 -0.20233,0.03967 -0.257437,-0.107214 -0.1489,-0.396875 0.14637,-0.390625 0.109556,-0.408876 -0.244557,-0.121242 -0.235164,0.191013 -0.05494,-0.354717 0.413483,-1.252035 0.831294,-1.592456 1.455237,-2.211009 1.392775,-1.38075 -0.01828,0.243155 0.111283,0.413761 0.287946,0.379127 0.176664,-0.03464 0.257844,0.102151 0.1804,0.303967 -0.07744,0.201813 0.0048,0.456909 0.182693,0.566872 0.220498,0.136274 0.255346,0.08966 0.10945,-0.14641 -0.142701,-0.230896 -0.110792,-0.282524 0.09573,-0.154889 0.170378,0.105299 0.2428,0.299828 0.160938,0.432287 -0.199266,0.322418 0.371782,1.361736 0.65278,1.188069 0.12179,-0.07527 0.205113,0.07022 0.185163,0.323318 -0.01995,0.253095 0.09855,0.435078 0.263327,0.404405 0.164783,-0.03068 0.283845,0.147918 0.264583,0.396875 -0.01926,0.248954 0.0998,0.427548 0.264584,0.396875 0.164782,-0.03068 0.283845,0.147918 0.264583,0.396875 -0.01926,0.248954 0.0998,0.427548 0.264583,0.396875 0.164783,-0.03068 0.283845,0.147918 0.264584,0.396875 -0.01926,0.248954 0.109527,0.424307 0.286189,0.389673 0.17667,-0.03464 0.25785,0.10215 0.1804,0.303967 -0.0774,0.201815 0.005,0.456905 0.1827,0.566875 0.22444,0.13871 0.25749,0.0862 0.10791,-0.17168 -0.12561,-0.2165 -0.11647,-0.280985 0.0219,-0.1545 0.13061,0.11942 0.239,0.41707 0.24086,0.66146 0.002,0.24439 0.13819,0.41925 0.30297,0.38858 0.16478,-0.0307 0.28384,0.14792 0.26458,0.39688 -0.0193,0.24895 0.12266,0.41992 0.31538,0.37994 0.19272,-0.04 0.27707,0.046 0.18744,0.19096 -0.22761,0.36828 0.64924,1.63496 0.98719,1.42609 0.15209,-0.094 0.20241,-0.051 0.11183,0.0956 -0.0906,0.14657 0.0189,0.49239 0.24333,0.76849 0.22441,0.2761 0.32057,0.3234 0.21368,0.10512 -0.11233,-0.22941 -0.0941,-0.30526 0.0432,-0.17976 0.13062,0.11941 0.239,0.41707 0.24086,0.66146 0.002,0.24439 0.14792,0.41601 0.32458,0.38137 0.19805,-0.0388 0.2569,0.10463 0.15348,0.37413 -0.0923,0.24041 -0.0582,0.36929 0.0757,0.28641 0.13774,-0.0853 0.22804,0.44147 0.20801,1.21337 l -0.0354,1.36406 2.15206,0.14915 2.15206,0.14914 -2.34341,0.0493 c -2.13343,0.0449 -2.32762,0.008 -2.16714,-0.41373 z m 0.45128,-1.38907 c 0,-0.3638 0.0601,-0.51263 0.13346,-0.33073 0.0734,0.18191 0.0734,0.47956 0,0.66146 -0.0734,0.1819 -0.13346,0.0331 -0.13346,-0.33073 z m -26.163461,-1.05833 c 0,-0.65484 0.0516,-0.92273 0.114663,-0.59531 0.06307,0.32742 0.06307,0.8632 0,1.19062 -0.06306,0.32743 -0.114663,0.0595 -0.114663,-0.59531 z m -0.539845,0 c 0,-0.50932 0.05445,-0.71768 0.121002,-0.46302 0.06655,0.25466 0.06655,0.67138 0,0.92604 -0.06655,0.25466 -0.121002,0.0463 -0.121002,-0.46302 z m 30.432426,-1.19062 c 0.003,-0.58209 0.0571,-0.78906 0.1204,-0.45994 0.0633,0.32912 0.0609,0.80537 -0.005,1.05833 -0.0662,0.25297 -0.118,-0.0163 -0.11507,-0.59839 z m 0.52382,0.13229 c 0,-0.50933 0.0545,-0.71768 0.12101,-0.46302 0.0665,0.25466 0.0665,0.67138 0,0.92604 -0.0665,0.25466 -0.12101,0.0463 -0.12101,-0.46302 z m -27.974921,-2.55875 c 3.190399,-0.192 6.687865,-0.20314 6.574515,-0.0209 -0.0679,0.10914 -1.872599,0.17641 -4.010443,0.1495 -2.137844,-0.0269 -3.291676,-0.0848 -2.564072,-0.12856 z m 12.115692,-0.019 c 0.988317,-0.051 2.536129,-0.0507 3.439583,8e-4 0.903452,0.0515 0.09483,0.0933 -1.796941,0.0928 -1.891771,-5.3e-4 -2.630961,-0.0426 -1.642642,-0.0936 z m 11.555509,0.004 c 1.55866,-0.058 2.59048,-0.21411 2.73212,-0.41329 0.16207,-0.2279 0.19657,-0.20578 0.11985,0.0768 -0.0862,0.3174 -0.63328,0.40016 -2.73212,0.41329 l -2.62438,0.0164 z M 79.718376,99.749991 c 0,-0.654844 0.0516,-0.922735 0.114662,-0.595313 0.06307,0.327422 0.06307,0.863202 0,1.190622 -0.06306,0.32742 -0.114662,0.0595 -0.114662,-0.595309 z m -0.559454,0 c 0,-0.363803 0.06005,-0.512631 0.133454,-0.33073 0.0734,0.181901 0.0734,0.479558 0,0.661459 -0.0734,0.1819 -0.133454,0.0331 -0.133454,-0.330729 z m 27.806198,-0.926042 c 0.003,-0.582084 0.0571,-0.789054 0.12041,-0.459936 0.0633,0.329118 0.0609,0.805368 -0.005,1.058333 -0.0662,0.252966 -0.118,-0.01632 -0.11506,-0.598397 z m 0.51403,0 c 0.005,-0.436563 0.0647,-0.583126 0.13177,-0.325694 0.0671,0.257431 0.0627,0.614619 -0.01,0.79375 -0.0725,0.179131 -0.12736,-0.03149 -0.12197,-0.468056 z m -27.50153,-3.175 c 0.0029,-0.582084 0.05712,-0.789054 0.120407,-0.459936 0.06328,0.329118 0.06088,0.805368 -0.0053,1.058333 -0.06622,0.252966 -0.118004,-0.01632 -0.115067,-0.598397 z m -0.554114,-0.132292 c 0,-0.363802 0.06005,-0.51263 0.133453,-0.330729 0.0734,0.181901 0.0734,0.479557 0,0.661458 -0.0734,0.181901 -0.133453,0.03307 -0.133453,-0.330729 z m 27.282374,-0.79375 c 0,-0.654844 0.0516,-0.922734 0.11466,-0.595312 0.0631,0.327421 0.0631,0.863203 0,1.190625 -0.0631,0.327421 -0.11466,0.05953 -0.11466,-0.595313 z m 0.49888,0 c 0,-0.363802 0.0601,-0.51263 0.13345,-0.330729 0.0734,0.181901 0.0734,0.479557 0,0.661458 -0.0734,0.181901 -0.13345,0.03307 -0.13345,-0.330729 z M 78.009205,92.690084 c 0.190994,-0.07643 0.419197,-0.06703 0.507119,0.02088 0.08792,0.08792 -0.06835,0.150452 -0.347266,0.138964 -0.308226,-0.0127 -0.37092,-0.07539 -0.159853,-0.15985 z m 3.439583,0 c 0.190995,-0.07643 0.419198,-0.06703 0.507119,0.02088 0.08792,0.08792 -0.06835,0.150452 -0.347266,0.138964 -0.308226,-0.0127 -0.370919,-0.07539 -0.159853,-0.15985 z m 23.547922,0 c 0.19099,-0.07643 0.4192,-0.06703 0.50711,0.02088 0.0879,0.08792 -0.0684,0.150452 -0.34726,0.138964 -0.30823,-0.0127 -0.37092,-0.07539 -0.15985,-0.15985 z M 91.992701,92.19203 c 0.06881,-0.179308 -0.02048,-0.415986 -0.198395,-0.52595 -0.220498,-0.136273 -0.255347,-0.08966 -0.10945,0.14641 0.138634,0.224314 0.110498,0.282345 -0.07986,0.164698 -0.161649,-0.0999 -0.219342,-0.375957 -0.128209,-0.61345 0.119661,-0.31183 0.06834,-0.371631 -0.184727,-0.21523 -0.23297,0.143983 -0.287244,0.114347 -0.161927,-0.08842 0.103677,-0.167748 0.01572,-0.551685 -0.195466,-0.853189 -0.277985,-0.396877 -0.420889,-0.451778 -0.517727,-0.198903 -0.07356,0.192109 -0.105124,0.01418 -0.07013,-0.395404 0.04257,-0.498289 0.318249,-0.899541 0.833154,-1.212675 0.790533,-0.480751 1.778704,-0.640244 1.536256,-0.247957 -0.157057,0.254122 0.538377,1.341136 0.733303,1.146212 0.322789,-0.322789 0.01143,1.674395 -0.374803,2.404078 -0.405794,0.766654 -1.352754,1.195303 -1.082022,0.489784 z M 78.129995,92.1583 c 0.257431,-0.06708 0.614619,-0.06267 0.79375,0.0098 0.179131,0.07248 -0.03149,0.127363 -0.468056,0.121971 -0.436563,-0.0054 -0.583126,-0.06469 -0.325694,-0.131773 z m 2.26046,0.0026 c 0.190994,-0.07643 0.419198,-0.06703 0.507119,0.02088 0.08792,0.08792 -0.06835,0.150453 -0.347266,0.138964 -0.308226,-0.0127 -0.370919,-0.07539 -0.159853,-0.15985 z m 25.648045,0.0055 c 0.1819,-0.0734 0.47956,-0.0734 0.66146,0 0.1819,0.0734 0.0331,0.133453 -0.33073,0.133453 -0.3638,0 -0.51263,-0.06005 -0.33073,-0.133453 z m 2.11667,0 c 0.1819,-0.0734 0.47956,-0.0734 0.66146,0 0.1819,0.0734 0.0331,0.133453 -0.33073,0.133453 -0.3638,0 -0.51263,-0.06005 -0.33073,-0.133453 z M 71.41048,89.761969 c -0.329107,-0.419645 -0.319749,-0.429003 0.0999,-0.0999 0.254662,0.199721 0.463021,0.40808 0.463021,0.463021 0,0.217763 -0.217273,0.0776 -0.562917,-0.363125 z m 17.016286,-0.732311 c -0.482261,-0.209481 -1.012484,-0.353647 -1.178266,-0.320373 -0.165785,0.03327 -0.318619,-0.118097 -0.339633,-0.336378 -0.09427,-0.979316 -0.132389,-1.081167 -0.353515,-0.944504 -0.12909,0.07978 -0.218387,-0.06202 -0.198437,-0.315114 0.01995,-0.253095 -0.10827,-0.431837 -0.284933,-0.397203 -0.198046,0.03883 -0.256894,-0.104627 -0.153474,-0.374131 0.111773,-0.29128 0.06547,-0.373904 -0.138784,-0.247669 -0.206563,0.127664 -0.249704,0.04139 -0.132292,-0.264583 0.117411,-0.305967 0.07427,-0.392245 -0.132292,-0.264584 -0.206563,0.127664 -0.249703,0.04139 -0.132291,-0.264583 0.109638,-0.28571 0.07055,-0.389943 -0.10545,-0.281173 -0.159046,0.0983 -0.264028,-0.02564 -0.243401,-0.287324 0.01995,-0.253095 -0.10827,-0.431837 -0.284932,-0.397203 -0.198046,0.03883 -0.256895,-0.104627 -0.153475,-0.374131 0.111774,-0.29128 0.06547,-0.373904 -0.138784,-0.247669 -0.206563,0.127664 -0.249703,0.04139 -0.132292,-0.264583 0.109638,-0.285711 0.07055,-0.389943 -0.105449,-0.281173 -0.159047,0.0983 -0.264028,-0.02564 -0.243401,-0.287324 0.01995,-0.253095 -0.10827,-0.431837 -0.284933,-0.397203 -0.198046,0.03883 -0.256894,-0.104627 -0.153474,-0.374132 0.111773,-0.29128 0.06547,-0.373904 -0.138784,-0.247668 -0.206563,0.127664 -0.249704,0.04139 -0.132292,-0.264584 0.127561,-0.332417 0.08037,-0.396012 -0.176202,-0.237445 -0.230881,0.142693 -0.287176,0.114234 -0.165018,-0.08342 0.23658,-0.382799 -0.313031,-1.43461 -0.643059,-1.230643 -0.140243,0.08667 -0.172466,-0.04412 -0.07406,-0.300577 0.09641,-0.251235 0.06551,-0.386832 -0.06918,-0.303591 -0.133871,0.08274 -0.243401,-0.116012 -0.243401,-0.441665 0,-0.325653 0.132292,-0.592096 0.293982,-0.592096 0.161689,0 0.280752,0.188516 0.264583,0.418924 -0.01617,0.230408 0.115147,0.390587 0.291809,0.355953 0.188971,-0.03705 0.257302,0.103566 0.165978,0.341548 -0.09834,0.256257 -0.02212,0.376311 0.20796,0.327554 0.225557,-0.0478 0.331417,0.108559 0.279347,0.412607 -0.04611,0.269267 0.02974,0.419375 0.168564,0.333576 0.138824,-0.0858 0.236085,0.05108 0.216135,0.304178 -0.01995,0.253096 0.10827,0.431838 0.284933,0.397204 0.198045,-0.03883 0.256894,0.104626 0.153474,0.374131 -0.114139,0.297442 -0.06673,0.374682 0.14837,0.241744 0.173855,-0.107449 0.299051,-0.09722 0.278215,0.02273 -0.08909,0.512861 0.04212,0.90007 0.259487,0.765733 0.129091,-0.07978 0.218387,0.06202 0.198438,0.315114 -0.01995,0.253095 0.10827,0.431837 0.284932,0.397203 0.198046,-0.03883 0.256895,0.104627 0.153474,0.374131 -0.104288,0.271775 -0.06195,0.371727 0.111943,0.264258 0.159046,-0.0983 0.264028,0.02564 0.243401,0.287325 -0.01995,0.253095 0.10827,0.431837 0.284932,0.397203 0.176665,-0.03464 0.257845,0.10215 0.180401,0.303966 -0.07744,0.201814 0.0048,0.456909 0.182692,0.566873 0.220499,0.136273 0.255347,0.08966 0.10945,-0.14641 -0.1427,-0.230897 -0.110791,-0.282525 0.09573,-0.15489 0.170378,0.105299 0.238056,0.307504 0.150394,0.449345 -0.08766,0.14184 -0.0155,0.431271 0.160372,0.643175 0.354809,0.427519 1.174287,0.537935 0.918297,0.123733 -0.09269,-0.149982 0.01352,-0.194337 0.248968,-0.103984 0.260493,0.09996 0.410618,0.01003 0.410618,-0.245973 0,-0.653677 -0.30162,-1.248912 -0.553861,-1.09302 -0.128606,0.07948 -0.155427,-0.0598 -0.0596,-0.309507 0.117411,-0.305967 0.07427,-0.392245 -0.132292,-0.264583 -0.206563,0.127664 -0.249703,0.04139 -0.132291,-0.264584 0.117411,-0.305966 0.07427,-0.392244 -0.132292,-0.264583 -0.206563,0.127664 -0.249703,0.04139 -0.132292,-0.264583 0.127561,-0.332417 0.08037,-0.396013 -0.176202,-0.237445 -0.232971,0.143983 -0.287245,0.114347 -0.161927,-0.08842 0.222416,-0.359873 -0.464167,-1.447803 -0.739767,-1.172205 -0.103778,0.10378 -0.102632,-0.03557 0.0026,-0.309671 0.132186,-0.344474 0.09659,-0.439864 -0.115278,-0.308922 -0.206563,0.127664 -0.249704,0.04139 -0.132292,-0.264583 0.117411,-0.305967 0.07427,-0.392245 -0.132292,-0.264584 -0.206563,0.127664 -0.249703,0.04139 -0.132292,-0.264583 0.127561,-0.332417 0.08037,-0.396012 -0.176201,-0.237445 -0.230881,0.142692 -0.287177,0.114234 -0.165018,-0.08342 0.236579,-0.382799 -0.313032,-1.434611 -0.64306,-1.230643 -0.140242,0.08667 -0.172466,-0.04412 -0.07405,-0.300577 0.117412,-0.305968 0.07427,-0.392246 -0.132292,-0.264583 -0.206562,0.127664 -0.249703,0.04138 -0.132291,-0.264583 0.117411,-0.305969 0.07427,-0.392247 -0.132292,-0.264584 -0.206563,0.127664 -0.249703,0.04139 -0.132292,-0.264583 0.104881,-0.273315 0.06857,-0.388724 -0.09122,-0.289964 -0.145997,0.09023 -0.265451,-0.0074 -0.265451,-0.216979 0,-0.307222 0.07622,-0.317781 0.393444,-0.05451 0.216394,0.17959 0.464441,0.32301 0.551214,0.318709 0.08678,-0.0043 0.122357,0.146412 0.07907,0.334916 -0.04329,0.188504 0.07021,0.311085 0.252225,0.272402 0.182012,-0.03868 0.336494,0.167793 0.343289,0.458835 0.0068,0.291041 0.147179,0.504071 0.311959,0.473398 0.164783,-0.03068 0.283845,0.147918 0.264584,0.396875 -0.01926,0.248954 0.122661,0.419928 0.315378,0.379941 0.192717,-0.03998 0.285829,0.03177 0.206912,0.159459 -0.07891,0.127688 0.04013,0.45806 0.264538,0.734161 0.224412,0.276101 0.321265,0.334775 0.215228,0.130389 -0.12365,-0.238339 -0.08739,-0.306464 0.101116,-0.189963 0.16165,0.0999 0.23146,0.344382 0.155133,0.543283 -0.07632,0.198903 0.0068,0.451612 0.184727,0.561575 0.224446,0.138713 0.25749,0.08615 0.10791,-0.171675 -0.125603,-0.216498 -0.116464,-0.280987 0.02188,-0.154498 0.130614,0.119412 0.239001,0.417068 0.240858,0.661458 0.0019,0.244391 0.138195,0.419251 0.302975,0.388578 0.164782,-0.03068 0.283845,0.147918 0.264583,0.396875 -0.01926,0.248954 0.122661,0.419928 0.315378,0.379942 0.192717,-0.03998 0.283636,0.03532 0.202041,0.167341 -0.194823,0.31523 0.842098,1.625153 1.286455,1.625153 0.680156,0 1.042929,-0.752587 0.712425,-1.477963 -0.167534,-0.367699 -0.421802,-0.596114 -0.565036,-0.50759 -0.154078,0.09523 -0.189281,-0.02445 -0.0862,-0.293068 0.109638,-0.285711 0.07055,-0.389943 -0.10545,-0.281173 -0.159046,0.0983 -0.264028,-0.02564 -0.243401,-0.287324 0.01995,-0.253095 -0.10827,-0.431837 -0.284932,-0.397203 -0.198046,0.03883 -0.256895,-0.104627 -0.153474,-0.374132 0.114138,-0.297442 0.06673,-0.374682 -0.148371,-0.241744 -0.173855,0.10745 -0.29905,0.09722 -0.278215,-0.02273 0.08909,-0.51286 -0.04212,-0.90007 -0.259487,-0.765733 -0.12909,0.07978 -0.218387,-0.06202 -0.198437,-0.315114 0.01995,-0.253095 -0.108271,-0.431837 -0.284933,-0.397203 -0.198046,0.03883 -0.256894,-0.104627 -0.153474,-0.374131 0.104288,-0.271775 0.06195,-0.371728 -0.111943,-0.264258 -0.159046,0.0983 -0.264027,-0.02564 -0.243401,-0.287325 0.01995,-0.253095 -0.09855,-0.435077 -0.263326,-0.404403 -0.164783,0.03067 -0.283845,-0.14792 -0.264583,-0.396875 0.01926,-0.248955 -0.109527,-0.424308 -0.28619,-0.389673 -0.198046,0.03883 -0.256894,-0.104629 -0.153474,-0.374133 0.104288,-0.271775 0.06195,-0.371727 -0.111942,-0.264257 -0.159047,0.0983 -0.264028,-0.02563 -0.243401,-0.287326 0.01995,-0.253095 -0.09271,-0.437022 -0.250357,-0.408726 -0.157649,0.02829 -0.286634,-0.109181 -0.286634,-0.305504 0,-0.208309 0.164979,-0.293642 0.396182,-0.204921 0.285562,0.109581 0.335283,0.04713 0.178067,-0.223663 -0.129341,-0.222783 -0.120083,-0.285953 0.02276,-0.155206 0.132471,0.121267 0.255741,0.329627 0.273931,0.46302 0.01818,0.133395 0.04796,0.361598 0.06614,0.507119 0.01818,0.14552 0.181902,0.234817 0.363803,0.198437 0.185811,-0.03716 0.29624,0.138575 0.252023,0.401062 -0.04449,0.264121 0.06514,0.436635 0.252225,0.396875 0.182012,-0.03868 0.336494,0.167792 0.343289,0.458834 0.0068,0.291042 0.14718,0.50407 0.311959,0.473397 0.164783,-0.03067 0.283845,0.14792 0.264584,0.396875 -0.01926,0.248954 0.0998,0.427549 0.264583,0.396876 0.164783,-0.03068 0.283845,0.147918 0.264583,0.396875 -0.01926,0.248954 0.0998,0.427548 0.264584,0.396875 0.164782,-0.03068 0.283845,0.147918 0.264583,0.396875 -0.01926,0.248954 0.122661,0.419928 0.315378,0.379941 0.192717,-0.03998 0.28583,0.03177 0.206912,0.15946 -0.07891,0.127688 0.04013,0.458059 0.264539,0.73416 0.224411,0.276101 0.321265,0.334775 0.215228,0.130389 -0.123651,-0.238339 -0.08739,-0.306464 0.101115,-0.189962 0.16165,0.0999 0.231461,0.344381 0.155134,0.543282 -0.07632,0.198903 0.0068,0.451612 0.184726,0.561575 0.224446,0.138713 0.25749,0.08615 0.107911,-0.171675 -0.125603,-0.216498 -0.116465,-0.280987 0.02188,-0.154498 0.130614,0.119412 0.239,0.417068 0.240858,0.661459 0.0019,0.24439 0.138194,0.41925 0.302974,0.388577 0.164783,-0.03068 0.283845,0.147918 0.264584,0.396875 -0.01926,0.248955 0.109526,0.424307 0.286189,0.389673 0.198046,-0.03883 0.256894,0.104627 0.153474,0.374132 -0.09225,0.240408 -0.0582,0.369281 0.07567,0.286387 0.136448,-0.08449 0.229174,0.390544 0.211027,1.081075 -0.01781,0.677486 -0.141502,1.231794 -0.274876,1.231794 -0.462973,0 -3.236331,1.816105 -3.102944,2.031928 0.191061,0.309145 -0.162546,0.253405 -1.170813,-0.184552 z M 70.087563,88.439053 c -0.329107,-0.419645 -0.319748,-0.429004 0.0999,-0.0999 0.254661,0.19972 0.46302,0.40808 0.46302,0.46302 0,0.217763 -0.217273,0.07761 -0.562917,-0.363124 z m 16.068298,-0.286631 c -0.07495,-0.121269 0.03185,-0.220488 0.237328,-0.220488 0.205478,0 0.312277,0.09922 0.237329,0.220488 -0.07495,0.121266 -0.181745,0.220485 -0.237329,0.220485 -0.05558,0 -0.162383,-0.09922 -0.237328,-0.220485 z M 98.034856,87.598019 C 96.83478,87.308403 96.104993,86.844803 95.91706,86.252679 95.82397,85.95937 95.667076,85.768904 95.56841,85.82942 c -0.09866,0.06051 -0.179387,-0.760183 -0.179387,-1.823776 0,-1.092052 0.09539,-1.800492 0.219151,-1.627542 0.1289,0.180136 0.171879,0.0099 0.104368,-0.413335 -0.06313,-0.395777 -0.02148,-0.66194 0.09253,-0.591471 0.288788,0.17848 0.586336,-0.864899 0.353902,-1.240985 -0.127109,-0.205664 -0.07395,-0.235951 0.160176,-0.09126 0.256569,0.158567 0.303763,0.09497 0.176202,-0.237445 -0.117412,-0.30597 -0.07427,-0.392248 0.132292,-0.264584 0.204258,0.126236 0.250557,0.04361 0.138784,-0.247668 -0.10342,-0.269504 -0.04457,-0.412959 0.153474,-0.374133 0.176663,0.03463 0.304885,-0.144106 0.284933,-0.397201 -0.02064,-0.261696 0.08435,-0.385623 0.243401,-0.287326 0.175998,0.108772 0.215087,0.0045 0.105449,-0.281172 -0.09582,-0.249711 -0.07001,-0.389617 0.05735,-0.3109 0.268968,0.166231 0.875292,-0.481017 0.763837,-0.815391 -0.04149,-0.124458 0.04363,-0.267794 0.189153,-0.318525 0.677894,-0.236322 1.194136,-0.614072 1.083609,-0.792909 -0.101772,-0.16467 1.551076,-0.01186 3.326086,0.307503 0.71407,0.128476 1.2598,0.716276 1.08586,1.169558 -0.0888,0.231514 -0.052,0.353669 0.0819,0.271455 0.13821,-0.08488 0.2434,0.571577 0.2434,1.519074 0,0.948362 -0.10506,1.603518 -0.2434,1.51788 -0.13388,-0.08287 -0.16738,0.04745 -0.0744,0.289607 0.093,0.242478 0.0411,0.440278 -0.11564,0.440278 -0.15652,0 -0.21368,0.184777 -0.12702,0.410617 0.10295,0.268274 0.0513,0.344948 -0.14894,0.221179 -0.20657,-0.127662 -0.24971,-0.04138 -0.1323,0.264583 0.0958,0.249711 0.0739,0.392038 -0.0486,0.316283 -0.30016,-0.185513 -0.88245,1.133282 -0.6596,1.493877 0.11309,0.182978 0.0506,0.207799 -0.17389,0.06906 -0.25657,-0.158568 -0.30376,-0.09497 -0.1762,0.237445 0.0984,0.256458 0.0662,0.387252 -0.074,0.300577 -0.13656,-0.08439 -0.37751,0.08802 -0.53545,0.383133 -0.15794,0.295118 -0.20269,0.536577 -0.0995,0.536577 0.10325,0 -0.087,0.292389 -0.42268,0.649751 -0.33573,0.357364 -0.6839,0.640921 -0.77373,0.630126 -0.54543,-0.06554 -0.830938,0.08359 -0.667213,0.348504 0.111253,0.180012 0.07314,0.23399 -0.0928,0.131432 -0.372161,-0.230008 -1.160947,0.08155 -0.973664,0.384577 0.08051,0.130273 0.109595,0.224674 0.06463,0.209777 -0.04497,-0.0149 -0.438949,-0.113284 -0.875512,-0.218638 z m 3.175004,-1.606362 c 0.26339,-0.291042 0.41936,-0.529167 0.3466,-0.529167 -0.0728,0 -0.3478,0.238125 -0.61119,0.529167 -0.26339,0.291042 -0.41936,0.529167 -0.3466,0.529167 0.0728,0 0.3478,-0.238125 0.61119,-0.529167 z m -1.673993,-0.501341 c 2.071653,-1.313801 3.922943,-4.38187 3.922943,-6.501322 0,-0.659681 -0.0924,-1.199421 -0.20543,-1.199421 -0.11298,0 -0.16066,0.469421 -0.10594,1.043158 0.2023,2.121344 -2.15564,5.697487 -4.532366,6.873954 -0.610161,0.302024 -0.924335,0.549232 -0.698164,0.549346 0.226171,1.17e-4 0.954702,-0.344456 1.618957,-0.765715 z m 4.452113,-8.594387 c 0,-0.05494 -0.20836,-0.263302 -0.46302,-0.463021 -0.41964,-0.329108 -0.429,-0.31975 -0.0999,0.09989 0.34565,0.44073 0.56292,0.580888 0.56292,0.363127 z m -10.806141,8.831145 c 0,-0.363803 0.06006,-0.512631 0.133454,-0.33073 0.0734,0.181901 0.0734,0.479558 0,0.661459 -0.0734,0.181901 -0.133454,0.03307 -0.133454,-0.330729 z m -3.515108,-1.256771 c -0.329108,-0.419645 -0.319749,-0.429004 0.0999,-0.0999 0.440729,0.345643 0.580887,0.562916 0.363124,0.562916 -0.05494,0 -0.2633,-0.208359 -0.46302,-0.46302 z m 1.020966,-0.08736 c 0.09356,-0.35777 0.213492,-0.477705 0.279545,-0.279546 0.06363,0.190881 -0.01011,0.472853 -0.163859,0.626602 -0.196339,0.19634 -0.230772,0.09304 -0.115686,-0.347056 z m 4.356031,-0.111083 c 0.0054,-0.436562 0.06469,-0.583126 0.131773,-0.325694 0.06708,0.257432 0.06267,0.614619 -0.0098,0.79375 -0.07248,0.179131 -0.127362,-0.03149 -0.12197,-0.468056 z M 82.556731,84.139573 c -0.238467,-0.154109 -0.2711,-0.258098 -0.08176,-0.260532 0.173313,-0.0021 0.3887,0.115012 0.478637,0.260532 0.203015,0.328489 0.111421,0.328489 -0.396875,0 z m 36.573879,-3.175 c 0,-0.509323 0.0545,-0.717682 0.12101,-0.46302 0.0665,0.254661 0.0665,0.67138 0,0.926041 -0.0666,0.254662 -0.12101,0.0463 -0.12101,-0.463021 z m 0.48868,0.374828 c 0.0127,-0.308227 0.0754,-0.37092 0.15985,-0.159854 0.0764,0.190995 0.067,0.419198 -0.0209,0.507119 -0.0879,0.08792 -0.15045,-0.06835 -0.13896,-0.347265 z M 67.554765,79.90624 c 0,-0.800365 0.0496,-1.127786 0.110223,-0.727604 0.06062,0.400182 0.06062,1.055026 0,1.455208 -0.06062,0.400183 -0.110223,0.07276 -0.110223,-0.727604 z m -0.536389,0 c 0,-0.654844 0.0516,-0.922734 0.114662,-0.595312 0.06307,0.327421 0.06307,0.863203 0,1.190625 -0.06306,0.327421 -0.114662,0.05953 -0.114662,-0.595313 z m 52.112234,-1.058333 c 0,-0.509323 0.0545,-0.717683 0.12101,-0.463021 0.0665,0.254661 0.0665,0.67138 0,0.926042 -0.0666,0.254661 -0.12101,0.0463 -0.12101,-0.463021 z m -14.56188,-0.132292 c 0.005,-0.436563 0.0647,-0.583125 0.13177,-0.325694 0.0671,0.257431 0.0627,0.614619 -0.01,0.79375 -0.0725,0.179131 -0.12737,-0.03149 -0.12197,-0.468056 z m 15.07144,-0.132292 c 0,-0.363802 0.0601,-0.51263 0.13346,-0.330729 0.0734,0.181901 0.0734,0.479557 0,0.661458 -0.0734,0.181902 -0.13346,0.03307 -0.13346,-0.330729 z m -19.02059,-3.358354 c 0.25743,-0.06708 0.61462,-0.06267 0.79375,0.0098 0.17913,0.07248 -0.0315,0.127362 -0.46806,0.12197 -0.43656,-0.0054 -0.58312,-0.06469 -0.32569,-0.131774 z M 70.121314,72.133428 c 0,-0.05494 0.208359,-0.263301 0.463021,-0.46302 0.419645,-0.329108 0.429003,-0.31975 0.0999,0.09989 -0.345644,0.440729 -0.562917,0.580887 -0.562917,0.363126 z m 46.532916,-0.627709 c -0.32911,-0.419644 -0.31975,-0.429002 0.0999,-0.0999 0.44073,0.345644 0.58088,0.562916 0.36312,0.562916 -0.0549,0 -0.2633,-0.20836 -0.46302,-0.463021 z M 70.65048,70.778115 c 0.493655,-0.509323 0.957086,-0.926042 1.029846,-0.926042 0.07276,0 -0.271608,0.416719 -0.765262,0.926042 -0.493655,0.509323 -0.957085,0.926041 -1.029846,0.926041 -0.07276,0 0.271608,-0.416718 0.765262,-0.926041 z m 0.79375,0.0324 c 0,-0.05494 0.20836,-0.263302 0.463021,-0.463021 0.419645,-0.329108 0.429004,-0.319749 0.0999,0.09989 -0.345643,0.440729 -0.562917,0.580887 -0.562917,0.363126 z m 12.170834,0 c 0,-0.05494 0.208359,-0.263302 0.463021,-0.463021 0.419645,-0.329108 0.429003,-0.319749 0.0999,0.09989 -0.345644,0.440729 -0.562917,0.580887 -0.562917,0.363126 z m 31.451666,-0.892293 c -0.32911,-0.419644 -0.31975,-0.429002 0.0999,-0.09989 0.44073,0.345644 0.58088,0.562916 0.36312,0.562916 -0.0549,0 -0.2633,-0.20836 -0.46302,-0.463021 z M 78.786418,67.544008 c 0.472943,-0.05869 1.246849,-0.05869 1.719792,0 0.472943,0.05869 0.08599,0.106712 -0.859896,0.106712 -0.945885,0 -1.332839,-0.04802 -0.859896,-0.106712 z m 27.785992,-3.44e-4 c 0.47555,-0.05889 1.18992,-0.05767 1.5875,0.0027 0.39757,0.06037 0.008,0.10855 -0.86464,0.107065 -0.87312,-0.0015 -1.19841,-0.05088 -0.72286,-0.109765 z M 78.394578,67.022895 c 0.257432,-0.06708 0.614619,-0.06267 0.79375,0.0098 0.179131,0.07247 -0.03149,0.127362 -0.468056,0.12197 -0.436562,-0.0054 -0.583126,-0.06469 -0.325694,-0.131774 z m 1.5875,0 c 0.257432,-0.06708 0.614619,-0.06267 0.79375,0.0098 0.179131,0.07247 -0.03149,0.127362 -0.468056,0.12197 -0.436562,-0.0054 -0.583125,-0.06469 -0.325694,-0.131774 z m 26.321012,0.0081 c 0.1819,-0.0734 0.47955,-0.0734 0.66145,0 0.1819,0.0734 0.0331,0.133453 -0.33073,0.133453 -0.3638,0 -0.51263,-0.06005 -0.33072,-0.133453 z m 1.46024,-0.0081 c 0.25743,-0.06708 0.61462,-0.06267 0.79375,0.0098 0.17913,0.07247 -0.0315,0.127362 -0.46806,0.12197 -0.43656,-0.0054 -0.58312,-0.06469 -0.32569,-0.131774 z M 91.767538,65.967166 c 0.190995,-0.07643 0.419198,-0.06703 0.507119,0.02089 0.08792,0.08792 -0.06835,0.150453 -0.347265,0.138964 -0.308227,-0.0127 -0.37092,-0.07539 -0.159854,-0.159852 z m 3.175,0 c 0.190995,-0.07643 0.419201,-0.06703 0.507119,0.02089 0.08792,0.08792 -0.06835,0.150453 -0.347265,0.138964 -0.308227,-0.0127 -0.37092,-0.07539 -0.159854,-0.159852 z"
         id="path1227" />
      <path
         style="fill:#120e0a;stroke-width:0.264583"
         d="m 65.623397,121.71041 c 0,-0.52584 0.17639,-0.52917 28.045834,-0.52917 27.869449,0 28.045839,0.003 28.045839,0.52917 0,0.52584 -0.17639,0.52916 -28.045839,0.52916 -27.869444,0 -28.045834,-0.003 -28.045834,-0.52916 z m 0.529167,-5.68854 v -4.36563 h 1.700892 c 2.309212,0 2.532441,0.25729 2.532441,2.91888 0,1.4118 -0.11567,2.19539 -0.357402,2.42121 -0.299503,0.27977 -0.300013,0.54936 -0.0031,1.66407 0.462171,1.7354 0.463433,1.72709 -0.262639,1.72709 -0.528039,0 -0.679741,-0.21156 -0.993645,-1.38572 -0.245497,-0.91829 -0.526156,-1.4157 -0.832025,-1.47461 -0.394446,-0.076 -0.461558,0.12552 -0.461558,1.38572 0,1.39653 -0.03503,1.47461 -0.661458,1.47461 h -0.661458 z m 2.778125,-1.45521 c 0,-1.39082 -0.0322,-1.45891 -0.727604,-1.53893 -0.723758,-0.0833 -0.727605,-0.0751 -0.727605,1.53893 0,1.61407 0.0038,1.6222 0.727605,1.53893 0.695407,-0.08 0.727604,-0.14812 0.727604,-1.53893 z m 2.778125,1.45521 v -4.36563 h 2.116666 c 2.08139,0 2.116667,0.011 2.116667,0.66146 0,0.62538 -0.07937,0.66146 -1.455208,0.66146 H 73.03173 v 1.19062 1.19063 h 1.190626 c 1.09361,0 1.190625,0.0539 1.190625,0.66146 0,0.60756 -0.09701,0.66145 -1.190625,0.66145 H 73.03173 v 1.19063 1.19062 h 1.455209 c 1.375833,0 1.455208,0.0361 1.455208,0.66146 0,0.65044 -0.03528,0.66146 -2.116667,0.66146 h -2.116666 z m 6.144289,3.95374 c -0.438613,-0.30721 -0.588039,-0.67699 -0.588039,-1.4552 0,-0.92891 0.07062,-1.04334 0.643885,-1.04334 0.505732,0 0.661847,0.15612 0.727604,0.72761 0.06644,0.5774 0.220271,0.7276 0.745178,0.7276 0.57109,0 0.672528,-0.13306 0.742489,-0.97397 0.08055,-0.96817 0.07227,-0.97674 -1.389062,-1.43738 l -1.470094,-0.46341 v -1.78486 c 0,-2.20656 0.328115,-2.61642 2.094558,-2.61642 1.534544,0 2.138775,0.54781 2.138775,1.93906 0,0.85265 -0.07868,0.97136 -0.643884,0.97136 -0.505733,0 -0.661848,-0.15611 -0.727605,-0.72761 -0.06644,-0.57739 -0.22027,-0.7276 -0.745177,-0.7276 -0.568511,0 -0.67268,0.13407 -0.741307,0.95412 -0.07806,0.93275 -0.04843,0.96539 1.322916,1.45732 l 1.402766,0.50321 0.07845,1.63922 c 0.06527,1.36376 -0.01254,1.73022 -0.463021,2.1807 -0.658603,0.6586 -2.277427,0.72566 -3.128432,0.12959 z m 6.026544,-3.27471 v -3.6866 l -0.727604,-0.0837 c -0.523309,-0.0602 -0.727604,-0.2323 -0.727604,-0.61289 0,-0.48507 0.17639,-0.52917 2.116667,-0.52917 1.993622,0 2.121582,0.0346 2.201214,0.59532 0.07192,0.50642 -0.03671,0.59531 -0.727604,0.59531 h -0.812152 v 3.70416 3.70417 h -0.661458 -0.661459 z m 3.801663,3.22357 c 0.153887,-0.53511 1.754588,-7.96887 1.754588,-8.14841 0,-0.0659 0.401227,-0.11982 0.891616,-0.11982 0.873594,0 0.897803,0.0308 1.19752,1.52136 0.168246,0.83674 0.586677,2.80785 0.929844,4.38024 l 0.623946,2.85889 -0.695727,-0.0808 c -0.540737,-0.0628 -0.726059,-0.25759 -0.831874,-0.87451 -0.124196,-0.72406 -0.227357,-0.79375 -1.175062,-0.79375 -0.950016,0 -1.057985,0.0736 -1.261737,0.8599 -0.177716,0.68582 -0.358799,0.85989 -0.894546,0.85989 -0.514072,0 -0.640472,-0.10867 -0.538568,-0.46302 z m 3.316688,-3.04271 c -0.01397,-0.32742 -0.169974,-1.19062 -0.346673,-1.91823 l -0.321279,-1.32291 -0.314782,1.40208 c -0.47202,2.10244 -0.424749,2.43437 0.346675,2.43437 0.517094,0 0.655916,-0.12992 0.636059,-0.59531 z m 3.788439,3.09385 c -0.563055,-0.39437 -0.588039,-0.57987 -0.588039,-4.36562 v -3.95375 h 0.653991 0.653992 l 0.07361,3.63802 0.07361,3.63802 h 0.661458 0.661459 l 0.07361,-3.63802 0.07361,-3.63802 h 0.653991 0.653992 v 3.83646 c 0,3.48368 -0.04866,3.88512 -0.529167,4.36562 -0.646398,0.6464 -2.273292,0.70764 -3.116127,0.11729 z m 4.703627,-3.95374 v -4.36563 h 1.719796 c 2.36454,0 2.77812,0.42452 2.77812,2.85155 0,1.18549 -0.13792,1.99011 -0.40696,2.37422 -0.36178,0.51651 -0.36411,0.74508 -0.0211,2.05879 l 0.3859,1.47777 -0.68633,-0.0817 c -0.58132,-0.0692 -0.74521,-0.29423 -1.07116,-1.47075 -0.28921,-1.04395 -0.50788,-1.38907 -0.88011,-1.38907 -0.42395,0 -0.49528,0.20958 -0.49528,1.45521 0,1.37584 -0.0361,1.45521 -0.66146,1.45521 h -0.661456 z m 2.894186,-0.24503 c 0.17223,-0.20753 0.27611,-0.89214 0.23084,-1.52136 -0.0775,-1.07646 -0.1292,-1.14403 -0.87607,-1.14403 -0.74804,0 -0.79852,0.0665 -0.87659,1.15475 -0.0456,0.63511 -0.0195,1.31972 0.0579,1.52135 0.18325,0.47754 1.06411,0.47109 1.46397,-0.0107 z m 2.75956,4.14763 c 0.15389,-0.53511 1.75459,-7.96887 1.75459,-8.14841 0,-0.0659 0.40123,-0.11982 0.89161,-0.11982 0.8736,0 0.89781,0.0308 1.19752,1.52136 0.16825,0.83674 0.58668,2.80785 0.92985,4.38024 l 0.62394,2.85889 -0.69572,-0.0808 c -0.54074,-0.0628 -0.72606,-0.25759 -0.83188,-0.87451 -0.12419,-0.72406 -0.22735,-0.79375 -1.17506,-0.79375 -0.95001,0 -1.05798,0.0736 -1.26174,0.8599 -0.17771,0.68582 -0.35879,0.85989 -0.89454,0.85989 -0.51407,0 -0.64047,-0.10867 -0.53857,-0.46302 z m 3.31669,-3.04271 c -0.014,-0.32742 -0.16998,-1.19062 -0.34667,-1.91823 l -0.32128,-1.32291 -0.31479,1.40208 c -0.47202,2.10244 -0.42474,2.43437 0.34668,2.43437 0.51709,0 0.65592,-0.12992 0.63606,-0.59531 z m 3.2004,-0.85989 v -4.36563 h 0.62525 c 0.54763,0 0.73649,0.30382 1.52135,2.4474 l 0.89611,2.44739 0.0761,-2.44739 c 0.0747,-2.40363 0.0877,-2.4474 0.72761,-2.4474 h 0.65152 v 4.36563 4.36562 h -0.62901 c -0.55265,0 -0.73735,-0.29712 -1.52135,-2.44739 l -0.89234,-2.4474 -0.0761,2.4474 c -0.0747,2.40362 -0.0877,2.44739 -0.7276,2.44739 h -0.65153 z m 6.87916,0.66145 v -3.70416 h -0.66145 c -0.52917,0 -0.66146,-0.13229 -0.66146,-0.66146 0,-0.65043 0.0353,-0.66146 2.11666,-0.66146 2.08139,0 2.11667,0.011 2.11667,0.66146 0,0.55856 -0.12347,0.66146 -0.79375,0.66146 h -0.79375 v 3.70416 3.70417 h -0.66146 -0.66146 z m -40.653678,-9.19427 c 0.09277,-0.98226 0.169516,-2.47054 0.170551,-3.30729 0.0016,-1.30929 0.07088,-1.52135 0.496882,-1.52135 0.535017,0 0.593304,-0.40768 0.989997,-6.923905 l 0.171849,-2.822859 -1.291444,-0.174844 c -3.064285,-0.414867 -5.325645,-1.489282 -7.377081,-3.504999 -2.886858,-2.836593 -3.972701,-5.702229 -3.782359,-9.981989 0.108791,-2.446109 0.217588,-2.923366 1.080791,-4.741024 1.061953,-2.236172 3.095136,-4.588814 4.859081,-5.622556 3.089796,-1.81074 6.880519,-2.229133 10.231054,-1.129231 l 1.76443,0.579222 0.993404,-0.685243 c 2.186393,-1.508159 3.986861,-2.112591 6.666728,-2.238074 2.963846,-0.13878 5.018246,0.407711 7.392195,1.966398 l 1.42386,0.934874 1.72611,-0.566645 c 3.00532,-0.986577 6.59152,-0.737117 9.31237,0.64778 7.77341,3.956618 9.42143,14.527345 3.23012,20.71865 -1.90772,1.907726 -4.19733,3.075276 -6.90887,3.523076 l -1.93376,0.319354 0.15775,2.006735 c 0.0868,1.103705 0.23573,3.286657 0.33104,4.851006 0.14878,2.442134 0.23739,2.844274 0.62672,2.844274 0.38265,0 0.48028,0.37808 0.62535,2.42189 0.0946,1.33205 0.17191,2.82033 0.17191,3.30729 v 0.8854 H 93.366389 77.71771 Z m 7.476012,0.79375 c -0.05034,-0.40018 -0.03455,-0.54901 0.03509,-0.33073 0.232611,0.72915 0.657529,1.05834 1.36611,1.05834 1.086279,0 1.728041,-0.61706 2.529771,-2.43237 2.706876,-6.12902 5.69908,-12.570191 7.040028,-15.154715 0.863047,-1.663422 1.569175,-3.149319 1.569175,-3.301995 0,-0.152675 -0.211632,-0.27759 -0.470294,-0.27759 -0.258664,0 -0.736912,-0.186745 -1.062773,-0.414988 -0.583525,-0.408715 -0.607155,-0.383725 -1.563627,1.653646 -1.118084,2.381623 -5.52279,10.619052 -7.75558,14.504052 -0.83634,1.45521 -1.580407,2.88396 -1.653479,3.175 l -0.132864,0.52917 -0.02619,-0.52917 c -0.01439,-0.29104 0.326948,-1.12448 0.758547,-1.85208 0.431599,-0.72761 0.786757,-1.41222 0.789239,-1.52136 0.0024,-0.10914 -1.824374,-0.19844 -4.059677,-0.19844 h -4.064188 l -0.166846,1.38907 c -0.09177,0.76398 -0.167881,2.07367 -0.169146,2.91041 l -0.0023,1.52136 h 3.565261 3.56526 z m 16.244336,0.59733 c 0,-0.0717 -0.26738,-0.4378 -0.59419,-0.81366 -0.3268,-0.37586 -1.070946,-1.59716 -1.653645,-2.71399 l -1.059456,-2.03061 h -3.65906 -3.659061 l -0.99074,2.32146 c -0.544907,1.27681 -1.13075,2.46148 -1.301877,2.63261 -0.171125,0.17112 -0.311137,0.40638 -0.311137,0.5228 0,0.11642 2.976563,0.21167 6.614584,0.21167 3.638021,0 6.614582,-0.0586 6.614582,-0.13028 z m 6.87556,-2.18483 c -0.006,-3.69028 0.15585,-3.50573 -3.06996,-3.50573 -1.51099,0 -2.74727,0.0624 -2.74727,0.13867 0,0.0763 0.41672,0.74448 0.92605,1.4849 0.93247,1.35558 1.26998,3.15972 0.66145,3.53581 -0.71534,0.4421 -0.0573,0.66146 1.98438,0.66146 h 2.24896 l -0.004,-2.31511 z m -4.54723,1.73302 c 0.17463,-0.17462 0.3175,-0.72174 0.3175,-1.21581 0,-0.71636 -0.84403,-2.1758 -4.16718,-7.20552 -2.291956,-3.468967 -4.232762,-6.315135 -4.312905,-6.324814 -0.08015,-0.0097 -0.408381,0.523039 -0.729416,1.183826 l -0.583697,1.201428 1.552966,2.701176 c 0.854131,1.485644 2.294816,4.070394 3.201519,5.743884 0.906703,1.67349 1.896313,3.3106 2.199133,3.63802 0.60594,0.65518 1.99204,0.80786 2.52208,0.27781 z m -14.033763,-10.530413 2.505861,-4.630208 -0.59417,-1.12036 C 91.280046,91.14243 91.037841,90.968692 89.462533,90.461332 l -1.756286,-0.56565 -1.231442,0.831091 c -1.587206,1.071192 -2.614671,1.490334 -4.614709,1.882521 l -1.622676,0.31819 -0.157795,1.493025 c -0.08679,0.821161 -0.237369,3.014353 -0.334621,4.873758 l -0.176824,3.380733 3.913627,-0.0734 3.913626,-0.0734 z m 7.173452,3.241143 c -0.47666,-0.83674 -1.311838,-2.291683 -1.855957,-3.2332 l -0.989303,-1.711849 -0.518176,1.182682 c -0.284996,0.650476 -0.94383,2.105417 -1.464075,3.233207 l -0.945898,2.05052 h 3.320031 3.320029 z m 10.157581,1.32292 c 0.079,-0.15593 -0.4782,-9.364853 -0.57427,-9.490576 -0.0133,-0.01746 -0.73824,-0.172193 -1.6109,-0.343879 -1.96001,-0.385609 -3.21831,-0.901364 -4.72035,-1.934797 -1.106896,-0.761563 -1.20722,-0.782061 -2.209192,-0.451382 -0.841632,0.277765 -1.174017,0.591863 -1.677281,1.585005 l -0.627642,1.238592 2.303782,3.540966 c 1.267079,1.947532 2.695523,4.106511 3.174313,4.797741 l 0.87053,1.25677 h 2.48521 c 1.36687,0 2.53048,-0.0893 2.5858,-0.19844 z M 93.26005,91.310613 93.736515,90.254002 93.030262,89.048872 C 92.641822,88.386049 92.2763,87.84374 92.217994,87.84374 c -0.296601,0 -1.975041,1.134269 -1.898044,1.282674 0.720069,1.387874 2.114034,3.456874 2.265825,3.36306 0.108797,-0.06724 0.412221,-0.597728 0.674275,-1.178861 z m -10.984585,0.619921 c 1.841829,-0.418915 4.646891,-1.869067 4.646891,-2.402335 0,-0.161993 -0.602901,-0.771096 -1.339776,-1.353566 -1.27944,-1.011338 -3.391834,-3.756837 -3.104587,-4.03506 0.07512,-0.07276 0.3292,0.165365 0.564624,0.529167 0.691734,1.068951 3.43123,3.843997 3.614161,3.661064 0.09234,-0.09234 -1.02843,-2.287572 -2.490605,-4.878293 -1.83777,-3.256208 -2.561728,-4.770207 -2.345042,-4.904127 0.172402,-0.10655 0.389355,-0.146822 0.482116,-0.08949 0.09276,0.05733 1.271526,1.894942 2.619481,4.083583 1.347954,2.188642 2.620933,3.97935 2.828843,3.97935 0.873884,0 0.554294,-0.995069 -1.588882,-4.947116 -1.423767,-2.625449 -2.170647,-4.266946 -2.013127,-4.424466 0.306324,-0.306325 -0.05322,-0.749025 3.152405,3.881477 1.48594,2.146433 2.875354,3.902604 3.087582,3.902604 0.899959,0 0.539369,-0.961651 -1.732736,-4.620977 -2.580936,-4.156719 -2.690349,-4.381147 -2.220444,-4.554614 0.16927,-0.06249 1.074682,0.994193 2.012029,2.348177 4.365583,6.306027 4.691666,6.844919 4.691666,7.753551 0,0.492094 -0.119062,0.968301 -0.264583,1.058239 -0.449913,0.278061 -0.294971,1.023067 0.436708,2.099828 l 0.701291,1.032042 0.852604,-1.689 c 0.72035,-1.427003 0.811456,-1.807032 0.587336,-2.449943 -0.145897,-0.418518 -0.202475,-1.543188 -0.12573,-2.499263 0.174588,-2.174994 1.861875,-5.684265 3.402081,-7.075749 0.891429,-0.805352 1.20436,-0.927291 2.379679,-0.927291 1.21922,0 1.45505,0.101762 2.38049,1.027206 0.95427,0.954267 1.02445,1.12805 0.98831,2.447396 l -0.0389,1.42019 -0.15954,-1.480718 c -0.0877,-0.814395 -0.32946,-1.685449 -0.53714,-1.935675 -0.60776,-0.73226 -1.76496,-1.213815 -2.91684,-1.213815 -0.902629,0 -1.233676,0.166834 -2.097699,1.05715 -1.527694,1.574184 -2.975946,4.689126 -3.14201,6.757927 -0.16265,2.026296 0.230524,3.162914 1.282237,3.706776 0.976022,0.504719 1.388171,0.485359 2.566102,-0.120539 1.38691,-0.713391 2.30594,-1.768864 3.50134,-4.021146 1.23895,-2.334334 1.39976,-2.198021 0.22415,0.189997 -0.8529,1.732479 -2.85706,3.87616 -4.046787,4.328491 -0.593016,0.225465 -1.665195,1.757858 -1.409108,2.013945 0.331857,0.331857 3.028465,-1.474282 4.416485,-2.958086 0.89433,-0.956038 1.60286,-1.531261 1.60286,-1.301285 0,0.436012 -2.32167,2.91732 -3.43959,3.676097 l -0.661454,0.448958 0.661454,0.519354 c 1.20394,0.945282 3.36783,1.831324 5.26843,2.15724 7.03884,1.207027 13.78157,-4.772453 13.78157,-12.221546 0,-7.100041 -6.33256,-13.025319 -13.17177,-12.324621 -1.38772,0.142177 -3.53943,0.745975 -4.00514,1.123899 -0.0612,0.04967 0.13476,0.35773 0.43548,0.684578 0.64355,0.699463 2.18935,3.117126 2.18935,3.424194 0,0.540305 -0.45886,0.101872 -1.11374,-1.064157 -0.83563,-1.487843 -2.75767,-3.364483 -4.44638,-4.34134 -2.423919,-1.402152 -5.67124,-1.881614 -8.432459,-1.24504 -2.889109,0.666058 -6.464511,3.28312 -7.72088,5.651399 -0.594799,1.121204 -1.040707,1.540026 -1.040707,0.977488 0,-0.294281 2.069132,-3.409125 2.400771,-3.61409 0.503394,-0.311115 0.209399,-0.612019 -1.011708,-1.035478 -6.113238,-2.119967 -12.970029,1.3335 -15.133646,7.622157 -1.604561,4.66374 -0.477213,9.547039 3.00659,13.023555 3.094569,3.088101 6.694884,4.117719 10.985894,3.14175 z m 16.339609,-6.223849 c 2.376726,-1.176467 4.734666,-4.75261 4.532366,-6.873954 -0.0547,-0.573737 -0.007,-1.043158 0.10594,-1.043158 0.11299,0 0.20543,0.53974 0.20543,1.199421 0,1.262972 -0.82775,3.221658 -2.04866,4.847677 -0.72136,0.960728 -2.827929,2.419699 -3.49324,2.41936 -0.226171,-1.14e-4 0.088,-0.247322 0.698164,-0.549346 z m -8.550145,3.763891 c -0.554424,-0.430641 -0.540912,-0.449744 1.058333,-1.496129 2.517809,-1.647402 2.483636,-1.839889 -1.322292,-7.448066 -1.712812,-2.52389 -3.208065,-4.588891 -3.322789,-4.588891 -0.114723,0 0.582668,1.279922 1.549757,2.844271 0.967087,1.564349 2.107994,3.412347 2.535344,4.106659 0.786225,1.277374 0.805619,1.928929 0.06587,2.212797 -0.600152,0.230299 -0.895368,-0.100988 -3.69461,-4.145986 -1.406303,-2.032153 -2.619677,-3.694824 -2.696385,-3.694824 -0.07671,0 0.271937,0.74414 0.774772,1.653645 2.386158,4.315984 3.629216,6.764859 3.629216,7.149709 0,0.451702 -0.887863,0.858232 -1.307698,0.59876 -0.139756,-0.08637 -1.360456,-1.941796 -2.712667,-4.123161 -1.352212,-2.181362 -2.495781,-3.854472 -2.541268,-3.718019 -0.04548,0.136455 1.015884,2.192551 2.358594,4.569104 1.342713,2.376551 2.460564,4.558621 2.484117,4.849043 0.02355,0.29042 0.211585,0.534898 0.417851,0.543282 0.748202,0.03042 1.823411,0.445466 1.694469,0.654095 -0.143317,0.231892 1.241398,0.794629 1.458685,0.592799 0.07276,-0.06758 -0.120425,-0.319175 -0.429302,-0.559088 z"
         id="path1225" />
    </g>
  </g>
</svg>
